<?xml version="1.0" standalone="no"?>
<!DOCTYPE svg PUBLIC "-//W3C//DTD SVG 20010904//EN"
 "http://www.w3.org/TR/2001/REC-SVG-20010904/DTD/svg10.dtd">
<svg version="1.0" xmlns="http://www.w3.org/2000/svg"
 width="748.000000pt" height="748.000000pt" viewBox="0 0 748.000000 748.000000"
 preserveAspectRatio="xMidYMid meet">
<metadata>
Created by potrace 1.14, written by Peter Selinger 2001-2017
</metadata>
<g transform="translate(0.000000,748.000000) scale(0.100000,-0.100000)"
fill="#000000" stroke="none">
<path d="M3600 7237 c-30 -13 -120 -62 -200 -109 -80 -46 -284 -167 -455 -268
-523 -309 -577 -340 -586 -340 -5 0 -9 -4 -9 -8 0 -5 -22 -19 -50 -32 -27 -13
-50 -27 -50 -32 0 -4 -4 -8 -9 -8 -5 0 -83 -43 -173 -97 -89 -53 -172 -101
-183 -107 -11 -6 -31 -19 -45 -27 -21 -13 -217 -129 -278 -164 -9 -5 -147 -86
-305 -180 -395 -233 -380 -224 -397 -232 -27 -13 -92 -77 -117 -117 -59 -93
-56 -42 -58 -1006 -2 -781 -1 -887 13 -902 8 -10 19 -18 24 -18 6 0 73 36 149
80 77 44 142 80 144 80 2 0 26 13 52 30 63 41 87 39 116 -7 48 -75 42 -100
-33 -141 -19 -11 -100 -57 -180 -102 -80 -46 -171 -97 -204 -115 -32 -17 -63
-40 -70 -51 -6 -11 -12 -74 -13 -149 -1 -71 -2 -132 -2 -135 -1 -3 -18 -14
-38 -25 -21 -11 -40 -22 -43 -25 -3 -3 -21 -13 -40 -24 -42 -22 -114 -63 -155
-87 -16 -10 -48 -27 -70 -39 -79 -43 -104 -86 -79 -136 30 -59 77 -69 141 -32
21 12 56 32 78 45 22 12 47 26 55 30 8 3 17 9 20 12 3 3 23 15 45 27 22 11
131 71 242 133 174 97 204 111 222 102 23 -13 61 -80 61 -109 0 -20 -29 -52
-48 -52 -7 0 -12 -4 -12 -9 0 -5 -12 -14 -28 -20 -15 -6 -45 -21 -67 -33 -22
-13 -87 -50 -145 -82 -58 -33 -112 -66 -121 -73 -14 -12 -17 -35 -17 -131 0
-64 2 -125 5 -134 3 -14 18 -9 89 33 47 27 88 49 90 49 2 0 21 11 42 23 20 13
69 41 107 62 39 21 77 43 85 49 8 6 24 16 35 22 11 6 52 28 90 49 39 21 86 48
105 60 19 11 46 26 60 33 14 6 32 16 40 22 23 15 472 270 476 270 2 0 25 13
51 29 83 50 157 91 186 102 15 6 27 15 27 20 0 11 40 12 56 1 22 -14 54 -77
54 -107 0 -21 -7 -33 -23 -41 -12 -6 -103 -57 -202 -114 -99 -56 -196 -112
-215 -122 -19 -11 -53 -30 -75 -42 -22 -13 -85 -48 -140 -79 -55 -31 -107 -61
-115 -67 -8 -6 -22 -13 -30 -17 -8 -4 -104 -58 -213 -120 -110 -62 -203 -113
-208 -113 -5 0 -9 -4 -9 -9 0 -5 -9 -12 -20 -16 -11 -3 -70 -35 -131 -71 -61
-35 -113 -64 -114 -64 -1 0 -58 -32 -126 -72 -68 -39 -142 -81 -164 -93 -182
-99 -454 -261 -473 -282 -19 -20 -23 -34 -19 -64 5 -46 21 -68 64 -86 38 -15
46 -13 181 64 51 29 97 53 102 53 6 0 10 4 10 9 0 5 12 14 27 20 16 6 48 22
73 37 25 14 115 66 200 114 85 48 173 98 195 110 22 13 58 33 80 45 22 12 100
57 174 99 94 54 141 76 156 72 20 -5 69 -82 71 -110 1 -19 -29 -47 -76 -72
-25 -14 -72 -40 -105 -59 -33 -20 -71 -41 -85 -47 -14 -7 -27 -15 -30 -18 -3
-3 -25 -16 -50 -29 -89 -49 -134 -77 -137 -87 -2 -5 27 -27 64 -49 97 -56 114
-65 127 -65 6 0 53 25 105 55 51 30 97 55 102 55 5 0 9 3 9 8 0 4 14 13 30 21
17 7 84 44 150 82 65 38 123 69 129 69 6 0 11 5 11 10 0 6 4 10 10 10 5 0 39
18 75 40 36 22 67 40 69 40 2 0 39 20 82 45 44 25 86 45 95 45 9 0 29 -16 43
-35 15 -19 24 -35 20 -35 -3 0 -1 -7 6 -15 27 -32 3 -61 -97 -118 -54 -30
-114 -64 -133 -75 -19 -11 -105 -59 -190 -107 -85 -49 -170 -96 -187 -107 -18
-10 -50 -27 -70 -39 -21 -11 -46 -29 -57 -39 -18 -18 -18 -18 2 -36 12 -10 42
-29 66 -43 147 -84 233 -136 249 -149 9 -8 17 -11 17 -7 0 4 8 1 18 -7 15 -14
254 -156 362 -216 25 -13 52 -31 61 -38 8 -8 18 -14 21 -14 3 0 37 -18 74 -40
38 -23 76 -45 84 -50 8 -4 72 -42 142 -84 70 -42 130 -76 133 -76 3 0 11 -5
18 -10 21 -18 418 -250 428 -250 5 0 9 -4 9 -10 0 -5 4 -10 9 -10 5 0 77 -40
161 -90 84 -49 156 -90 161 -90 5 0 9 -4 9 -8 0 -4 12 -13 28 -20 15 -6 68
-36 117 -67 177 -108 209 -120 310 -120 80 0 96 4 150 31 67 34 114 61 174 98
22 15 42 26 44 26 2 0 44 25 93 54 49 30 112 67 139 82 28 14 57 32 66 40 8 8
18 14 21 14 3 0 59 32 124 71 66 39 126 74 134 77 8 3 20 10 25 14 6 5 42 27
80 49 39 23 81 49 95 57 14 9 27 17 30 17 3 0 23 12 45 26 22 14 56 34 75 45
19 10 37 22 38 27 2 4 8 7 13 7 5 0 38 18 74 40 36 22 70 40 75 40 6 0 10 5
10 10 0 6 4 10 9 10 8 0 127 69 329 189 29 17 57 31 62 31 6 0 10 3 10 8 0 4
10 12 23 18 12 6 88 49 168 97 81 47 161 94 178 104 17 10 125 74 242 143 116
69 241 143 279 165 126 74 186 142 217 245 12 43 16 103 17 273 1 119 -3 217
-8 217 -5 0 -5 6 0 13 11 14 10 684 0 694 -7 7 -55 -15 -151 -71 -92 -53 -106
-50 -152 41 -26 52 -29 79 -10 97 10 10 134 82 187 109 8 4 33 19 55 33 22 13
48 27 58 31 18 6 20 25 19 142 -1 53 -16 86 -30 66 -4 -6 -29 -22 -57 -36 -61
-32 -111 -59 -285 -160 -75 -42 -158 -89 -185 -104 -93 -52 -240 -135 -255
-145 -8 -6 -22 -13 -30 -17 -8 -4 -68 -38 -133 -75 -66 -37 -120 -68 -122 -68
-2 0 -33 -18 -70 -40 -124 -76 -139 -75 -186 16 -41 81 -35 97 55 144 36 19
66 38 66 42 0 4 5 8 11 8 6 0 48 23 94 50 46 28 87 50 93 50 6 0 12 4 14 8 2
4 50 34 108 67 126 73 130 75 455 263 143 83 265 155 270 159 6 5 21 14 35 20
14 7 43 24 65 37 45 28 225 129 240 135 6 2 12 7 15 10 3 3 23 16 45 28 93 49
238 133 253 145 6 6 12 7 12 2 0 -5 4 -4 8 2 4 6 56 37 115 70 75 41 109 66
113 81 6 21 -44 129 -54 118 -3 -3 -10 0 -17 5 -12 10 -83 -22 -97 -44 -4 -6
-8 -8 -8 -3 0 4 -18 -4 -40 -18 -22 -14 -64 -38 -92 -54 -94 -51 -152 -84
-190 -108 -21 -12 -40 -23 -42 -23 -3 0 -31 -15 -63 -34 -105 -61 -167 -96
-203 -114 -19 -9 -37 -20 -40 -23 -3 -3 -36 -22 -73 -43 -71 -38 -112 -62
-174 -98 -21 -12 -78 -44 -128 -72 -49 -27 -92 -52 -95 -55 -8 -10 -44 -12
-55 -3 -16 11 -65 110 -65 130 0 17 38 62 53 62 4 0 64 33 134 73 135 78 215
123 248 141 45 24 67 54 67 91 0 41 -21 69 -63 84 -25 9 -39 5 -107 -31 -42
-22 -79 -43 -82 -47 -3 -3 -24 -16 -47 -28 -24 -13 -62 -33 -85 -45 -24 -13
-45 -25 -48 -28 -5 -5 -166 -99 -309 -179 -35 -20 -87 -49 -115 -65 -28 -16
-71 -39 -95 -52 -24 -13 -48 -27 -55 -32 -6 -5 -33 -22 -61 -37 -27 -15 -99
-55 -158 -89 -122 -68 -162 -91 -227 -126 -25 -13 -52 -29 -60 -36 -8 -6 -40
-24 -70 -40 -30 -16 -61 -35 -68 -41 -7 -7 -17 -13 -22 -13 -5 0 -47 -23 -95
-50 -48 -28 -90 -50 -95 -50 -5 0 -10 -3 -12 -7 -1 -5 -24 -19 -51 -33 -59
-31 -70 -25 -114 56 -35 64 -41 95 -20 113 11 8 357 218 579 350 15 9 57 34
95 57 525 314 646 385 733 429 11 5 20 13 20 17 0 5 5 8 10 8 6 0 43 19 83 41
40 23 95 54 122 69 209 117 208 115 151 209 -21 33 -35 65 -31 70 3 5 18 16
33 24 30 15 557 313 612 345 19 12 51 29 70 39 19 9 37 19 40 22 3 4 21 15 40
25 189 103 192 106 158 174 -32 64 -53 75 -98 53 -31 -15 -277 -153 -415 -233
-27 -16 -66 -36 -85 -46 -19 -9 -37 -19 -40 -22 -4 -4 -39 -24 -95 -54 -11 -6
-22 -13 -25 -16 -3 -3 -16 -11 -30 -18 -14 -6 -38 -20 -55 -30 -38 -22 -130
-74 -175 -100 -19 -10 -165 -93 -325 -184 -319 -182 -506 -288 -575 -326 -75
-42 -101 -57 -202 -116 -54 -31 -102 -56 -108 -56 -5 0 -10 -4 -10 -9 0 -5 -8
-11 -17 -14 -10 -3 -51 -24 -92 -47 -40 -23 -77 -38 -82 -33 -4 4 -24 38 -43
75 -49 89 -44 96 101 178 64 36 141 80 172 97 31 18 62 36 70 40 8 3 79 44
159 90 80 45 147 83 150 83 2 0 17 9 33 20 26 19 30 43 9 60 -3 3 -14 22 -24
43 -10 21 -24 41 -31 43 -13 5 -23 1 -110 -50 -133 -77 -175 -96 -197 -91 -25
6 -98 129 -98 164 0 14 34 39 128 92 142 80 244 138 315 181 26 15 50 28 52
28 3 0 22 10 43 23 20 13 62 37 92 54 30 16 71 40 90 51 19 12 42 25 50 29 8
4 53 29 100 56 47 27 114 65 150 85 36 19 77 43 92 53 14 11 33 19 42 19 9 0
16 3 16 8 0 4 61 41 135 82 73 41 138 84 143 95 7 15 2 34 -19 77 -43 85 -49
87 -134 40 -33 -18 -68 -36 -77 -39 -10 -3 -18 -9 -18 -14 0 -5 -5 -9 -10 -9
-6 0 -65 -31 -131 -70 -66 -38 -121 -70 -123 -70 -2 0 -41 -22 -88 -49 -46
-26 -111 -63 -144 -81 -32 -18 -75 -42 -94 -53 -19 -10 -40 -23 -46 -28 -22
-18 -87 62 -89 111 0 16 44 60 60 60 6 0 26 11 45 23 32 22 84 52 197 113 23
13 52 30 65 38 27 17 391 223 431 243 15 8 35 26 44 40 16 24 16 28 -7 72 -38
74 -60 101 -82 101 -21 0 -150 -68 -156 -82 -2 -4 -8 -8 -14 -8 -5 0 -55 -26
-111 -58 -56 -33 -129 -74 -162 -92 -33 -18 -69 -38 -80 -44 -10 -6 -25 -17
-33 -24 -7 -7 -17 -10 -22 -7 -5 3 -10 2 -12 -3 -2 -6 -194 -118 -315 -184
-18 -10 -128 -73 -245 -140 -117 -66 -238 -135 -268 -151 -30 -16 -72 -40 -92
-53 -21 -13 -42 -24 -48 -24 -5 0 -10 -5 -10 -12 0 -6 -3 -9 -6 -5 -3 3 -23
-5 -44 -18 -22 -14 -74 -44 -117 -68 -43 -24 -143 -81 -223 -127 -193 -110
-291 -162 -295 -158 -1 1 -16 30 -33 62 -44 87 -44 86 143 191 85 48 465 264
558 318 54 31 100 57 102 57 2 0 41 22 87 50 46 27 89 50 96 50 6 0 12 5 12
10 0 6 5 10 10 10 23 0 130 76 130 92 0 9 -16 43 -35 75 -19 32 -35 63 -35 68
1 6 120 80 266 165 146 85 298 174 337 198 40 23 83 48 97 55 14 6 30 15 35
20 6 4 39 25 75 46 36 20 120 70 187 109 66 40 125 72 130 72 5 0 17 13 26 30
18 29 18 30 -20 94 -53 93 -63 94 -207 7 -64 -39 -121 -71 -126 -71 -6 0 -10
-4 -10 -10 0 -5 -5 -10 -11 -10 -13 0 -253 -142 -257 -152 -2 -5 -8 -8 -14 -8
-13 0 -151 -81 -160 -95 -4 -5 -8 -7 -8 -3 0 4 -36 -15 -80 -42 -44 -28 -84
-50 -89 -50 -5 0 -16 -6 -23 -13 -7 -7 -123 -77 -258 -156 -135 -80 -270 -159
-300 -177 -30 -18 -71 -42 -90 -52 -19 -10 -136 -79 -260 -152 -255 -151 -431
-254 -476 -280 -77 -44 -206 -121 -281 -167 -30 -18 -55 -33 -57 -33 -2 0 -55
-31 -117 -68 -63 -38 -141 -84 -174 -102 -33 -18 -110 -62 -171 -96 -61 -35
-118 -64 -127 -64 -23 0 -47 29 -80 94 -22 43 -26 59 -18 75 9 16 164 110 352
214 22 12 48 27 57 32 46 27 270 153 311 175 25 13 48 27 51 30 3 3 21 14 40
24 138 75 165 90 168 98 2 4 8 8 13 8 13 0 192 102 201 115 4 5 8 7 8 3 0 -4
35 14 78 39 42 25 97 57 122 71 52 29 420 237 465 262 17 10 58 34 92 54 34
20 66 36 72 36 6 0 11 3 11 8 0 4 27 20 60 36 33 16 60 32 60 35 0 3 20 15 45
26 25 11 45 23 45 27 0 5 4 8 10 8 5 0 74 37 152 81 79 45 168 95 198 111 165
90 169 96 124 192 -52 112 -52 112 -204 25 -67 -38 -126 -69 -130 -69 -5 0
-10 -3 -12 -7 -3 -8 -69 -46 -115 -68 -13 -5 -23 -13 -23 -17 0 -5 -4 -8 -10
-8 -5 0 -67 -33 -137 -73 -71 -41 -148 -85 -173 -99 -49 -27 -148 -83 -195
-110 -16 -10 -42 -23 -57 -30 -16 -7 -28 -16 -28 -20 0 -4 -4 -8 -9 -8 -8 0
-163 -85 -201 -110 -8 -6 -22 -13 -30 -17 -8 -4 -87 -48 -176 -99 -238 -136
-222 -129 -246 -107 -29 26 -70 111 -66 136 2 16 42 44 153 109 83 48 156 87
163 87 6 1 12 4 12 9 0 4 23 18 51 32 71 35 75 42 46 87 -27 44 -40 72 -41 93
-1 16 22 50 35 50 5 0 42 20 82 45 41 25 80 45 86 45 6 0 11 5 11 10 0 6 4 10
9 10 5 0 45 20 89 45 113 64 117 87 24 141 -26 15 -65 39 -87 53 -22 14 -42
26 -45 26 -6 2 -58 32 -113 66 -109 66 -166 99 -175 99 -6 0 -12 4 -14 8 -1 4
-25 19 -53 32 -73 34 -191 37 -265 7z"/>
<path d="M7155 6167 c-22 -12 -51 -30 -65 -38 -14 -9 -116 -67 -227 -130 -222
-125 -235 -137 -214 -202 19 -56 105 -75 142 -31 6 8 16 14 21 14 5 0 47 23
94 50 47 28 87 50 89 50 3 0 78 43 175 100 8 5 34 19 58 31 23 13 49 30 57 40
17 18 28 89 14 89 -5 0 -9 5 -9 11 0 19 -33 38 -65 38 -16 0 -48 -10 -70 -22z"/>
<path d="M6373 5523 c-15 -7 -37 -19 -48 -26 -18 -11 -106 -61 -196 -112 -345
-195 -368 -209 -383 -239 -8 -17 -12 -33 -8 -36 4 -3 7 -14 7 -25 0 -11 14
-29 33 -41 28 -20 37 -21 65 -12 18 6 34 14 37 17 3 3 23 15 45 26 22 10 47
24 55 31 8 6 42 26 75 44 33 17 89 49 125 70 70 40 132 75 220 123 75 41 95
63 95 109 0 65 -61 101 -122 71z"/>
</g>
</svg>
