<svg xmlns="http://www.w3.org/2000/svg" width="62" height="19" viewBox="0 0 62 19" fill="none">
  <path d="M0 7.74491H3.88562V3.51539H13.0337V0.00273066H0V7.74491Z" fill="white"/>
  <path d="M9.58125e-05 19H13.0338V15.4873H3.88572V11.2578H9.58125e-05V19Z" fill="white"/>
  <path d="M3.88562 7.74491L12.2518 7.74471V11.2574L3.88572 11.2578L3.88562 7.74491Z" fill="white"/>
  <path d="M29.2358 1.74839C28.6831 1.18896 28.0253 0.757923 27.3048 0.48312C26.3774 0.138922 25.3982 -0.0238479 24.4153 0.00281803H16.3653V18.9998H20.2509V11.2577H24.4153C25.3936 11.2826 26.3681 11.1198 27.2912 10.7774C28.0165 10.5043 28.6791 10.0732 29.2358 9.51208C29.7194 9.00736 30.0899 8.39504 30.3202 7.71991C30.7734 6.37269 30.7734 4.90212 30.3202 3.5549C30.0908 2.87512 29.7203 2.25793 29.2358 1.74839ZM26.5162 6.71629C26.3169 6.99735 26.0523 7.21955 25.7479 7.36147C25.3938 7.52104 25.0191 7.62374 24.6362 7.66614C24.2007 7.72029 23.7625 7.74662 23.324 7.745H20.2509V3.51547H23.3274C23.7659 3.51385 24.2041 3.54018 24.6396 3.59433C25.023 3.63606 25.398 3.74004 25.7513 3.90258C26.0549 4.04247 26.3186 4.26366 26.5162 4.54418C26.7199 4.86055 26.8224 5.23734 26.8085 5.61948C26.8268 6.00888 26.7242 6.39395 26.5162 6.71629Z" fill="white"/>
  <path d="M52.852 15.487V0.00265541H48.9663V18.9997H62V15.487H52.852Z" fill="white"/>
  <path d="M33.1179 7.74484H37.0035V3.51531H46.1515V0.00265541H33.1179V7.74484Z" fill="white"/>
  <path d="M33.1179 11.2578H37.0035V19H33.1179V11.2578Z" fill="white"/>
  <path d="M37.0035 7.74484L45.3697 7.74471V11.2574L37.0035 11.2578V7.74484Z" fill="white"/>
</svg>