<svg xmlns="http://www.w3.org/2000/svg" width="45" height="44" viewBox="0 0 45 44" fill="none">
<path fill-rule="evenodd" clip-rule="evenodd" d="M19.7334 0.11276C14.5441 0.762353 9.63716 3.24203 5.98017 7.06265C3.58751 9.56258 1.56847 13.1396 0.745011 16.3373C-0.397323 20.7736 -0.228507 24.9418 1.26882 29.2693C2.73399 33.5043 6.01548 37.6422 9.94275 40.2073C17.2257 44.9641 26.5121 45.2431 34.0155 40.9302C36.1134 39.7245 38.5018 37.7295 39.9607 35.9646C42.3631 33.0581 43.9139 29.8637 44.6814 26.2409C44.9787 24.8377 45.0005 24.5439 45 21.9465C44.9994 19.3479 44.978 19.0593 44.6831 17.7026C44.0707 14.8846 43.1218 12.591 41.598 10.246C37.8808 4.52505 32.0339 0.918378 25.1497 0.099787C23.9836 -0.0389399 20.8854 -0.0315429 19.7334 0.11276ZM27.0624 0.713531C27.8276 0.879685 28.9548 1.17796 29.5672 1.37633C30.8983 1.8073 33.7125 3.15554 34.9443 3.95216C36.0116 4.6425 38.5151 6.77621 39.2505 7.62234C41.5816 10.3046 43.2806 13.4511 44.0662 16.5408C44.7516 19.2366 44.9272 22.2827 44.5518 24.9623C43.166 34.8554 35.0264 42.5032 24.7389 43.5783C22.0246 43.862 18.4398 43.494 15.8496 42.6656C12.5654 41.6154 9.92236 40.0921 7.45164 37.8252C3.73488 34.4152 1.44719 30.2943 0.598564 25.4811C0.351806 24.0814 0.325126 20.4091 0.550215 18.8169C0.748273 17.4157 1.49134 14.8277 2.07585 13.5035C3.42055 10.4566 5.55796 7.64487 8.19063 5.45949C9.55514 4.3268 9.83347 4.13163 11.201 3.34798C13.4637 2.0513 15.6838 1.20482 18.0713 0.728212C20.0664 0.330126 19.9052 0.22793 22.9331 0.264461C25.3943 0.294278 25.8116 0.441995 27.0624 0.713531ZM20.0205 1.51403C16.577 1.95707 13.7771 2.978 10.8748 4.8486C8.50449 6.37641 7.26278 7.54996 5.37575 10.0456C3.21178 12.9075 1.70979 16.9602 1.51313 20.467C1.19612 26.1208 2.77174 30.8801 6.39412 35.2103C8.60632 37.8548 12.0851 40.2135 15.514 41.3939C21.5161 43.46 28.2039 42.7687 33.6094 39.5235C43.2267 33.7497 46.4902 21.4471 40.9415 11.8835C37.8129 6.4909 32.3863 2.72911 26.222 1.67973C24.4484 1.37769 21.6586 1.30315 20.0205 1.51403ZM18.1036 3.68575C16.8755 4.21209 15.4378 5.1792 14.2715 6.26352C13.749 6.74935 13.2588 7.148 13.1824 7.14937C12.8666 7.15529 10.502 7.97502 9.56958 8.40178C9.0177 8.65442 8.54585 8.84118 8.52092 8.81682C8.41525 8.7136 10.5313 6.95237 11.6136 6.24281C13.6174 4.92894 15.4394 4.1174 17.7439 3.51197C18.9963 3.18296 19.128 3.24669 18.1036 3.68575ZM27.3595 3.51003C30.6356 4.32715 34.0909 6.26363 36.2729 8.50557L36.739 8.98446L35.6732 8.47416C35.0869 8.1934 33.9425 7.75845 33.1299 7.5074C31.6584 7.05286 31.6486 7.04751 30.7466 6.20571C29.4724 5.01657 27.7718 3.92917 26.4316 3.44676C25.7988 3.21892 26.3402 3.2558 27.3595 3.51003ZM23.2243 3.61303C23.4807 3.72933 23.8834 4.02272 24.1192 4.26489C24.5325 4.68916 25.4318 6.11478 25.3417 6.20275C25.3176 6.22642 24.0321 6.232 22.4851 6.21515L19.6725 6.18465L20.1085 5.47782C20.9089 4.18068 21.7898 3.44448 22.5836 3.4092C22.6797 3.40499 22.968 3.4966 23.2243 3.61303ZM20.0778 4.25886C19.8442 4.55783 19.4794 5.13936 19.267 5.55133L18.8808 6.30028L17.1496 6.50376C16.1976 6.61574 15.2612 6.73353 15.069 6.76551C14.7283 6.8223 14.7341 6.81035 15.302 6.29231C16.4379 5.25601 18.2089 4.27946 19.7292 3.85122C20.1137 3.74288 20.4449 3.66799 20.4653 3.68484C20.4858 3.70168 20.3114 3.96001 20.0778 4.25886ZM25.4075 3.85076C27.1053 4.36299 28.8879 5.36811 29.8653 6.36424L30.3312 6.83914L29.9817 6.77325C29.7894 6.73694 28.8637 6.61688 27.9245 6.50649L26.217 6.30574L25.9661 5.78998C25.6583 5.15746 24.7734 3.85167 24.6525 3.85167C24.6039 3.85167 24.5642 3.80046 24.5642 3.73787C24.5642 3.59095 24.5325 3.58674 25.4075 3.85076ZM26.0518 7.77791C26.3601 8.58887 27.1273 11.3064 27.1273 11.5875C27.1273 11.6204 25.0696 11.6425 22.5544 11.6365L17.9816 11.6258L18.0191 11.352C18.1801 10.1763 19.2908 6.83834 19.5434 6.77086C19.6455 6.74354 21.0642 6.72852 22.6958 6.73751L25.6625 6.75367L26.0518 7.77791ZM18.6224 6.88273C18.6224 6.92244 18.4418 7.44731 18.221 8.04922C18.0003 8.65112 17.6931 9.69539 17.5385 10.3698C17.3839 11.0442 17.2299 11.6229 17.1963 11.6558C17.1626 11.6887 16.3293 11.7647 15.3446 11.8248C13.6601 11.9274 11.9019 12.1012 11.3117 12.2233C11.1161 12.2637 11.0496 12.2254 11.0496 12.0718C11.0496 11.7334 12.5378 9.2808 13.3304 8.31324L14.0687 7.41191L15.3261 7.21629C16.4336 7.0441 17.8099 6.87021 18.4185 6.82548C18.5307 6.81729 18.6224 6.84301 18.6224 6.88273ZM28.0593 6.9798C30.2389 7.25213 30.8983 7.38221 31.1289 7.58558C31.5471 7.95442 32.4488 9.15061 33.0322 10.1109C34.0613 11.8043 34.3071 12.3685 33.9591 12.2381C33.8112 12.1827 30.7494 11.8972 28.7426 11.7517L27.8532 11.6872L27.7142 10.9843C27.5507 10.1578 27.119 8.62347 26.7829 7.67469C26.5231 6.94122 26.5001 6.81012 26.6321 6.81148C26.6802 6.81194 27.3224 6.88773 28.0593 6.9798ZM12.7971 7.78997C12.7971 7.82787 12.6488 8.04557 12.4675 8.27364C12.0183 8.83879 11.0504 10.4368 10.5169 11.4941L10.0774 12.3652L9.06302 12.5465C7.79381 12.7733 6.1646 13.2306 5.56996 13.5269C5.32087 13.651 5.08786 13.7526 5.05221 13.7526C4.96227 13.7526 5.52266 12.6865 6.00918 11.9317C7.05016 10.3169 9.005 8.95464 11.4809 8.11875C12.6998 7.70724 12.7971 7.68288 12.7971 7.78997ZM33.7098 8.14993C35.6832 8.83401 37.4694 9.92356 38.4166 11.021C38.8698 11.546 40.1996 13.6504 40.1254 13.7252C40.1093 13.7413 39.7301 13.6071 39.2827 13.4269C38.5559 13.1341 36.6729 12.6434 35.4862 12.4374C35.0697 12.3651 35.0224 12.3092 34.491 11.2646C34.0198 10.3383 33.2588 9.13468 32.4079 7.97024C32.2179 7.71019 32.2194 7.70826 32.555 7.78735C32.7417 7.83128 33.2613 7.99448 33.7098 8.14993ZM27.2216 12.2136C27.2666 12.2576 27.7062 14.9573 27.7085 15.2036C27.7092 15.2855 27.8581 15.3459 28.0593 15.3459C28.4645 15.3459 28.4564 15.4122 28.2355 13.9233C27.9601 12.0665 27.9202 12.1769 28.8457 12.2346C30.4603 12.3354 33.8375 12.6205 34.1449 12.6819C34.4359 12.7402 34.5004 12.8581 34.8901 14.0458C35.3024 15.3023 35.328 15.3459 35.6492 15.3459C35.8372 15.3459 35.9817 15.2842 35.9817 15.2038C35.9817 15.1258 35.8189 14.5849 35.62 14.0017C35.4213 13.4187 35.2798 12.9208 35.3058 12.8953C35.3967 12.8066 37.7955 13.3933 38.7955 13.749C40.2135 14.2532 40.5629 14.5869 41.0037 15.858C41.1991 16.4213 41.4948 17.4712 41.6608 18.191C41.9323 19.3681 41.9635 19.7456 41.9717 21.9465C41.9815 24.6217 41.8444 25.5422 41.0988 27.8074C40.6582 29.1463 40.4182 29.5057 39.7432 29.8374C38.6565 30.3716 35.5371 31.2236 35.3472 31.0379C35.3123 31.0039 35.4409 30.5224 35.6327 29.9678C35.8246 29.4134 35.9817 28.9148 35.9817 28.86C35.9817 28.8051 35.8225 28.7763 35.628 28.796C35.2993 28.8291 35.2511 28.8959 34.9449 29.7421C34.3399 31.4141 34.6031 31.2154 32.7003 31.4365C31.7818 31.5431 30.3324 31.6617 29.4797 31.6998L27.9292 31.7694L27.9942 31.4954C28.0815 31.1281 28.4078 29.0962 28.4084 28.917C28.4086 28.8362 28.2647 28.7747 28.0755 28.7747H27.7421L27.5434 30.055C27.4341 30.7592 27.3164 31.4505 27.2816 31.5914L27.2185 31.8474H22.5273H17.8361L17.6467 30.6597C17.5425 30.0064 17.4573 29.3151 17.4573 29.1233C17.4573 28.8118 17.4201 28.7747 17.1078 28.7747C16.791 28.7747 16.7583 28.8094 16.7588 29.1446C16.759 29.3481 16.8367 29.9754 16.9314 30.5387C17.0263 31.102 17.1047 31.6145 17.1058 31.6776C17.1083 31.821 15.0672 31.715 12.536 31.4401L10.7022 31.241L10.3645 30.3778C10.1787 29.903 9.99052 29.3481 9.94636 29.1446C9.87797 28.8297 9.81541 28.7747 9.52578 28.7747C9.09774 28.7747 9.0982 28.8479 9.53498 30.1021C9.72722 30.6542 9.8845 31.1138 9.8845 31.1234C9.8845 31.2072 7.16026 30.5344 6.37385 30.2563C4.8517 29.7184 4.53248 29.3967 4.01729 27.8819C2.78245 24.2507 2.7764 19.8582 4.00122 16.1572C4.54844 14.5039 4.86545 14.2133 6.79711 13.5945C8.19808 13.1458 9.76799 12.8331 9.76799 13.0028C9.76799 13.0788 9.61071 13.5954 9.41848 14.1509C9.22624 14.7064 9.06896 15.2058 9.06896 15.2606C9.06896 15.3155 9.22753 15.3443 9.42116 15.3246C9.75809 15.2906 9.79258 15.2346 10.2114 14.0443C10.7325 12.5636 10.4789 12.6912 13.3764 12.4527C16.5223 12.1937 17.1078 12.1724 17.1075 12.3169C17.1072 12.3867 17.0333 12.8792 16.9431 13.4112C16.5958 15.4591 16.5937 15.3459 16.9807 15.3459C17.3705 15.3459 17.3377 15.4405 17.6401 13.4431L17.8335 12.1662L19.2474 12.122C20.7992 12.0735 27.153 12.1466 27.2216 12.2136ZM22.8166 17.3374C22.8166 17.4847 22.4088 17.5081 19.8457 17.5081H16.8748V17.7864C16.8748 18.0377 16.9285 18.0681 17.4282 18.0993L17.9816 18.1341V22.1172V26.1003L17.4282 26.135C16.9285 26.1663 16.8748 26.1967 16.8748 26.448V26.7263H18.7971H20.7195V26.4417C20.7195 26.1853 20.6731 26.1572 20.2506 26.1572H19.7816L19.8137 24.3079L19.8457 22.4586L20.9816 22.4261L22.1175 22.3935V22.9097C22.1175 23.4074 22.1301 23.4259 22.4671 23.4259H22.8166V22.0603V20.6946H22.4671C22.1301 20.6946 22.1175 20.7132 22.1175 21.2109V21.7271L20.9816 21.6945L19.8457 21.662L19.8134 20.0403L19.781 18.4186H21.2989H22.8166V18.8738C22.8166 19.3037 22.836 19.329 23.1661 19.329H23.5156V18.2479V17.1667H23.1661C22.9331 17.1667 22.8166 17.2236 22.8166 17.3374ZM29.3409 17.4634C29.3409 17.5912 29.2794 17.623 29.137 17.569C28.6191 17.3726 27.3676 17.3658 26.772 17.5561C25.5126 17.9585 24.9838 18.6656 24.9781 19.9549C24.973 21.0948 25.2341 21.4394 26.9975 22.6204C28.7187 23.7733 29.1079 24.174 29.1079 24.7938C29.1079 25.4757 28.6318 25.9421 27.8621 26.0144C27.2191 26.0747 26.5526 25.9094 26.0496 25.5647C25.7821 25.3813 25.7292 25.2618 25.7292 24.8408C25.7292 24.3562 25.7155 24.3364 25.3797 24.3364H25.0302V25.5882V26.8401H25.3797C25.6515 26.8401 25.7292 26.7895 25.7292 26.6124C25.7292 26.3339 25.6966 26.3332 26.3733 26.6257C27.0878 26.9343 28.3675 26.9558 29.0806 26.6709C30.2366 26.2094 30.9046 24.892 30.6269 23.6219C30.423 22.6894 30.0756 22.2969 28.5935 21.3247C27.1211 20.3587 26.5447 19.8137 26.5447 19.3873C26.5447 18.3693 27.6698 17.8942 28.8457 18.4155C29.3227 18.6271 29.3409 18.654 29.3409 19.1527C29.3409 19.6521 29.3532 19.6704 29.6904 19.6704H30.0399V18.4755V17.2805H29.6904C29.447 17.2805 29.3409 17.3361 29.3409 17.4634ZM6.11753 17.584C6.07478 17.6257 6.03982 17.7537 6.03982 17.8686C6.03982 18.0399 6.13338 18.0772 6.5641 18.0772H7.08837V22.1107V26.1441L6.59323 26.1792C6.18767 26.2078 6.09808 26.2553 6.09808 26.4417C6.09808 26.6581 6.18651 26.6709 7.87478 26.7008L9.65149 26.7322V26.4447C9.65149 26.1852 9.60617 26.1572 9.18547 26.1572H8.71945V24.3364V22.5155H10.8165H12.9136V24.3364V26.1572H12.4476C12.0282 26.1572 11.9816 26.1857 11.9816 26.4417V26.7263H13.7874H15.5933V26.4417C15.5933 26.1804 15.5505 26.1572 15.069 26.1572H14.5447V22.1172V18.0772H15.0771C15.5625 18.0772 15.6062 18.0546 15.5723 17.8211C15.5357 17.5699 15.501 17.5645 13.7583 17.5336L11.9816 17.5022V17.7897C11.9816 18.0492 12.0269 18.0772 12.4476 18.0772H12.9136V19.898V21.7189H10.8165H8.71945V19.898V18.0772H9.18547C9.60489 18.0772 9.65149 18.0487 9.65149 17.7926V17.5081H7.92337C6.9728 17.5081 6.16017 17.5423 6.11753 17.584ZM32.2244 17.5737C32.1763 17.6211 32.137 17.7537 32.137 17.8686C32.137 18.0399 32.2306 18.0772 32.6613 18.0772H33.1855V22.1172V26.1572H32.6613C32.1798 26.1572 32.137 26.1804 32.137 26.4417V26.7263H34.1758H36.2147V26.4417C36.2147 26.1762 36.1759 26.1572 35.6322 26.1572H35.0496V22.231V18.3048L35.7195 18.3052C36.628 18.3058 37.0589 18.571 37.3069 19.282C37.5561 19.9966 37.5427 20.7543 37.2705 21.3401C37.0085 21.9036 36.6186 22.1814 36.0491 22.2101C35.6816 22.2286 35.6331 22.2663 35.6326 22.535C35.6323 22.7807 35.6995 22.8533 35.9842 22.9144C36.8329 23.0965 38.1087 22.6279 38.6786 21.9251C39.8736 20.4513 39.4526 18.4904 37.7875 17.7752C37.4029 17.6101 36.8839 17.5674 34.8166 17.5314C33.4389 17.5072 32.2725 17.5263 32.2244 17.5737ZM6.27284 30.7068C7.11901 31.0098 8.06364 31.2488 9.44154 31.5084L10.1054 31.6335L10.7013 32.7959C11.0289 33.4351 11.6301 34.4435 12.037 35.0367C12.444 35.6298 12.7321 36.1312 12.6771 36.1508C12.6223 36.1705 12.0894 36.0235 11.4931 35.8241C8.37343 34.7807 6.58274 33.3219 5.22965 30.7216C4.99186 30.2644 4.9879 30.229 5.18433 30.3077C5.30246 30.355 5.79225 30.5346 6.27284 30.7068ZM40.0594 30.3156C40.0594 30.4438 39.5684 31.309 39.06 32.0766C38.22 33.345 37.1351 34.2559 35.5288 35.0411C34.6259 35.4825 32.7255 36.172 32.4114 36.172C32.3299 36.172 32.5917 35.6982 32.993 35.1193C33.3943 34.5404 34.0082 33.5162 34.357 32.8436C34.9536 31.6933 35.0156 31.6166 35.3991 31.5538C36.5294 31.3687 38.7896 30.784 39.3031 30.5439C39.914 30.2584 40.0594 30.2145 40.0594 30.3156ZM13.8457 32.0153C15.0311 32.1111 16.2512 32.2076 16.557 32.2297C16.8628 32.2517 17.1423 32.2984 17.1782 32.3335C17.2142 32.3685 17.4166 33.0801 17.628 33.9148C17.8395 34.7494 18.1497 35.784 18.3175 36.214C18.4851 36.6439 18.6224 37.0153 18.6224 37.039C18.6224 37.133 17.4562 37.07 16.3484 36.9161C14.366 36.6407 14.1858 36.5812 13.6852 36.0371C13.0306 35.3254 11.9682 33.7497 11.4045 32.6546L10.9158 31.7052L11.3031 31.773C11.516 31.8103 12.6602 31.9193 13.8457 32.0153ZM34.1176 31.7943C34.1176 32.0642 32.689 34.4794 32.0667 35.2615C31.0076 36.5928 31.136 36.5062 29.865 36.7469C28.5025 37.005 26.544 37.1625 26.5463 37.0139C26.5472 36.9577 26.6971 36.4929 26.8796 35.9809C27.062 35.469 27.3623 34.4333 27.5468 33.6792L27.8823 32.3083L28.3494 32.2554C28.6064 32.2263 29.8907 32.1191 31.2033 32.0171C32.516 31.9151 33.6127 31.8096 33.6401 31.7827C33.7124 31.7122 34.1176 31.722 34.1176 31.7943ZM27.1265 32.388C27.124 32.6487 26.6029 34.536 26.1967 35.7556L25.7278 37.1634L24.9421 37.2359C23.928 37.3295 21.3513 37.3304 20.228 37.2376L19.3518 37.1654L18.8144 35.5021C18.5187 34.5874 18.2216 33.5829 18.154 33.27C18.0866 32.957 18.0035 32.6113 17.9695 32.5018C17.9114 32.3145 18.1813 32.3026 22.5175 32.3026C25.0529 32.3026 27.1269 32.341 27.1265 32.388ZM11.2243 36.2153C11.8651 36.4343 12.6253 36.6725 12.9136 36.7447C13.3139 36.845 13.6445 37.0702 14.3117 37.6977C15.4635 38.7808 16.4637 39.4595 17.9369 40.1575C18.6022 40.4728 18.9894 40.6985 18.7971 40.6591C16.344 40.1565 13.8581 39.163 11.9125 37.9075C10.8305 37.2093 8.36993 35.2104 8.36993 35.0296C8.36993 34.9746 8.75009 35.1293 9.21459 35.3733C9.6791 35.6174 10.5835 35.9963 11.2243 36.2153ZM36.5493 35.2242C36.2183 35.6181 34.0275 37.3904 33.2412 37.9004C31.6027 38.9631 29.0438 40.0521 27.2438 40.4525C26.8273 40.5451 26.3816 40.6458 26.2535 40.6763C26.1253 40.7068 26.5447 40.4829 27.1855 40.1786C28.4495 39.5785 30.4585 38.1689 31.1686 37.3839C31.5355 36.9782 31.7444 36.8589 32.37 36.6972C33.5302 36.3974 35.2754 35.7499 35.9235 35.3789C36.5892 34.9977 36.7792 34.9507 36.5493 35.2242ZM17.274 37.4781C18.1663 37.5746 18.9071 37.6658 18.9204 37.6809C18.9337 37.696 19.1336 38.0772 19.3646 38.5279C19.5957 38.9787 19.9496 39.531 20.1511 39.7552C20.3526 39.9793 20.4837 40.1959 20.4423 40.2361C20.3452 40.3311 19.2318 39.9896 18.3019 39.5798C17.4434 39.2014 15.845 38.1784 15.1855 37.5852L14.7195 37.166L15.1855 37.2344C15.4418 37.272 16.3816 37.3817 17.274 37.4781ZM29.8069 37.6674C28.5072 38.8111 26.1722 40.0438 24.9332 40.2402L24.5393 40.3026L24.9569 39.7683C25.1865 39.4744 25.568 38.8907 25.8046 38.4712C26.0411 38.0516 26.243 37.6958 26.2533 37.6804C26.2635 37.6651 27.0279 37.5712 27.9519 37.4718C28.8759 37.3725 29.6538 37.2698 29.6806 37.2437C29.7074 37.2176 29.8647 37.1984 30.0302 37.2011C30.3183 37.2057 30.3088 37.2256 29.8069 37.6674ZM25.3797 37.756C25.3797 37.8597 24.6292 39.0966 24.3434 39.4641C23.9252 40.0016 23.093 40.4965 22.6075 40.4965C22.0924 40.4965 21.5446 40.237 21.0967 39.7808C20.6808 39.3572 19.6634 37.8692 19.7241 37.7733C19.7707 37.6996 25.3797 37.6825 25.3797 37.756Z" fill="white"/>
</svg>