<svg xmlns="http://www.w3.org/2000/svg" width="462" height="125" viewBox="0 0 462 125" fill="none">
  <path fill-rule="evenodd" clip-rule="evenodd" d="M55.0554 0.320486C40.5775 2.16675 26.8873 9.21443 16.6844 20.0733C10.009 27.1786 4.37597 37.345 2.07855 46.4337C-1.10851 59.0425 -0.637524 70.8892 3.53995 83.1888C7.62772 95.2254 16.7829 106.986 27.7399 114.277C48.0591 127.796 73.9678 128.589 94.902 116.331C100.755 112.904 107.418 107.234 111.489 102.218C118.191 93.9571 122.518 84.8782 124.659 74.5814C125.489 70.5932 125.549 69.7584 125.548 62.376C125.547 54.9903 125.487 54.17 124.664 50.3141C122.956 42.3048 120.308 35.786 116.057 29.1209C105.686 12.861 89.3733 2.6102 70.1667 0.283613C66.9133 -0.110674 58.2694 -0.0896506 55.0554 0.320486ZM75.503 2.02799C77.6379 2.50023 80.7827 3.34799 82.4914 3.91177C86.2051 5.13668 94.0565 8.96861 97.4932 11.2328C100.471 13.1948 107.456 19.2592 109.507 21.6641C116.011 29.2875 120.751 38.2306 122.943 47.012C124.855 54.6739 125.345 63.3314 124.298 70.9474C120.431 99.0654 97.7224 120.802 69.0206 123.858C61.4477 124.664 51.4464 123.618 44.2197 121.264C35.057 118.279 27.683 113.949 20.7898 107.506C10.4202 97.8143 4.0376 86.1021 1.66997 72.422C0.981525 68.4439 0.90709 58.0065 1.53508 53.481C2.08765 49.4987 4.16079 42.1431 5.79154 38.3794C9.54321 29.7196 15.5065 21.7281 22.8515 15.5169C26.6585 12.2976 27.435 11.7429 31.2504 9.51557C37.5631 5.83016 43.7571 3.42433 50.4183 2.06971C55.9843 0.938279 55.5348 0.971271 63.9824 1.0751C70.849 1.15984 72.0133 1.25623 75.503 2.02799ZM55.8563 4.30315C46.2492 5.56234 38.4374 8.46403 30.3402 13.7806C23.7272 18.1229 20.2629 21.4584 14.9981 28.5513C8.96073 36.6855 4.77025 48.2039 4.22157 58.1711C3.33713 74.2402 7.73304 87.7669 17.8393 100.074C24.0113 107.59 33.7168 114.294 43.2835 117.649C60.0292 123.521 78.6878 121.557 93.7689 112.333C120.601 95.9227 129.706 60.9567 114.225 33.7751C105.496 18.4483 90.3566 7.75664 73.1584 4.77409C68.2099 3.91565 60.4267 3.70379 55.8563 4.30315ZM207.451 6.56504C207.203 7.20839 207.57 7.71265 208.287 7.71265C208.926 7.71265 209.271 7.15728 209.04 6.4997C208.845 5.94207 207.672 5.99027 207.451 6.56504ZM240.699 6.63458C240.579 6.75297 240.482 9.00904 240.482 11.6481C240.482 16.2301 240.511 16.4458 241.132 16.4458C241.754 16.4458 241.782 16.2301 241.782 11.4323C241.782 7.47006 241.691 6.41884 241.349 6.41884C241.11 6.41884 240.818 6.51588 240.699 6.63458ZM147.194 11.5941C147.194 16.2301 147.223 16.4458 147.844 16.4458C148.465 16.4458 148.494 16.2301 148.494 11.5941C148.494 6.95804 148.465 6.74229 147.844 6.74229C147.223 6.74229 147.194 6.95804 147.194 11.5941ZM161.171 8.19783C161.171 8.70112 160.987 9.00645 160.683 9.00645C160.413 9.00645 160.196 9.294 160.196 9.65336C160.196 10.0092 160.399 10.3003 160.648 10.3003C160.983 10.3003 161.132 10.9349 161.225 12.7614C161.331 14.8664 161.459 15.3109 162.109 15.8342C163.13 16.6564 164.421 16.6493 164.421 15.8216C164.421 15.4202 164.16 15.1601 163.69 15.0938C163.019 14.9987 162.951 14.7972 162.863 12.6453C162.768 10.3239 162.776 10.3003 163.594 10.3003C164.204 10.3003 164.421 10.1308 164.421 9.65336C164.421 9.17885 164.204 9.00645 163.609 9.00645C162.959 9.00645 162.796 8.84473 162.796 8.19783C162.796 7.55092 162.634 7.3892 161.983 7.3892C161.333 7.3892 161.171 7.55092 161.171 8.19783ZM202.127 8.19783C202.127 8.79071 201.953 9.00645 201.476 9.00645C201.056 9.00645 200.826 9.2222 200.826 9.61551C200.826 9.95288 201.117 10.3003 201.476 10.3941C202.054 10.5441 202.127 10.8352 202.127 13.0011C202.127 15.1533 202.211 15.4978 202.849 15.9422C203.246 16.2191 203.905 16.4458 204.312 16.4458C205.369 16.4458 205.31 15.2866 204.239 15.0191C203.47 14.827 203.427 14.6969 203.427 12.5583C203.427 10.3653 203.45 10.3003 204.239 10.3003C204.835 10.3003 205.052 10.1279 205.052 9.65336C205.052 9.17885 204.835 9.00645 204.239 9.00645C203.589 9.00645 203.427 8.84473 203.427 8.19783C203.427 7.60494 203.253 7.3892 202.777 7.3892C202.3 7.3892 202.127 7.60494 202.127 8.19783ZM151.419 12.7261C151.419 16.2301 151.457 16.4458 152.07 16.4458C152.66 16.4458 152.72 16.2301 152.72 14.0921C152.72 11.2153 153.224 10.3003 154.811 10.3003C155.405 10.3003 156.048 10.4892 156.241 10.7198C156.433 10.9507 156.634 12.2969 156.687 13.7117C156.776 16.0994 156.835 16.2916 157.514 16.3876C158.221 16.4872 158.245 16.4031 158.245 13.8647C158.245 11.1296 157.755 9.58446 156.768 9.20732C155.75 8.81853 154.424 9.01357 153.576 9.67697L152.72 10.3472V9.67697C152.72 9.2222 152.511 9.00645 152.07 9.00645C151.457 9.00645 151.419 9.2222 151.419 12.7261ZM168.422 9.31567C166.792 10.0085 165.94 12.7365 166.823 14.4356C167.555 15.8449 168.567 16.4458 170.207 16.4458C171.338 16.4458 171.813 16.256 172.572 15.5004C173.095 14.9803 173.523 14.3981 173.523 14.2066C173.523 13.5995 172.071 13.8307 171.648 14.5051C170.813 15.8348 167.997 15.0042 167.997 13.4284C167.997 12.9658 168.395 12.8879 170.76 12.8879H173.523V11.9356C173.523 10.4465 172.308 9.2898 170.586 9.13972C169.788 9.06985 168.814 9.1491 168.422 9.31567ZM175.938 9.43373C175.847 9.66888 175.815 11.3062 175.867 13.0726C175.956 16.124 175.997 16.2893 176.692 16.3876C177.395 16.4869 177.423 16.3957 177.423 14.0607C177.423 11.9162 177.508 11.5714 178.146 11.1273C178.543 10.8505 179.128 10.6237 179.446 10.6237C179.845 10.6237 180.023 10.3743 180.023 9.81508C180.023 8.90069 179.476 8.77777 178.542 9.48128C177.73 10.0926 177.423 10.0952 177.423 9.49163C177.423 8.89163 176.166 8.84279 175.938 9.43373ZM182.208 9.24904C182.138 9.38231 182.093 11.0199 182.108 12.8879C182.135 16.1538 182.164 16.288 182.868 16.3876C183.573 16.4872 183.599 16.4006 183.599 13.931C183.599 11.093 184.043 10.3003 185.633 10.3003C187.255 10.3003 188.016 11.9609 187.775 14.9774C187.666 16.3375 187.714 16.4458 188.423 16.4458C189.179 16.4458 189.188 16.4077 189.076 13.5603C188.977 11.0381 188.863 10.57 188.174 9.84064C187.16 8.7671 185.423 8.70759 184.351 9.70964L183.599 10.4131V9.70964C183.599 9.22931 183.399 9.00645 182.968 9.00645C182.621 9.00645 182.279 9.11578 182.208 9.24904ZM192.944 9.35578C190.926 10.5254 190.968 15.0269 193.007 16.1127C194.069 16.6781 195.687 16.5015 196.511 15.7307L197.276 15.0159L197.464 15.7307C197.574 16.1492 197.905 16.4458 198.264 16.4458C198.828 16.4458 198.876 16.1531 198.876 12.7035C198.876 9.00775 198.867 8.96279 198.145 9.06468C197.743 9.1216 197.395 9.35028 197.373 9.57249C197.35 9.79503 197.314 10.0603 197.291 10.1621C197.269 10.2637 196.865 10.0454 196.394 9.67697C195.482 8.96246 193.88 8.81335 192.944 9.35578ZM207.652 12.7261C207.652 16.2301 207.69 16.4458 208.302 16.4458C208.915 16.4458 208.952 16.2301 208.952 12.7261C208.952 9.2222 208.915 9.00645 208.302 9.00645C207.69 9.00645 207.652 9.2222 207.652 12.7261ZM212.954 9.63783C211.653 10.4274 211.092 12.1559 211.567 13.9126C212.255 16.4539 215.445 17.3114 217.48 15.502C218.442 14.6465 218.541 14.3864 218.541 12.7261C218.541 11.0659 218.442 10.8058 217.48 9.95029C216.2 8.81238 214.507 8.69562 212.954 9.63783ZM220.979 12.7261V16.4458H221.792C222.59 16.4458 222.604 16.4012 222.604 13.8812C222.604 11.0041 222.988 10.3003 224.555 10.3003C226.122 10.3003 226.505 11.0041 226.505 13.8812C226.505 16.2301 226.56 16.4458 227.155 16.4458C227.756 16.4458 227.805 16.2301 227.805 13.5784C227.805 10.0366 227.223 9.00645 225.221 9.00645C224.518 9.00645 223.809 9.21605 223.579 9.49163C223.357 9.75848 222.978 9.97681 222.737 9.97681C222.482 9.97681 222.377 9.77498 222.487 9.49163C222.624 9.13681 222.446 9.00645 221.827 9.00645H220.979V12.7261ZM231.48 9.78694C230.65 10.4972 230.568 10.7622 230.568 12.7261C230.568 14.6901 230.65 14.9551 231.48 15.6654C232.618 16.6396 234.237 16.6852 235.4 15.7753L236.256 15.1051V15.7753C236.256 16.2751 236.463 16.4458 237.069 16.4458H237.881V12.7261V9.00645H237.069C236.463 9.00645 236.256 9.17724 236.256 9.67697V10.3472L235.4 9.67697C234.237 8.7671 232.618 8.81271 231.48 9.78694ZM50.5083 10.4756C47.082 11.9715 43.0709 14.7202 39.8169 17.8021C38.3591 19.1829 36.9916 20.3159 36.7784 20.3198C35.8972 20.3366 29.3001 22.6665 26.6988 23.8794C25.159 24.5975 23.8426 25.1283 23.773 25.059C23.4782 24.7657 29.382 19.7599 32.4014 17.7432C37.9921 14.009 43.0752 11.7024 49.5049 9.98166C52.9988 9.04656 53.3664 9.2277 50.5083 10.4756ZM76.3318 9.97616C85.4721 12.2985 95.1123 17.8024 101.2 24.1744L102.5 25.5355L99.5267 24.0851C97.8911 23.2872 94.6982 22.0509 92.431 21.3374C88.3257 20.0455 88.2984 20.0303 85.7819 17.6378C82.2268 14.258 77.4822 11.1674 73.7432 9.79632C71.9775 9.14877 73.488 9.25357 76.3318 9.97616ZM64.795 10.2689C65.5101 10.5995 66.6338 11.4333 67.2917 12.1216C68.4446 13.3274 70.9536 17.3793 70.7024 17.6294C70.6351 17.6966 67.0485 17.7125 62.7326 17.6646L54.8854 17.5779L56.102 15.569C58.3351 11.8823 60.7927 9.78985 63.0073 9.68958C63.2754 9.67762 64.0799 9.93799 64.795 10.2689ZM56.0162 12.1045C55.3645 12.9542 54.3468 14.607 53.7542 15.7779L52.6767 17.9065L47.8468 18.4849C45.1906 18.8032 42.5782 19.1379 42.0419 19.2288C41.0914 19.3902 41.1077 19.3563 42.6919 17.8839C45.8611 14.9386 50.8021 12.163 55.0437 10.9459C56.1163 10.6379 57.0404 10.4251 57.0973 10.473C57.1545 10.5209 56.6679 11.2551 56.0162 12.1045ZM70.886 10.9446C75.6226 12.4004 80.5961 15.2572 83.3229 18.0883L84.6227 19.4381L83.6476 19.2508C83.1113 19.1476 80.5285 18.8064 77.9083 18.4926L73.1444 17.9221L72.4443 16.4562C71.5855 14.6584 69.1168 10.9472 68.7794 10.9472C68.6439 10.9472 68.533 10.8016 68.533 10.6237C68.533 10.2061 68.4446 10.1942 70.886 10.9446ZM171.628 10.8356C172.776 11.8696 172.375 12.241 170.11 12.241C167.871 12.241 167.554 11.9696 168.535 10.8919C169.205 10.1547 170.839 10.125 171.628 10.8356ZM196.619 10.897C198.204 12.1737 197.131 15.152 195.087 15.152C194.047 15.152 192.7 13.7832 192.7 12.7261C192.7 11.6691 194.047 10.3003 195.087 10.3003C195.523 10.3003 196.212 10.5687 196.619 10.897ZM216.457 10.9054C218.084 12.2157 217.027 15.152 214.93 15.152C213.789 15.152 212.853 14.0591 212.853 12.7261C212.853 10.6195 214.85 9.61066 216.457 10.9054ZM235.606 10.9472C237.071 12.4053 236.018 15.152 233.994 15.152C232.844 15.152 231.706 14.0646 231.706 12.9674C231.706 12.1194 232.255 10.9174 232.811 10.5477C233.493 10.0942 234.96 10.3038 235.606 10.9472ZM72.6835 22.1062C73.5436 24.4112 75.684 32.1349 75.684 32.9338C75.684 33.0273 69.9431 33.09 62.926 33.0732L50.168 33.0428L50.2726 32.2646C50.7219 28.923 53.8205 19.4358 54.5252 19.244C54.8103 19.1664 58.7683 19.1237 63.3203 19.1493L71.5972 19.1952L72.6835 22.1062ZM51.9557 19.562C51.9557 19.6749 51.4519 21.1666 50.8359 22.8774C50.22 24.5881 49.3632 27.5561 48.9318 29.4729C48.5005 31.3896 48.0708 33.0344 47.9769 33.1279C47.8829 33.2213 45.5582 33.4374 42.8109 33.6082C38.1111 33.8999 33.2058 34.3938 31.5592 34.7409C31.0134 34.8557 30.8278 34.7467 30.8278 34.3104C30.8278 33.3485 34.9799 26.3777 37.1912 23.6278L39.251 21.066L42.7592 20.51C45.8491 20.0206 49.6889 19.5264 51.3869 19.3993C51.6999 19.376 51.9557 19.4491 51.9557 19.562ZM78.2844 19.8379C84.3653 20.6119 86.2051 20.9816 86.8483 21.5596C88.0152 22.6079 90.5308 26.0077 92.1586 28.737C95.0297 33.55 95.7156 35.1536 94.7447 34.783C94.3318 34.6254 85.7897 33.8139 80.1908 33.4005L77.7094 33.2171L77.3216 31.2195C76.8652 28.8703 75.6609 24.5095 74.7232 21.8129C73.9983 19.7282 73.9343 19.3556 74.3026 19.3595C74.4368 19.3608 76.2285 19.5762 78.2844 19.8379ZM35.7035 22.1405C35.7035 22.2482 35.2897 22.867 34.7839 23.5152C33.5306 25.1215 30.8301 29.6634 29.3417 32.6682L28.1156 35.1443L25.2855 35.6595C21.7444 36.3041 17.199 37.6038 15.54 38.446C14.845 38.7986 14.1949 39.0875 14.0955 39.0875C13.8445 39.0875 15.408 36.0574 16.7654 33.9122C19.6697 29.3224 25.1236 25.4507 32.0311 23.075C35.4321 21.9054 35.7035 21.8362 35.7035 22.1405ZM94.049 23.1636C99.5547 25.1079 104.538 28.2046 107.181 31.3236C108.445 32.8157 112.155 38.797 111.948 39.0095C111.903 39.0554 110.845 38.6738 109.597 38.1617C107.569 37.3295 102.316 35.9348 99.005 35.3493C97.843 35.1439 97.711 34.9851 96.2285 32.0162C94.914 29.3833 92.7908 25.9624 90.4167 22.6529C89.8865 21.9138 89.8908 21.9083 90.8272 22.1331C91.3479 22.2579 92.7976 22.7218 94.049 23.1636ZM390.4 26.9765C389.87 27.3462 389.677 27.8058 389.677 28.7053C389.677 30.6072 391.214 31.6177 393.142 30.984C394.976 30.3821 395.478 28.4397 394.126 27.176C393.229 26.3376 391.453 26.2425 390.4 26.9765ZM147.194 41.9985V54.9366H149.307H151.419V49.1145V43.2923H157.595H163.771V49.1145V54.9366H165.884H167.997V41.9985V29.0605H165.892H163.787L163.698 34.4783L163.609 39.8961L157.514 39.9841L151.419 40.072V34.5662V29.0605H149.307H147.194V41.9985ZM293.789 41.9985V54.9366H295.902H298.015V49.2762V43.6158H302.583H307.152L307.053 42.0794L306.954 40.543H302.484H298.014L298.014 36.419L298.015 32.295H303.541H309.066V30.6777V29.0605H301.428H293.789V41.9985ZM377.001 32.1332V34.5591H375.538H374.075V36.4998V38.4405H375.52H376.964L377.063 45.0487C377.155 51.1315 377.217 51.7276 377.833 52.5489C379.217 54.3906 380.079 54.7664 383.2 54.8877L386.102 55.0009V53.1896V51.3786H384.314C381.3 51.3786 381.226 51.2069 381.226 44.1818L381.225 38.2788H383.582H385.939V36.4998V34.7209H383.582H381.225L381.226 32.2141L381.226 29.7074H379.114H377.001V32.1332ZM75.9473 34.7134C76.0728 34.8383 77.2992 42.5115 77.3057 43.2115C77.3076 43.4443 77.723 43.6158 78.2844 43.6158C79.4149 43.6158 79.3921 43.8043 78.7758 39.5726C78.0074 34.2952 77.8963 34.6089 80.4784 34.7729C84.9829 35.0595 94.4053 35.8698 95.2628 36.0444C96.0747 36.21 96.2548 36.5451 97.3421 39.9207C98.4924 43.4919 98.5636 43.6158 99.4597 43.6158C99.9844 43.6158 100.387 43.4405 100.387 43.2121C100.387 42.9902 99.9333 41.4529 99.3785 39.7955C98.824 38.1384 98.4294 36.7233 98.5018 36.6509C98.7554 36.3986 105.448 38.0663 108.238 39.0771C112.194 40.5103 113.169 41.4587 114.399 45.0713C114.944 46.6724 115.769 49.6562 116.232 51.7021C116.989 55.0478 117.077 56.1207 117.099 62.376C117.127 69.9793 116.744 72.5957 114.664 79.0337C113.435 82.8391 112.765 83.8606 110.882 84.8035C107.85 86.3217 99.147 88.7431 98.6172 88.2155C98.52 88.1188 98.8786 86.7503 99.4139 85.1741C99.9493 83.5983 100.387 82.1812 100.387 82.0253C100.387 81.8694 99.9434 81.7876 99.4006 81.8436C98.4836 81.9377 98.3491 82.1275 97.4949 84.5324C95.8069 89.2845 96.5412 88.7198 91.2325 89.3483C88.6699 89.6513 84.6263 89.9884 82.2473 90.0967L77.9213 90.2944L78.1027 89.5158C78.3461 88.4717 79.2566 82.6968 79.2582 82.1874C79.2589 81.9577 78.8574 81.7831 78.3296 81.7831H77.3993L76.8451 85.4219C76.5402 87.4234 76.2116 89.388 76.1147 89.7885L75.9385 90.5163H62.8503H49.762L49.2335 87.1404C48.9429 85.2838 48.7053 83.3188 48.7053 82.7738C48.7053 81.8885 48.6013 81.7831 47.7301 81.7831C46.8463 81.7831 46.755 81.8817 46.7563 82.8343C46.757 83.4126 46.9738 85.1955 47.238 86.7966C47.5026 88.3976 47.7214 89.8541 47.7246 90.0337C47.7314 90.4412 42.037 90.1397 34.9751 89.3586L29.8588 88.7926L28.9165 86.3392C28.3981 84.9898 27.8731 83.4126 27.75 82.8343C27.5592 81.9393 27.3846 81.7831 26.5765 81.7831C25.3823 81.7831 25.3836 81.991 26.6022 85.5558C27.1385 87.1249 27.5774 88.4313 27.5774 88.4585C27.5774 88.6965 19.9768 86.7843 17.7828 85.9941C13.5361 84.4651 12.6454 83.5507 11.2081 79.2456C7.76294 68.9249 7.74604 56.4406 11.1632 45.9217C12.69 41.2229 13.5744 40.3968 18.9637 38.6382C22.8723 37.3628 27.2523 36.474 27.2523 36.9562C27.2523 37.1723 26.8135 38.6408 26.2772 40.2195C25.7409 41.7983 25.302 43.2176 25.302 43.3735C25.302 43.5294 25.7444 43.6112 26.2847 43.5553C27.2247 43.4586 27.3209 43.2994 28.4894 39.9165C29.9434 35.708 29.2357 36.0706 37.3196 35.393C46.0965 34.6568 47.7301 34.5963 47.7292 35.0068C47.7285 35.2054 47.5221 36.605 47.2705 38.1171C46.3016 43.9376 46.2957 43.6158 47.3755 43.6158C48.4631 43.6158 48.3715 43.8849 49.2153 38.2077L49.7549 34.5785L53.6996 34.453C58.0289 34.3152 75.7559 34.5229 75.9473 34.7134ZM206.604 34.5863C204.858 34.8596 203.567 35.6715 202.14 37.3948L201.151 38.588V36.5736V34.5591H199.224C197.472 34.5591 197.287 34.6258 197.192 35.2869C197.135 35.6873 197.129 40.2719 197.179 45.4756L197.27 54.9366H199.182H201.094L201.204 48.3867C201.302 42.5371 201.383 41.7194 201.964 40.7387C202.943 39.0852 204.138 38.3539 206.131 38.1892C208.353 38.0058 209.971 38.7216 210.979 40.3347C211.672 41.4438 211.722 41.9099 211.82 48.225L211.925 54.9366H213.822H215.72L215.83 48.5484C215.93 42.8262 216.012 42.0254 216.62 40.8664C218.51 37.2638 223.948 37.1746 225.774 40.7164C226.459 42.047 226.505 42.5348 226.505 48.5361V54.9366H228.455H230.405V47.5551V40.1739L229.512 38.4198C228.408 36.2534 226.653 34.9693 224.287 34.597C220.998 34.0798 217.777 35.3312 216.266 37.7141C215.908 38.2779 215.534 38.7446 215.435 38.7514C215.335 38.7585 214.805 38.131 214.257 37.3573C212.663 35.1074 209.83 34.0817 206.604 34.5863ZM270.414 34.608C268.653 34.9259 266.611 36.2268 265.888 37.4915C265.591 38.0113 265.245 38.4373 265.12 38.4386C264.995 38.4396 264.849 37.6035 264.795 36.5807L264.698 34.7209H262.747H260.797L260.711 44.8287L260.626 54.9366H262.743H264.86L264.862 48.8719C264.863 45.5364 265.013 42.2734 265.195 41.6207C265.379 40.9606 266.025 39.9983 266.652 39.451C269.327 37.1141 273.268 37.5511 275.04 40.3813C275.698 41.4325 275.757 41.9933 275.859 48.2395L275.969 54.966L277.972 54.8703L279.975 54.7749L279.946 47.8206C279.915 40.3175 279.709 39.1541 278.027 36.9595C276.564 35.0508 273.391 34.0707 270.414 34.608ZM322.824 34.5912C322.078 34.7283 321.046 35.0576 320.529 35.3234C319.495 35.8552 317.549 37.7189 317.463 38.2594C317.433 38.448 317.323 37.729 317.219 36.6616L317.03 34.7209L314.998 34.6245L312.967 34.5284V44.7323V54.9366H315.08H317.192L317.193 48.8719C317.193 43.7419 317.281 42.6344 317.762 41.6861C318.524 40.1817 320.179 39.2844 322.556 39.0875L324.506 38.9257L324.604 36.8563C324.658 35.7177 324.585 34.6866 324.442 34.564C324.298 34.4417 323.57 34.454 322.824 34.5912ZM361.543 34.5449C359.642 34.8373 357.41 36.2495 356.668 37.629L356.035 38.8054L355.873 36.7631L355.71 34.7209L353.679 34.6245L351.647 34.5284V44.7323V54.9366H353.76H355.873L355.88 48.5484C355.886 42.9795 355.966 41.9872 356.503 40.8108C358.285 36.9051 364.462 36.986 366.154 40.937C366.482 41.7026 366.599 43.6902 366.599 48.4572V54.9366H368.734H370.868L370.765 47.4163C370.669 40.4039 370.614 39.8065 369.95 38.5715C368.319 35.5395 365.101 33.9979 361.543 34.5449ZM172.668 35.0369C172.567 35.2998 172.535 38.6838 172.599 42.5571L172.714 49.5996L173.687 51.3699C175.09 53.9222 176.828 54.9958 179.87 55.1898C181.899 55.3195 182.477 55.2264 184.029 54.519C185.228 53.973 186.084 53.3106 186.584 52.5421C186.998 51.9065 187.46 51.3848 187.611 51.3825C187.761 51.3806 187.835 52.1795 187.774 53.1579L187.662 54.9376L189.861 54.9369L192.059 54.9366L191.973 44.8287L191.888 34.7209H189.829H187.77L187.716 41.3516C187.656 48.7625 187.472 49.4764 185.24 50.9733C183.775 51.9553 180.669 51.9928 179.111 51.0474C177.091 49.8218 176.788 48.5316 176.78 41.109L176.773 34.5591H174.813C173.383 34.5591 172.802 34.6885 172.668 35.0369ZM240.538 34.9696C238.878 35.4981 236.449 37.8664 235.577 39.8058C234.93 41.2471 234.809 42.0432 234.807 44.9096C234.804 47.765 234.922 48.5633 235.546 49.9231C237.051 53.1977 239.561 54.933 243.164 55.1902C245.926 55.3875 247.747 54.747 249.565 52.938C250.29 52.2164 250.883 51.4976 250.883 51.3404C250.883 51.1836 251.03 51.0552 251.208 51.0552C251.389 51.0552 251.533 51.9178 251.533 52.9959V54.9366H253.484H255.434V44.7479V34.5591H253.484H251.533V36.6616C251.533 37.8179 251.424 38.7585 251.29 38.7517C251.155 38.7449 250.66 38.1841 250.189 37.5051C248.913 35.667 246.444 34.5504 243.75 34.5921C242.578 34.6102 241.133 34.78 240.538 34.9696ZM333.406 34.9871C330.479 36.0742 328.995 37.4353 327.722 40.2037C326.982 41.8125 326.834 42.5869 326.82 44.9461C326.804 47.5425 326.891 47.9394 327.93 49.9619C329.874 53.7511 333.165 55.4923 337.807 55.1866C342.237 54.8949 345.323 52.7145 346.792 48.8385C347.357 47.3474 347.459 46.5071 347.349 44.2627C347.143 40.0859 345.484 37.3719 342.058 35.6032C340.737 34.9207 339.887 34.7441 337.508 34.6575C335.6 34.5876 334.173 34.7024 333.406 34.9871ZM390.233 34.7606C390.107 34.8871 390.003 39.4782 390.003 44.9636V54.9366H392.12H394.237L394.151 44.8287L394.066 34.7209L392.265 34.6258C391.274 34.5737 390.36 34.6342 390.233 34.7606ZM404.429 35.2296C402.391 36.0095 400.679 37.6148 399.516 39.8356C398.735 41.3264 398.636 41.8737 398.627 44.7479C398.614 48.7017 399.34 50.6026 401.705 52.8034C405.358 56.2039 412.306 56.0696 415.759 52.5317C416.94 51.3214 417.808 49.8173 418.009 48.6293C418.109 48.0435 417.914 47.9733 415.951 47.8873C413.934 47.799 413.768 47.8436 413.559 48.5342C413.151 49.8804 411.465 51.3117 409.827 51.7027C406.248 52.5573 402.68 50.0191 402.679 46.618L402.679 45.7182H410.399H418.119L418.217 43.8312C418.421 39.9135 416.245 36.5933 412.577 35.228C410.22 34.3502 406.725 34.3508 404.429 35.2296ZM422.507 44.7479V54.9366H424.595H426.683L426.789 48.6519C426.886 42.9022 426.952 42.2916 427.565 41.4752C428.749 39.9 429.825 39.3275 431.993 39.1211L434.046 38.9257L434.142 36.7424L434.238 34.5591L433.005 34.5662C431.269 34.5763 429.377 35.524 427.952 37.0973L426.733 38.4425V36.5008V34.5591H424.62H422.507V44.7479ZM411.761 38.6958C413.12 39.6972 414.056 41.3267 414.056 42.6933V43.9392H408.368H402.679V43.1371C402.679 41.0091 404.379 38.785 406.538 38.0877C407.864 37.6591 410.822 38.0036 411.761 38.6958ZM248.454 39.0929C252.276 41.4431 252.301 48.3524 248.495 50.5506C245.971 52.0087 243.612 51.9411 241.262 50.3429C239.209 48.9469 238.314 45.332 239.251 42.2211C239.724 40.6491 241.391 38.9018 242.84 38.4596C244.408 37.9813 247.149 38.2905 248.454 39.0929ZM340.37 39.0486C342.157 40.1474 343.034 42.0771 343.034 44.9096C343.034 46.8881 342.888 47.5891 342.242 48.7111C341.321 50.3106 338.887 51.7063 337.038 51.6949C334.77 51.681 332.272 50.0285 331.516 48.0422C331.02 46.7393 331.088 42.9168 331.63 41.6337C332.205 40.2752 333.702 38.828 334.941 38.4341C336.346 37.9877 339.164 38.307 340.37 39.0486ZM63.6573 49.2762C63.6573 49.6947 62.5197 49.7614 55.3687 49.7614H47.0801V50.5522C47.0801 51.2664 47.2299 51.3527 48.624 51.4417L50.168 51.5403V62.8611V74.1819L48.624 74.2806C47.2299 74.3695 47.0801 74.4559 47.0801 75.1701V75.9609H52.4433H57.8065V75.1523C57.8065 74.4236 57.6772 74.3437 56.4982 74.3437H55.1899L55.2793 69.0876L55.3687 63.8315L58.5379 63.739L61.7071 63.6465V65.1137C61.7071 66.5281 61.7422 66.5808 62.6822 66.5808H63.6573V62.6994V58.818H62.6822C61.7422 58.818 61.7071 58.8707 61.7071 60.2852V61.7524L58.5379 61.6598L55.3687 61.5673L55.2787 56.9582L55.1883 52.349H59.423H63.6573V53.6428C63.6573 54.8648 63.7116 54.9366 64.6325 54.9366H65.6076V51.8638V48.791H64.6325C63.9824 48.791 63.6573 48.9527 63.6573 49.2762ZM81.8599 49.6342C81.8599 49.9975 81.6882 50.0877 81.291 49.9344C79.8462 49.3761 76.3546 49.3567 74.6929 49.8975C71.1792 51.0413 69.7038 53.0512 69.6879 56.7156C69.6736 59.9553 70.402 60.9347 75.3219 64.2914C80.1241 67.568 81.2098 68.7069 81.2098 70.4684C81.2098 72.4065 79.8816 73.7323 77.7341 73.9377C75.9402 74.1092 74.0806 73.6392 72.6773 72.6595C71.931 72.1384 71.7835 71.7988 71.7835 70.602C71.7835 69.2247 71.7451 69.1684 70.8083 69.1684H69.8332V72.7264V76.2844H70.8083C71.5667 76.2844 71.7835 76.1408 71.7835 75.6375C71.7835 74.8457 71.6925 74.8437 73.5803 75.675C75.5738 76.5522 79.1441 76.6133 81.1337 75.8037C84.3588 74.4918 86.2226 70.7475 85.4477 67.1378C84.8789 64.4875 83.9096 63.3719 79.7747 60.6086C75.6668 57.8632 74.0588 56.3142 74.0588 55.1022C74.0588 52.2089 77.1977 50.8585 80.4784 52.3402C81.8092 52.9415 81.8599 53.0182 81.8599 54.4356C81.8599 55.8549 81.8943 55.9069 82.835 55.9069H83.8101V52.5107V49.1145H82.835C82.156 49.1145 81.8599 49.2723 81.8599 49.6342ZM17.0677 49.9771C16.9484 50.0955 16.8509 50.4594 16.8509 50.7857C16.8509 51.2728 17.1119 51.3786 18.3136 51.3786H19.7763V62.8427V74.3065L18.3948 74.4061C17.2634 74.4873 17.0134 74.6225 17.0134 75.1523C17.0134 75.7672 17.2601 75.8037 21.9703 75.8885L26.9273 75.9778V75.1607C26.9273 74.4232 26.8008 74.3437 25.6271 74.3437H24.3269V69.1684V63.9932H30.1777H36.0285V69.1684V74.3437H34.7283C33.5582 74.3437 33.4282 74.4245 33.4282 75.1523V75.9609H38.4664H43.5046V75.1523C43.5046 74.4097 43.3853 74.3437 42.0419 74.3437H40.5792V62.8611V51.3786H42.0646C43.4188 51.3786 43.5406 51.3146 43.4461 50.6508C43.344 49.937 43.2471 49.9215 38.3851 49.8338L33.4282 49.7445V50.5616C33.4282 51.299 33.5546 51.3786 34.7283 51.3786H36.0285V56.5538V61.7291H30.1777H24.3269V56.5538V51.3786H25.6271C26.7972 51.3786 26.9273 51.2977 26.9273 50.57V49.7614H22.1059C19.4538 49.7614 17.1866 49.8584 17.0677 49.9771ZM89.9047 49.9477C89.7705 50.0825 89.6609 50.4594 89.6609 50.7857C89.6609 51.2728 89.922 51.3786 91.1236 51.3786H92.5863V62.8611V74.3437H91.1236C89.7802 74.3437 89.6609 74.4097 89.6609 75.1523V75.9609H95.3492H101.038V75.1523C101.038 74.3977 100.929 74.3437 99.4123 74.3437H97.7871V63.1846V52.0255L99.6561 52.0268C102.191 52.0284 103.393 52.7821 104.085 54.803C104.78 56.834 104.743 58.9875 103.983 60.6526C103.252 62.254 102.164 63.0436 100.576 63.1251C99.5501 63.1778 99.4149 63.2849 99.4136 64.0485C99.4126 64.7469 99.6002 64.9532 100.395 65.1269C102.762 65.6444 106.322 64.3128 107.912 62.3152C111.246 58.1265 110.071 52.5531 105.426 50.5205C104.353 50.0512 102.905 49.9299 97.137 49.8273C93.2933 49.7588 90.039 49.8131 89.9047 49.9477ZM191.749 66.7862C190.355 68.5494 191.309 70.5172 193.586 70.5768C195.301 70.6214 196.276 69.7998 196.276 68.3097C196.276 66.8183 195.317 65.9339 193.699 65.9339C192.707 65.9339 192.272 66.1238 191.749 66.7862ZM151.743 68.5002C146.906 69.9645 144.756 75.1384 147.405 78.9415C148.533 80.562 149.74 81.2633 154.286 82.941C157.215 84.022 158.287 84.5832 158.977 85.3954C160.058 86.6688 160.152 88.2738 159.235 89.771C157.58 92.4712 152.413 91.6952 151.176 88.561L150.671 87.2817H148.607C146.563 87.2817 146.544 87.2901 146.544 88.1887C146.544 89.2642 148.044 91.7344 149.289 92.7093C151.569 94.4937 155.76 95.1901 159.132 94.3453C161.376 93.7831 163.587 91.5228 164.053 89.3156C164.711 86.2011 163.817 83.6491 161.464 81.9215C160.504 81.2167 159.925 80.9683 154.758 79.047C151.929 77.9951 150.769 76.8213 150.769 75.0093C150.769 70.94 157.28 70.1382 158.891 74.0092C159.29 74.9676 159.352 74.9906 161.535 74.9906C164.119 74.9906 164.158 74.9201 162.943 72.4929C161.981 70.5726 160.417 69.2687 158.323 68.6419C156.746 68.1696 153.094 68.091 151.743 68.5002ZM303.216 81.4751V94.4284L305.247 94.3323L307.279 94.2359L307.368 89.3033L307.458 84.3707H310.811C316.244 84.3707 318.84 83.1878 320.312 80.0419C321.823 76.8123 321.019 72.4657 318.523 70.3762C316.759 68.8984 314.759 68.5215 308.682 68.5215H303.216V81.4751ZM315.607 73.2624C316.903 74.5533 317.24 76.8611 316.392 78.6398C315.617 80.2648 314.121 80.8767 310.458 81.0673L307.441 81.2245V76.6234V72.0223L311.011 72.1319C314.523 72.2393 314.598 72.2581 315.607 73.2624ZM234.143 74.0438C233.428 74.1564 232.455 74.4064 231.98 74.5998C231.033 74.9854 228.78 77.0901 228.78 77.5889C228.78 77.7609 228.634 77.9016 228.455 77.9016C228.276 77.9016 228.13 77.1011 228.13 76.1227V74.3437H226.18H224.23V84.3707V94.3977H226.18H228.13V88.6344C228.13 81.9859 228.511 80.0739 230.101 78.7429C232.818 76.4675 237.105 77.1875 238.612 80.1723C239.097 81.1329 239.181 82.2576 239.181 87.8478L239.182 94.3977H241.326H243.47L243.322 87.2009C243.225 82.5014 243.027 79.5875 242.752 78.8037C242.216 77.2761 240.705 75.4457 239.446 74.7978C238.152 74.1315 235.754 73.7909 234.143 74.0438ZM438.272 74.0438C435.907 74.4158 434.784 75.1458 433.088 77.4165C432.64 78.0152 432.603 77.9249 432.594 76.2035L432.583 74.3437H430.471H428.358V84.3707V94.3977H430.446H432.535L432.64 88.0095C432.733 82.3902 432.824 81.468 433.396 80.3486C434.427 78.3289 435.496 77.7399 438.128 77.7399C440.261 77.7399 440.431 77.7965 441.51 78.872C443.013 80.3689 443.31 82.0292 443.31 88.943V94.3977H445.423H447.535V87.8426C447.535 80.704 447.728 79.8058 449.547 78.4544C451.34 77.1218 454.72 77.3521 456.251 78.9108C457.65 80.3346 457.937 81.9797 457.937 88.5726V94.4284L459.968 94.3323L462 94.2359L461.986 87.12C461.973 80.3754 461.933 79.9151 461.212 78.2985C459.902 75.3635 457.651 74.0157 454.078 74.0273C452.692 74.0319 451.453 74.247 450.605 74.6302C449.345 75.2002 446.885 77.6571 446.885 78.3467C446.885 78.5272 446.464 78.0145 445.95 77.2069C444.374 74.7354 441.474 73.5405 438.272 74.0438ZM173.786 74.6251C169.551 76.3245 167.454 79.986 167.742 85.1786C168.059 90.8911 171.459 94.3187 177.139 94.6535C181.756 94.9255 185.417 92.7972 186.839 89.0138C187.202 88.048 187.499 87.1902 187.499 87.1077C187.499 87.0256 186.512 86.9635 185.305 86.9699L183.111 86.9816L182.461 88.3446C181.282 90.8167 177.817 91.8718 175.216 90.5505C172.896 89.3722 171.931 87.5162 171.919 84.2089C171.91 81.762 172.725 79.91 174.357 78.6728C175.428 77.8602 175.866 77.7399 177.75 77.7409C179.597 77.7415 180.082 77.869 181.061 78.6119C181.691 79.0907 182.454 80.0002 182.756 80.6329C183.293 81.7591 183.344 81.7831 185.22 81.7831C186.274 81.7831 187.203 81.6741 187.284 81.5405C187.599 81.0233 186.129 77.9291 185.037 76.8097C183.129 74.8554 181.571 74.2385 178.236 74.1185C175.939 74.0357 174.983 74.1448 173.786 74.6251ZM207.002 74.3042C204.227 75.2102 202.413 76.7152 201.106 79.1954C200.429 80.4799 200.339 81.0886 200.339 84.3707C200.339 87.7753 200.412 88.2272 201.202 89.7076C202.224 91.6218 203.381 92.7542 205.377 93.7961C206.631 94.4504 207.304 94.5594 210.09 94.5594C212.876 94.5594 213.55 94.4504 214.803 93.7961C217.261 92.5136 218.729 90.8048 219.497 88.3329C219.716 87.6256 219.658 87.6052 217.425 87.6052C215.537 87.6052 215.128 87.697 215.128 88.1227C215.128 88.9938 213.063 90.7585 211.578 91.1564C209.862 91.6163 208.013 91.3375 206.603 90.4056C205.458 89.6488 204.077 87.2843 204.077 86.0811V85.341H211.872H219.667L219.872 84.5282C220.392 82.4642 219.039 78.3328 217.301 76.6787C215.417 74.8858 213.676 74.2227 210.597 74.1263C209.067 74.0781 207.449 74.1583 207.002 74.3042ZM253.779 74.5041C251.733 75.1568 249.484 77.2182 248.382 79.4497C247.575 81.0867 247.471 81.6498 247.477 84.3778C247.483 87.0825 247.594 87.6815 248.389 89.2988C249.571 91.702 251.749 93.6071 254.089 94.2841C256.439 94.9637 260.331 94.7341 262.124 93.8096C264.515 92.5766 266.368 90.3041 266.983 87.8478L267.206 86.9583H265.062C262.945 86.9583 262.913 86.9712 262.471 88.0247C261.11 91.2663 256.445 92.1374 253.527 89.6947C251.151 87.7045 250.898 81.827 253.086 79.4196C255.803 76.4299 261.177 77.2748 262.561 80.9091C262.894 81.7834 262.975 81.8109 264.939 81.7177C266.878 81.6259 266.969 81.5848 266.885 80.835C266.746 79.593 265.45 77.2618 264.417 76.3969C262.485 74.779 260.95 74.2334 258.034 74.1279C256.236 74.0629 254.75 74.1942 253.779 74.5041ZM276.849 74.4669C271.535 76.3562 269.11 82.1317 271.031 88.3213C272.606 93.3963 278.193 95.9331 284.01 94.2143C285.983 93.6314 288.307 91.6862 289.266 89.816C290.303 87.7931 290.177 87.6052 287.776 87.6052C286.588 87.6052 285.663 87.7465 285.663 87.9277C285.663 88.1052 285.146 88.8194 284.514 89.5152C283.671 90.4444 282.941 90.8818 281.766 91.1622C278.133 92.0294 275.254 90.1517 274.459 86.3981L274.237 85.3527L282.144 85.266L290.051 85.1793L290.029 82.7534C290.013 80.9524 289.832 79.9905 289.325 79.0192C288.301 77.0532 286.011 75.1183 284.01 74.5271C281.952 73.919 278.471 73.8895 276.849 74.4669ZM332.536 74.8567C331.608 75.3166 330.545 76.1172 330.174 76.6357C329.804 77.1541 329.4 77.5782 329.278 77.5785C329.156 77.5785 329.107 76.8507 329.169 75.9613L329.282 74.3437H327.138H324.994V84.3707V94.3977H327.106H329.219L329.22 88.1712C329.221 82.5665 329.285 81.8413 329.856 80.9094C330.683 79.5587 332.205 78.7759 334.42 78.5605L336.208 78.3868L336.304 76.2035L336.4 74.0202H335.311C334.712 74.0202 333.463 74.3967 332.536 74.8567ZM345.796 74.3226C342.974 75.1801 340.734 77.1393 339.502 79.8259C338.701 81.5735 338.56 86.3492 339.251 88.3375C339.963 90.3849 341.988 92.6193 344.036 93.6165C346.662 94.8951 350.375 95.0785 353.08 94.0632C355.353 93.21 357.347 91.3637 358.49 89.0523C359.165 87.6877 359.286 86.977 359.286 84.3707C359.286 81.6572 359.179 81.0815 358.372 79.4464C356.637 75.9299 353.264 73.9969 348.953 74.048C347.664 74.0632 346.243 74.1868 345.796 74.3226ZM368.468 74.4818C366.702 75.109 365.109 76.4251 364.154 78.0472C362.954 80.0849 362.675 81.2688 362.663 84.3872C362.646 88.7538 364.179 91.9106 367.162 93.6498C368.863 94.6422 372.176 94.9983 374.323 94.42C375.845 94.0105 377.753 92.5129 378.679 91.0014L379.274 90.0311L379.275 93.1951C379.276 96.8601 378.9 98.0116 377.225 99.4752C374.591 101.778 369.937 101.077 368.18 98.1144C367.535 97.0273 367.439 96.9853 365.592 96.9853C363.459 96.9853 363.332 97.1625 364.121 99.0408C364.81 100.682 366.534 102.44 368.355 103.359C370.57 104.475 374.827 104.765 377.251 103.964C379.337 103.275 381.575 101.327 382.569 99.3368C383.33 97.812 383.34 97.6571 383.439 86.0688L383.539 74.3437H381.407H379.276V76.2776V78.2115L377.57 76.4704C376.426 75.304 375.434 74.6131 374.563 74.3767C372.814 73.9022 369.961 73.9513 368.468 74.4818ZM396.633 74.6367C395.9 74.9683 394.766 75.7704 394.114 76.4196L392.928 77.5999V75.9716V74.3437H390.815H388.702V84.3707V94.3977H390.815H392.928L392.929 88.3329C392.929 83.2053 393.017 82.0942 393.497 81.141C394.281 79.5859 396.213 78.5605 398.372 78.5537L400.079 78.5485V76.2844V74.0202L399.023 74.0273C398.442 74.0312 397.366 74.3055 396.633 74.6367ZM408.853 74.3223C406.225 75.118 404.046 77.256 403.1 79.9688C402.329 82.178 402.325 86.5517 403.091 88.7476C404.332 92.3014 407.128 94.4054 410.934 94.6483C413.975 94.8424 416.124 93.9859 417.968 91.845L419.252 90.3545L419.255 92.3761L419.257 94.3977H421.369H423.482V84.3707V74.3437H421.369H419.257V76.2844C419.257 77.3624 419.112 78.2251 418.932 78.2251C418.753 78.2251 418.606 78.0799 418.606 77.9026C418.606 77.1283 416.214 75.0119 414.796 74.531C413.23 73.9998 410.262 73.896 408.853 74.3223ZM191.725 84.3707V94.3977H193.675H195.626V84.3707V74.3437H193.675H191.725V84.3707ZM212.864 77.9825C214.518 78.8131 215.765 80.6846 215.773 82.3491L215.778 83.4003H209.928C203.422 83.4003 203.715 83.5187 204.394 81.163C205.327 77.9259 209.575 76.3306 212.864 77.9825ZM282.445 77.6232C284.559 78.3276 285.988 80.1946 285.988 82.2521V83.4003H280.319C277.201 83.4003 274.571 83.2729 274.474 83.1166C274.377 82.9607 274.519 82.0916 274.79 81.185C275.701 78.1316 279.153 76.5257 282.445 77.6232ZM351.053 77.9563C354.98 79.1272 356.516 85.5813 353.668 88.9488C352.629 90.1779 350.593 91.1463 349.029 91.156C347.114 91.1677 344.721 89.7675 343.929 88.1709C341.512 83.2994 344.037 77.6852 348.684 77.5986C349.289 77.5876 350.355 77.7483 351.053 77.9563ZM375.3 78.0789C378.564 79.4358 380 82.8964 378.914 86.7891C377.871 90.5266 372.804 92.2988 369.467 90.0932C366.547 88.1622 365.995 82.1896 368.481 79.4041C369.944 77.7645 373.079 77.1551 375.3 78.0789ZM416.305 78.6546C418.189 79.8954 419.075 81.7472 419.066 84.425C419.059 86.2418 418.907 86.8231 418.101 88.1153C415.115 92.8991 408.056 91.6681 406.908 86.1629C406.159 82.5726 407.797 78.8904 410.555 77.966C412.316 77.376 414.818 77.6759 416.305 78.6546ZM17.501 87.2743C19.8618 88.1356 22.4972 88.8149 26.3415 89.5527L28.1936 89.9082L29.8562 93.2119C30.7703 95.0287 32.4475 97.8948 33.5829 99.5807C34.7183 101.266 35.5221 102.692 35.3687 102.747C35.2156 102.803 33.7288 102.385 32.0653 101.819C23.3615 98.8532 18.3656 94.7069 14.5905 87.3163C13.9271 86.017 13.916 85.9164 14.4641 86.1399C14.7937 86.2745 16.1602 86.7849 17.501 87.2743ZM111.764 86.1626C111.764 86.5268 110.394 88.986 108.976 91.1677C106.632 94.7726 103.605 97.3615 99.124 99.5933C96.6049 100.848 91.3027 102.807 90.4264 102.807C90.1992 102.807 90.9296 101.461 92.049 99.8155C93.1688 98.1701 94.8815 95.2593 95.8547 93.3474C97.5192 90.0783 97.6922 89.8603 98.7622 89.6817C101.915 89.1555 108.221 87.4939 109.654 86.8114C111.358 85.9999 111.764 85.875 111.764 86.1626ZM38.6289 90.9933C41.9362 91.2657 45.3401 91.54 46.1933 91.6027C47.0466 91.6652 47.8264 91.7981 47.9265 91.8977C48.0269 91.9973 48.5915 94.0199 49.1815 96.3921C49.7714 98.7643 50.637 101.705 51.1051 102.927C51.5728 104.149 51.9557 105.204 51.9557 105.272C51.9557 105.539 48.702 105.36 45.6115 104.922C40.0805 104.14 39.5777 103.971 38.1813 102.424C36.3549 100.401 33.3908 95.9227 31.8182 92.8105L30.4547 90.1119L31.5351 90.3047C32.1293 90.4108 35.3216 90.7207 38.6289 90.9933ZM95.1867 90.3652C95.1867 91.1324 91.201 97.9967 89.4649 100.22C86.51 104.004 86.8682 103.757 83.3222 104.441C79.5208 105.175 74.0568 105.623 74.063 105.2C74.0656 105.041 74.4839 103.72 74.993 102.264C75.502 100.809 76.3396 97.8657 76.8545 95.7225L77.7906 91.8262L79.0937 91.6758C79.8108 91.593 83.3938 91.2883 87.056 90.9985C90.7183 90.7087 93.778 90.4089 93.8547 90.3322C94.0562 90.132 95.1867 90.1598 95.1867 90.3652ZM75.6817 92.0526C75.6749 92.7937 74.221 98.1578 73.0879 101.624L71.7796 105.625L69.5875 105.831C66.7583 106.097 59.5693 106.1 56.4352 105.836L53.9908 105.631L52.4914 100.904C51.6664 98.3037 50.8376 95.4489 50.649 94.5594C50.4608 93.6699 50.2291 92.6873 50.1342 92.3761C49.972 91.8437 50.7251 91.8101 62.823 91.8101C69.8966 91.8101 75.683 91.9191 75.6817 92.0526ZM31.3154 102.931C33.1031 103.553 35.224 104.23 36.0285 104.435C37.1454 104.72 38.0675 105.36 39.9291 107.144C43.1425 110.222 45.933 112.151 50.0432 114.135C51.8995 115.031 52.9796 115.673 52.4433 115.561C45.5992 114.132 38.6637 111.308 33.2354 107.74C30.2167 105.756 23.3518 100.075 23.3518 99.5606C23.3518 99.4044 24.4124 99.8439 25.7083 100.537C27.0043 101.231 29.5276 102.308 31.3154 102.931ZM101.971 100.114C101.048 101.233 94.9354 106.27 92.7417 107.72C88.1703 110.74 81.031 113.835 76.0091 114.973C74.847 115.237 73.6037 115.523 73.2462 115.61C72.8886 115.696 74.0588 115.06 75.8465 114.195C79.3729 112.489 84.978 108.483 86.9592 106.252C87.9827 105.099 88.5655 104.76 90.311 104.3C93.5478 103.448 98.417 101.608 100.225 100.553C102.083 99.47 102.612 99.3364 101.971 100.114ZM48.1937 106.52C50.6832 106.794 52.7501 107.053 52.7872 107.096C52.8242 107.139 53.382 108.222 54.0266 109.504C54.6712 110.785 55.6586 112.354 56.2206 112.992C56.783 113.628 57.1487 114.244 57.0333 114.359C56.7622 114.628 53.656 113.658 51.0615 112.493C48.6663 111.418 44.207 108.51 42.3669 106.824L41.0667 105.633L42.3669 105.827C43.082 105.934 45.7041 106.246 48.1937 106.52ZM83.16 107.058C79.5338 110.308 73.0193 113.812 69.5628 114.37L68.4638 114.547L69.6288 113.029C70.2694 112.194 71.3336 110.535 71.9938 109.342C72.6536 108.15 73.2169 107.138 73.2455 107.095C73.2741 107.051 75.4068 106.784 77.9847 106.502C80.5626 106.219 82.7329 105.928 82.8077 105.853C82.8825 105.779 83.3213 105.725 83.7831 105.732C84.587 105.745 84.5603 105.802 83.16 107.058ZM70.8083 107.31C70.8083 107.604 68.7144 111.12 67.9171 112.164C66.7505 113.692 64.4287 115.099 63.0739 115.099C61.6369 115.099 60.1085 114.361 58.859 113.064C57.6986 111.86 54.86 107.631 55.0294 107.359C55.1594 107.149 70.8083 107.101 70.8083 107.31ZM194.02 107.97C193.399 108.352 193.749 109.438 194.493 109.438C194.903 109.438 195.174 109.188 195.237 108.751C195.344 108.003 194.671 107.571 194.02 107.97ZM220.999 107.97C220.378 108.352 220.728 109.438 221.471 109.438C221.881 109.438 222.153 109.188 222.215 108.751C222.323 108.003 221.649 107.571 220.999 107.97ZM149.144 109.196C147.863 109.833 146.544 112.06 146.544 113.587C146.544 116.151 149.498 118.642 151.988 118.178C153.725 117.853 154.868 116.906 155.496 115.27C157.125 111.027 153.135 107.212 149.144 109.196ZM215.128 109.923C215.128 110.57 214.966 110.894 214.641 110.894C214.37 110.894 214.153 111.181 214.153 111.541C214.153 111.9 214.37 112.188 214.641 112.188C215.026 112.188 215.128 112.647 215.128 114.38C215.128 117.122 215.655 118.01 217.283 118.01C218.186 118.01 218.404 117.894 218.32 117.458C218.261 117.154 217.848 116.821 217.402 116.716C216.651 116.541 216.584 116.368 216.495 114.38C216.401 112.245 216.405 112.233 217.305 112.13C218.569 111.985 218.725 110.976 217.504 110.836C216.782 110.754 216.57 110.546 216.488 109.842C216.416 109.214 216.201 108.953 215.757 108.953C215.275 108.953 215.128 109.18 215.128 109.923ZM152.726 110.412C153.248 110.681 153.826 111.18 154.01 111.523C154.792 112.976 154.089 116.049 152.868 116.515C151.998 116.847 149.992 116.722 149.441 116.301C147.532 114.842 147.836 111.291 149.949 110.375C151.229 109.82 151.585 109.825 152.726 110.412ZM161.077 111.182C160.124 111.666 159.871 111.7 159.871 111.344C159.871 111.079 159.536 110.894 159.058 110.894H158.245V114.452V118.01H159.058C159.853 118.01 159.871 117.957 159.871 115.56V113.11L161.168 112.568C162.132 112.165 162.465 111.839 162.468 111.298C162.472 110.422 162.56 110.43 161.077 111.182ZM166.149 111.052C162.518 112.595 164.213 118.998 168.031 118.164C168.524 118.056 169.101 117.759 169.314 117.504C169.947 116.745 170.224 116.969 170.128 118.164C170.004 119.722 169.441 120.274 167.975 120.274C167.086 120.274 166.599 120.083 166.259 119.6C165.973 119.193 165.515 118.969 165.103 119.034C164.421 119.142 164.421 119.142 165.054 120.173C166.23 122.087 169.468 122.202 170.908 120.381C171.502 119.628 171.572 119.082 171.572 115.194C171.572 110.87 171.569 110.849 170.841 110.96C170.439 111.021 170.146 111.249 170.191 111.467C170.297 111.988 169.959 111.97 169.323 111.422C168.507 110.72 167.269 110.575 166.149 111.052ZM176.101 111.02C174.107 111.661 173.326 114.536 174.534 116.784C175.095 117.827 176.95 118.432 178.264 118.001C178.874 117.8 179.373 117.502 179.373 117.338C179.373 117.174 179.52 117.039 179.698 117.039C179.877 117.039 180.023 117.258 180.023 117.524C180.023 117.794 180.312 118.01 180.674 118.01C181.284 118.01 181.324 117.794 181.324 114.452C181.324 111.109 181.284 110.894 180.674 110.894C180.223 110.894 180.023 111.109 180.023 111.597V112.3L179.292 111.642C178.312 110.759 177.44 110.589 176.101 111.02ZM187.289 110.885C186.905 111.042 186.494 111.327 186.376 111.518C186.061 112.026 185.549 111.94 185.549 111.379C185.549 111.109 185.26 110.894 184.899 110.894C184.288 110.894 184.249 111.109 184.249 114.452C184.249 117.794 184.288 118.01 184.899 118.01C185.488 118.01 185.549 117.794 185.549 115.731C185.549 113.743 185.651 113.351 186.347 112.658C187.36 111.65 187.971 111.657 189.006 112.687C189.706 113.383 189.822 113.769 189.763 115.194C189.656 117.795 189.709 118.01 190.457 118.01C191.108 118.01 191.134 117.876 191.026 115.107C190.933 112.727 190.795 112.09 190.262 111.57C189.463 110.789 188.218 110.502 187.289 110.885ZM206.677 110.936C205.313 111.456 204.742 112.491 204.734 114.46C204.726 116.572 205.262 117.491 206.794 117.994C207.918 118.364 209.324 118.073 209.753 117.383C210.067 116.877 210.578 116.965 210.578 117.524C210.578 117.794 210.867 118.01 211.228 118.01C211.839 118.01 211.878 117.794 211.878 114.452C211.878 111.109 211.839 110.894 211.228 110.894C210.867 110.894 210.578 111.109 210.578 111.379C210.578 111.981 210.293 111.994 209.628 111.422C208.891 110.788 207.618 110.578 206.677 110.936ZM226.899 110.943C223.906 111.78 223.795 116.674 226.742 117.9C229.229 118.934 231.745 117.347 231.785 114.719C231.797 113.94 231.632 112.979 231.42 112.583C230.646 111.145 228.701 110.44 226.899 110.943ZM237.346 110.885C236.962 111.042 236.551 111.327 236.433 111.518C236.117 112.026 235.606 111.94 235.606 111.379C235.606 111.109 235.317 110.894 234.956 110.894C234.345 110.894 234.306 111.109 234.306 114.452C234.306 117.794 234.345 118.01 234.956 118.01C235.545 118.01 235.606 117.794 235.606 115.731C235.606 113.719 235.703 113.355 236.435 112.627C237.081 111.984 237.458 111.85 238.141 112.018C239.5 112.351 239.657 112.679 239.783 115.437C239.887 117.705 239.973 118.01 240.516 118.01C241.072 118.01 241.132 117.743 241.132 115.278C241.132 112.903 241.037 112.441 240.401 111.732C239.564 110.801 238.361 110.467 237.346 110.885ZM193.675 114.452V118.01H194.488H195.301V114.452V110.894H194.488H193.675V114.452ZM197.576 111.524C197.576 112.049 197.84 112.17 199.17 112.252L200.764 112.349L199.007 114.732C198.041 116.043 197.251 117.317 197.251 117.563C197.251 117.908 197.883 118.01 200.037 118.01C202.517 118.01 202.812 117.947 202.714 117.444C202.627 117.002 202.247 116.869 200.983 116.837C199.039 116.789 199.041 116.648 201.003 114.109C201.8 113.079 202.452 111.935 202.452 111.565C202.452 110.945 202.265 110.894 200.014 110.894C197.814 110.894 197.576 110.955 197.576 111.524ZM220.654 114.452C220.654 117.794 220.693 118.01 221.304 118.01C221.915 118.01 221.954 117.794 221.954 114.452C221.954 111.109 221.915 110.894 221.304 110.894C220.693 110.894 220.654 111.109 220.654 114.452ZM179.546 112.947C180.674 114.55 179.652 116.824 177.803 116.824C175.791 116.824 174.759 114.639 175.963 112.929C176.794 111.748 178.709 111.758 179.546 112.947ZM169.436 112.696C169.746 113.004 169.947 113.765 169.947 114.628C169.947 115.888 169.833 116.111 168.956 116.563C167.252 117.439 165.721 116.479 165.721 114.535C165.721 113.894 165.964 113.104 166.259 112.779C166.924 112.048 168.738 112.001 169.436 112.696ZM209.928 112.834C211.326 114.226 210.304 116.824 208.357 116.824C207.795 116.824 207.041 116.559 206.681 116.235C205.871 115.505 205.808 113.612 206.565 112.779C207.293 111.979 209.097 112.008 209.928 112.834ZM229.889 112.803C230.733 113.731 230.465 115.679 229.383 116.479C227.146 118.134 224.692 114.684 226.691 112.695C227.401 111.988 229.203 112.049 229.889 112.803Z" fill="url(#paint0_linear_952_1711)"/>
  <defs>
    <linearGradient id="paint0_linear_952_1711" x1="442.291" y1="125" x2="28.4315" y2="98.4002" gradientUnits="userSpaceOnUse">
      <stop stop-color="#94BBDF"/>
      <stop offset="1" stop-color="#FF6D04"/>
    </linearGradient>
  </defs>
</svg>