<svg xmlns="http://www.w3.org/2000/svg" width="83" height="89" viewBox="0 0 83 89" fill="none">
  <path d="M6.79981 24.2152L41.7076 4.06117L76.6155 24.2152V64.5233L41.7076 84.6774L6.79981 64.5233V24.2152Z" stroke="url(#paint0_linear_975_3388)" stroke-width="0.887407"/>
  <path d="M69.3292 43.8759C69.6051 44.1629 69.6051 44.5791 69.3292 44.866C67.6837 46.5782 64.1064 50.0175 59.314 53.0239C54.5156 56.0339 48.5638 58.5694 42.1516 58.5694C35.7393 58.5694 29.7875 56.0339 24.9891 53.0239C20.1967 50.0175 16.6194 46.5782 14.9739 44.8661C14.6981 44.5791 14.6981 44.1629 14.9739 43.8759C16.6194 42.1637 20.1967 38.7244 24.9891 35.7181C29.7875 32.708 35.7393 30.1726 42.1516 30.1726C48.5638 30.1726 54.5156 32.708 59.314 35.7181C64.1064 38.7244 67.6837 42.1637 69.3292 43.8759Z" stroke="url(#paint1_linear_975_3388)" stroke-width="1.77481"/>
  <ellipse cx="42.1515" cy="44.3701" rx="8.43031" ry="8.87401" fill="url(#paint2_radial_975_3388)"/>
  <circle cx="41.7077" cy="5.3244" r="5.3244" fill="url(#paint3_radial_975_3388)"/>
  <circle cx="41.7077" cy="83.4162" r="5.3244" fill="url(#paint4_radial_975_3388)"/>
  <circle cx="76.3161" cy="65.6682" r="5.3244" fill="url(#paint5_radial_975_3388)"/>
  <circle cx="76.3161" cy="24.8478" r="5.3244" fill="url(#paint6_radial_975_3388)"/>
  <circle cx="5.32392" cy="24.8478" r="5.3244" fill="url(#paint7_radial_975_3388)"/>
  <circle cx="5.32392" cy="65.6682" r="5.3244" fill="url(#paint8_radial_975_3388)"/>
  <defs>
    <linearGradient id="paint0_linear_975_3388" x1="78.0911" y1="3.54882" x2="2.26844" y2="75.5517" gradientUnits="userSpaceOnUse">
      <stop stop-color="#FF6D04"/>
      <stop offset="0.606922" stop-color="#FF6D04" stop-opacity="0.3"/>
      <stop offset="1" stop-color="#FF6D04" stop-opacity="0.05"/>
    </linearGradient>
    <linearGradient id="paint1_linear_975_3388" x1="65.224" y1="61.2316" x2="15.849" y2="67.5302" gradientUnits="userSpaceOnUse">
      <stop offset="0.101778" stop-color="#FF6D04"/>
      <stop offset="0.454276" stop-color="#FF6D04" stop-opacity="0.3"/>
      <stop offset="1" stop-color="#FF6D04" stop-opacity="0.05"/>
    </linearGradient>
    <radialGradient id="paint2_radial_975_3388" cx="0" cy="0" r="1" gradientUnits="userSpaceOnUse" gradientTransform="translate(42.1515 44.3701) rotate(133.531) scale(12.24 12.2239)">
      <stop offset="0.212933" stop-color="#FF6D04"/>
      <stop offset="1" stop-color="#FF6D04" stop-opacity="0.05"/>
    </radialGradient>
    <radialGradient id="paint3_radial_975_3388" cx="0" cy="0" r="1" gradientUnits="userSpaceOnUse" gradientTransform="translate(41.7077 5.3244) rotate(135) scale(7.52984)">
      <stop offset="0.212933" stop-color="#FF6D04"/>
      <stop offset="1" stop-color="#FF6D04" stop-opacity="0.05"/>
    </radialGradient>
    <radialGradient id="paint4_radial_975_3388" cx="0" cy="0" r="1" gradientUnits="userSpaceOnUse" gradientTransform="translate(41.7077 83.4162) rotate(135) scale(7.52984)">
      <stop offset="0.212933" stop-color="#FF6D04"/>
      <stop offset="1" stop-color="#FF6D04" stop-opacity="0.05"/>
    </radialGradient>
    <radialGradient id="paint5_radial_975_3388" cx="0" cy="0" r="1" gradientUnits="userSpaceOnUse" gradientTransform="translate(76.3161 65.6682) rotate(135) scale(7.52984)">
      <stop offset="0.212933" stop-color="#FF6D04"/>
      <stop offset="1" stop-color="#FF6D04" stop-opacity="0.05"/>
    </radialGradient>
    <radialGradient id="paint6_radial_975_3388" cx="0" cy="0" r="1" gradientUnits="userSpaceOnUse" gradientTransform="translate(76.3161 24.8478) rotate(135) scale(7.52984)">
      <stop offset="0.212933" stop-color="#FF6D04"/>
      <stop offset="1" stop-color="#FF6D04" stop-opacity="0.05"/>
    </radialGradient>
    <radialGradient id="paint7_radial_975_3388" cx="0" cy="0" r="1" gradientUnits="userSpaceOnUse" gradientTransform="translate(5.32392 24.8478) rotate(135) scale(7.52984)">
      <stop offset="0.212933" stop-color="#FF6D04"/>
      <stop offset="1" stop-color="#FF6D04" stop-opacity="0.05"/>
    </radialGradient>
    <radialGradient id="paint8_radial_975_3388" cx="0" cy="0" r="1" gradientUnits="userSpaceOnUse" gradientTransform="translate(5.32392 65.6682) rotate(135) scale(7.52984)">
      <stop offset="0.212933" stop-color="#FF6D04"/>
      <stop offset="1" stop-color="#FF6D04" stop-opacity="0.05"/>
    </radialGradient>
  </defs>
</svg>