<svg xmlns="http://www.w3.org/2000/svg" width="117" height="113" viewBox="0 0 117 113" fill="none">
  <circle cx="62.2328" cy="54.5736" r="36.3822" fill="url(#paint0_linear_978_3441)"/>
  <circle cx="57.4062" cy="36" r="5" fill="url(#paint1_radial_978_3441)"/>
  <circle cx="39.5527" cy="91.168" r="5" fill="url(#paint2_radial_978_3441)"/>
  <circle cx="20.4893" cy="26.1484" r="5" fill="url(#paint3_radial_978_3441)"/>
  <circle cx="97.8701" cy="87.3379" r="5" fill="url(#paint4_radial_978_3441)"/>
  <circle cx="88.2959" cy="10.7441" r="5" fill="url(#paint5_radial_978_3441)"/>
  <path d="M90.2034 67.171C83.0507 79.5598 74.4231 89.5058 66.2754 95.5778C62.2009 98.6143 58.2664 100.667 54.7132 101.584C51.163 102.501 48.0281 102.277 45.4958 100.815C42.9634 99.3531 41.2021 96.7501 40.2208 93.2172C39.2386 89.6814 39.0491 85.2477 39.6415 80.2007C40.8262 70.1087 45.1259 57.6639 52.2786 45.2751C59.4313 32.8862 68.0589 22.9402 76.2066 16.8683C80.2811 13.8317 84.2156 11.779 87.7688 10.8616C91.319 9.94505 94.4539 10.1689 96.9862 11.631C99.5185 13.093 101.28 15.696 102.261 19.2288C103.243 22.7646 103.433 27.1984 102.84 32.2453C101.656 42.3374 97.3561 54.7821 90.2034 67.171Z" stroke="url(#paint6_linear_978_3441)"/>
  <path d="M42.1246 78C53.6338 86.496 65.5184 92.1633 75.4141 94.4715C80.3628 95.6258 84.7899 95.9344 88.4135 95.3547C92.0341 94.7754 94.818 93.3169 96.5546 90.9644C98.2913 88.6119 98.8651 85.5218 98.3521 81.8913C97.8388 78.2576 96.2399 74.1179 93.6791 69.7287C88.5585 60.9519 79.642 51.264 68.1328 42.7679C56.6236 34.2719 44.7391 28.6046 34.8434 26.2964C29.8946 25.1421 25.4676 24.8336 21.8439 25.4133C18.2234 25.9925 15.4394 27.451 13.7028 29.8035C11.9662 32.156 11.3924 35.2461 11.9053 38.8767C12.4187 42.5103 14.0176 46.6501 16.5784 51.0392C21.699 59.816 30.6155 69.504 42.1246 78Z" stroke="url(#paint7_linear_978_3441)"/>
  <defs>
    <linearGradient id="paint0_linear_978_3441" x1="92.3918" y1="84.7326" x2="20.5847" y2="68.4563" gradientUnits="userSpaceOnUse">
      <stop stop-color="#FF6D04"/>
      <stop offset="1" stop-color="#FF6D04" stop-opacity="0.1"/>
    </linearGradient>
    <radialGradient id="paint1_radial_978_3441" cx="0" cy="0" r="1" gradientUnits="userSpaceOnUse" gradientTransform="translate(57.4062 36) rotate(135) scale(7.07107)">
      <stop stop-color="#FF6D04"/>
      <stop offset="0.74" stop-color="#FF6D04" stop-opacity="0.05"/>
    </radialGradient>
    <radialGradient id="paint2_radial_978_3441" cx="0" cy="0" r="1" gradientUnits="userSpaceOnUse" gradientTransform="translate(39.5527 91.168) rotate(135) scale(7.07107)">
      <stop stop-color="#FF6D04"/>
      <stop offset="0.74" stop-color="#FF6D04" stop-opacity="0.05"/>
    </radialGradient>
    <radialGradient id="paint3_radial_978_3441" cx="0" cy="0" r="1" gradientUnits="userSpaceOnUse" gradientTransform="translate(20.4893 26.1484) rotate(135) scale(7.07107)">
      <stop stop-color="#FF6D04"/>
      <stop offset="0.74" stop-color="#FF6D04" stop-opacity="0.05"/>
    </radialGradient>
    <radialGradient id="paint4_radial_978_3441" cx="0" cy="0" r="1" gradientUnits="userSpaceOnUse" gradientTransform="translate(97.8701 87.3379) rotate(135) scale(7.07107)">
      <stop stop-color="#FF6D04"/>
      <stop offset="0.74" stop-color="#FF6D04" stop-opacity="0.05"/>
    </radialGradient>
    <radialGradient id="paint5_radial_978_3441" cx="0" cy="0" r="1" gradientUnits="userSpaceOnUse" gradientTransform="translate(88.2959 10.7441) rotate(135) scale(7.07107)">
      <stop stop-color="#FF6D04"/>
      <stop offset="0.74" stop-color="#FF6D04" stop-opacity="0.05"/>
    </radialGradient>
    <linearGradient id="paint6_linear_978_3441" x1="25.8499" y1="22.9783" x2="99.5718" y2="83.2962" gradientUnits="userSpaceOnUse">
      <stop stop-color="#FF6D04"/>
      <stop offset="0.743577" stop-color="#FF6D04" stop-opacity="0.05"/>
    </linearGradient>
    <linearGradient id="paint7_linear_978_3441" x1="89.9975" y1="26.3284" x2="28.2434" y2="78.5082" gradientUnits="userSpaceOnUse">
      <stop stop-color="#FF6D04"/>
      <stop offset="0.743577" stop-color="#FF6D04" stop-opacity="0.05"/>
    </linearGradient>
  </defs>
</svg>