<svg xmlns="http://www.w3.org/2000/svg" width="114" height="76" viewBox="0 0 114 76" fill="none">
  <circle cx="38" cy="38" r="38" fill="url(#paint0_linear_975_3371)"/>
  <circle cx="76" cy="38" r="38" fill="url(#paint1_linear_975_3371)"/>
  <mask id="mask0_975_3371" style="mask-type:alpha" maskUnits="userSpaceOnUse" x="38" y="5" width="38" height="66">
    <path fill-rule="evenodd" clip-rule="evenodd" d="M57 70.9163C68.3582 64.3459 76 52.0654 76 38C76 23.9347 68.3582 11.6541 57 5.08374C45.6418 11.6541 38 23.9347 38 38C38 52.0654 45.6418 64.3459 57 70.9163Z" fill="black"/>
  </mask>
  <g mask="url(#mask0_975_3371)">
    <line x1="38" y1="66.4987" x2="76" y2="66.4987" stroke="url(#paint2_linear_975_3371)" stroke-width="0.76"/>
    <line x1="38" y1="11.7799" x2="76" y2="11.7799" stroke="url(#paint3_linear_975_3371)" stroke-width="0.76"/>
    <line x1="38" y1="17.86" x2="76" y2="17.86" stroke="url(#paint4_linear_975_3371)" stroke-width="0.76"/>
    <line x1="38" y1="23.9401" x2="76" y2="23.9401" stroke="url(#paint5_linear_975_3371)" stroke-width="0.76"/>
    <line x1="38" y1="30.0199" x2="76" y2="30.0199" stroke="url(#paint6_linear_975_3371)" stroke-width="0.76"/>
    <line x1="38" y1="36.1" x2="76" y2="36.1" stroke="url(#paint7_linear_975_3371)" stroke-width="0.76"/>
    <line x1="38" y1="42.1803" x2="76" y2="42.1803" stroke="url(#paint8_linear_975_3371)" stroke-width="0.76"/>
    <line x1="38" y1="48.2604" x2="76" y2="48.2604" stroke="url(#paint9_linear_975_3371)" stroke-width="0.76"/>
    <line x1="38" y1="54.3385" x2="76" y2="54.3385" stroke="url(#paint10_linear_975_3371)" stroke-width="0.76"/>
    <line x1="38" y1="60.4205" x2="76" y2="60.4205" stroke="url(#paint11_linear_975_3371)" stroke-width="0.76"/>
  </g>
  <defs>
    <linearGradient id="paint0_linear_975_3371" x1="50" y1="113.5" x2="-22" y2="-27.5" gradientUnits="userSpaceOnUse">
      <stop stop-color="#FF6D04"/>
      <stop offset="0.468434" stop-color="#FF6D04" stop-opacity="0.3"/>
      <stop offset="0.928015" stop-color="#FF6D04" stop-opacity="0"/>
    </linearGradient>
    <linearGradient id="paint1_linear_975_3371" x1="114" y1="11.4" x2="51.68" y2="76" gradientUnits="userSpaceOnUse">
      <stop stop-color="#FF6D04"/>
      <stop offset="0.536583" stop-color="#FF6D04" stop-opacity="0.3"/>
      <stop offset="1" stop-color="#FF6D04" stop-opacity="0"/>
    </linearGradient>
    <linearGradient id="paint2_linear_975_3371" x1="76" y1="66.8787" x2="38" y2="66.8787" gradientUnits="userSpaceOnUse">
      <stop stop-color="#EE7726"/>
      <stop offset="1" stop-color="#EE7726"/>
    </linearGradient>
    <linearGradient id="paint3_linear_975_3371" x1="76" y1="12.1599" x2="38" y2="12.1599" gradientUnits="userSpaceOnUse">
      <stop stop-color="#EE7726"/>
      <stop offset="1" stop-color="#EE7726"/>
    </linearGradient>
    <linearGradient id="paint4_linear_975_3371" x1="76" y1="18.24" x2="38" y2="18.24" gradientUnits="userSpaceOnUse">
      <stop stop-color="#EE7726"/>
      <stop offset="1" stop-color="#EE7726"/>
    </linearGradient>
    <linearGradient id="paint5_linear_975_3371" x1="76" y1="24.3201" x2="38" y2="24.3201" gradientUnits="userSpaceOnUse">
      <stop stop-color="#EE7726"/>
      <stop offset="1" stop-color="#EE7726"/>
    </linearGradient>
    <linearGradient id="paint6_linear_975_3371" x1="76" y1="30.3999" x2="38" y2="30.3999" gradientUnits="userSpaceOnUse">
      <stop stop-color="#EE7726"/>
      <stop offset="1" stop-color="#EE7726"/>
    </linearGradient>
    <linearGradient id="paint7_linear_975_3371" x1="76" y1="36.48" x2="38" y2="36.48" gradientUnits="userSpaceOnUse">
      <stop stop-color="#EE7726"/>
      <stop offset="1" stop-color="#EE7726"/>
    </linearGradient>
    <linearGradient id="paint8_linear_975_3371" x1="76" y1="42.5603" x2="38" y2="42.5603" gradientUnits="userSpaceOnUse">
      <stop stop-color="#EE7726"/>
      <stop offset="1" stop-color="#EE7726"/>
    </linearGradient>
    <linearGradient id="paint9_linear_975_3371" x1="76" y1="48.6404" x2="38" y2="48.6404" gradientUnits="userSpaceOnUse">
      <stop stop-color="#EE7726"/>
      <stop offset="1" stop-color="#EE7726"/>
    </linearGradient>
    <linearGradient id="paint10_linear_975_3371" x1="76" y1="54.7185" x2="38" y2="54.7185" gradientUnits="userSpaceOnUse">
      <stop stop-color="#EE7726"/>
      <stop offset="1" stop-color="#EE7726"/>
    </linearGradient>
    <linearGradient id="paint11_linear_975_3371" x1="76" y1="60.8005" x2="38" y2="60.8005" gradientUnits="userSpaceOnUse">
      <stop stop-color="#EE7726"/>
      <stop offset="1" stop-color="#EE7726"/>
    </linearGradient>
  </defs>
</svg>