<svg xmlns="http://www.w3.org/2000/svg" version="1.1" xmlns:xlink="http://www.w3.org/1999/xlink" xmlns:svgjs="http://svgjs.com/svgjs" width="187" height="176"><svg width="187" height="176" viewBox="0 0 187 176" fill="none" xmlns="http://www.w3.org/2000/svg">
  <path d="M186.821 70.5316L186.021 69.0666C185.927 68.8959 185.797 68.7493 185.639 68.6384C185.481 68.5274 185.301 68.455 185.111 68.4269C184.819 68.3614 184.514 68.4111 184.256 68.5659L168.994 77.2167H168.949L168.476 77.4949L153.777 85.8396C153.694 85.8861 153.605 85.9234 153.514 85.9509L153.141 86.0529C152.975 86.0447 152.814 85.9903 152.676 85.8955C152.538 85.8006 152.428 85.6691 152.359 85.5151L151.094 83.1971C150.96 82.9456 150.91 82.656 150.953 82.3729C150.996 82.0898 151.128 81.8289 151.331 81.6301L160.845 76.2153L161.063 76.0948L161.154 76.0392L162.618 75.214C163.101 74.8943 163.439 74.3923 163.558 73.8185C163.677 73.2447 163.568 72.646 163.255 72.1542C162.941 71.6624 162.449 71.3177 161.886 71.196C161.323 71.0743 160.736 71.1855 160.253 71.5052L148.147 78.4035C148.04 78.4628 147.939 78.5343 147.847 78.6168L114.886 97.2998C114.741 97.3832 114.581 97.4364 114.416 97.4564C114.251 97.4764 114.083 97.4627 113.923 97.4161C113.763 97.3695 113.614 97.2909 113.484 97.185C113.354 97.0791 113.246 96.9479 113.166 96.7991L111.857 94.3142C111.693 94.0126 111.653 93.6574 111.745 93.3257C111.837 92.994 112.054 92.7128 112.348 92.5433L140.598 75.5941L157.125 66.2201C157.294 66.1263 157.439 65.9937 157.55 65.8328C157.66 65.672 157.733 65.4872 157.761 65.2929C157.779 65.1731 157.779 65.0511 157.761 64.9313C157.743 64.7773 157.693 64.6289 157.616 64.4956L156.779 63.0584C156.451 62.5577 156.251 62.2147 155.869 61.5471L169.021 54.1295L179.79 48.0193C179.92 47.9467 180.034 47.849 180.127 47.7318C180.298 47.5322 180.405 47.2835 180.433 47.0197C180.461 46.7558 180.408 46.4897 180.281 46.2576L179.472 44.7834C179.309 44.4846 179.036 44.264 178.714 44.1701C178.392 44.0762 178.046 44.1167 177.753 44.2827L170.477 48.3902L168.994 49.2339H168.949L119.451 77.3372C119.293 77.2279 119.162 77.0817 119.069 76.9107L117.505 74.0457C117.423 73.898 117.371 73.7353 117.351 73.5669C117.332 73.3985 117.345 73.2278 117.391 73.0647C117.437 72.9017 117.514 72.7495 117.618 72.6171C117.721 72.4846 117.85 72.3746 117.996 72.2933L135.759 62.2146C135.801 62.1924 135.838 62.1618 135.867 62.1247C135.897 62.0876 135.918 62.0448 135.931 61.9988C135.944 61.9528 135.947 61.9047 135.941 61.8573C135.935 61.81 135.92 61.7643 135.896 61.7232L134.595 59.3496C134.486 59.1456 134.368 58.9602 134.277 58.8026C134.234 58.7313 134.165 58.6799 134.085 58.6592C134.005 58.6385 133.921 58.65 133.849 58.6913L127.392 62.3445C127.247 62.4279 127.087 62.4811 126.922 62.5011C126.757 62.5211 126.589 62.5073 126.429 62.4608C126.269 62.4142 126.12 62.3356 125.99 62.2297C125.86 62.1238 125.752 61.9926 125.673 61.8438L124.108 58.9787C124.001 58.785 123.944 58.5662 123.944 58.3436C123.944 58.121 124.001 57.9022 124.108 57.7085L159.435 37.6718L159.699 37.5234C159.898 37.4158 160.062 37.2515 160.171 37.0505C160.283 36.8549 160.342 36.6326 160.342 36.4061C160.342 36.1797 160.283 35.9573 160.171 35.7617L159.153 33.7961C159.049 33.6011 158.897 33.437 158.712 33.32C158.527 33.2029 158.315 33.1369 158.098 33.1285C157.863 33.1173 157.631 33.1718 157.425 33.2861L154.696 34.8438L137.879 44.3754C137.665 44.3648 137.458 44.2987 137.276 44.1835C137.095 44.0683 136.945 43.9077 136.842 43.7171L136.041 42.2428C135.89 41.9695 135.841 41.6491 135.905 41.3417C135.968 41.0344 136.14 40.7614 136.387 40.5739L156.57 29.1045L156.715 29.0117C156.96 28.8246 157.13 28.5533 157.194 28.2481C157.257 27.9428 157.21 27.6245 157.061 27.3521L155.715 24.8764C155.715 24.8115 155.624 24.7466 155.578 24.6817C155.39 24.4489 155.128 24.2907 154.837 24.2348C154.546 24.1789 154.245 24.2288 153.987 24.3758L98.5138 55.8448C98.4583 55.7879 98.4122 55.7221 98.3774 55.6501L97.0222 53.1838C96.8609 52.8817 96.822 52.5272 96.9138 52.1963C97.0056 51.8653 97.2208 51.5841 97.5133 51.4128L125.573 35.465C125.779 35.2822 125.92 35.0342 125.973 34.7604C126.022 34.4925 125.974 34.2153 125.836 33.9815C125.789 33.9235 125.746 33.8615 125.709 33.7961L125.536 33.4716L124.463 31.6821C124.29 31.3761 124.026 31.0423 124.29 30.9218L124.536 30.7734L152.786 14.1766C152.947 14.0869 153.085 13.9609 153.191 13.8083C153.297 13.6556 153.367 13.4803 153.395 13.2958C153.445 13.0065 153.386 12.7089 153.232 12.4613L151.813 10.1062C151.637 9.81562 151.358 9.60641 151.033 9.52326C150.708 9.44011 150.365 9.48959 150.076 9.66115L81.842 49.7717C81.7318 49.834 81.6333 49.9156 81.5509 50.0127L70.8274 56.0952C70.5388 56.2602 70.1987 56.3051 69.8783 56.2204C69.5579 56.1357 69.2821 55.9281 69.1084 55.6408L67.7441 53.1189C67.602 52.8525 67.5552 52.5441 67.6116 52.2464C67.668 51.9487 67.8242 51.6802 68.0533 51.487L126.137 18.553L136.141 12.9063C136.288 12.8242 136.417 12.7132 136.521 12.5799C136.625 12.4467 136.702 12.2937 136.747 12.1299C136.793 11.9661 136.806 11.7947 136.787 11.6256C136.767 11.4565 136.715 11.293 136.633 11.1447L135.341 8.27036C135.234 8.07198 135.078 7.90583 134.888 7.78864C134.698 7.67144 134.481 7.60734 134.259 7.60278C134.039 7.60428 133.823 7.66165 133.631 7.76967L93.2021 30.7178C92.9801 30.7132 92.7631 30.6491 92.5731 30.5319C92.3831 30.4147 92.2268 30.2486 92.1198 30.0502L90.8555 27.8249C90.7722 27.6769 90.7188 27.5134 90.6985 27.344C90.6781 27.1746 90.6912 27.0028 90.737 26.8386C90.7827 26.6745 90.8603 26.5213 90.965 26.3881C91.0697 26.255 91.1994 26.1445 91.3466 26.0633L101.852 20.1292C101.889 20.1108 101.921 20.084 101.947 20.051C101.972 20.0179 101.99 19.9794 101.999 19.9384C102.007 19.8974 102.007 19.8548 101.997 19.814C101.988 19.7732 101.969 19.7351 101.943 19.7027L101.734 19.3782L100.515 17.1993C100.354 16.8986 100.315 16.5455 100.407 16.2161C100.499 15.8867 100.714 15.6071 101.006 15.4376L110.001 10.338C110.156 10.2481 110.285 10.118 110.375 9.96085C110.465 9.80368 110.512 9.6251 110.512 9.44326C110.512 9.26143 110.465 9.08284 110.375 8.92567C110.285 8.76851 110.156 8.63837 110.001 8.54852L97.5952 1.24221C96.2125 0.428423 94.6441 0 93.0475 0C91.4509 0 89.8825 0.428423 88.4998 1.24221L21.6214 40.6295C20.2403 41.4358 19.0926 42.5994 18.294 44.0028C17.4955 45.4062 17.0745 46.9996 17.0737 48.622V90.6147C17.0725 90.7999 17.1192 90.9821 17.2089 91.1432C17.2986 91.3042 17.4282 91.4384 17.5848 91.5323C17.7414 91.6262 17.9194 91.6765 18.1011 91.6782C18.2827 91.6799 18.4616 91.6329 18.6199 91.5419L27.7153 86.3959C27.8608 86.3123 28.0211 86.2589 28.187 86.2388C28.3529 86.2187 28.5211 86.2324 28.6817 86.2789C28.8424 86.3255 28.9925 86.404 29.1232 86.5101C29.2539 86.6161 29.3628 86.7475 29.4434 86.8966L30.2438 88.3709C30.407 88.6711 30.447 89.0249 30.3549 89.355C30.2629 89.6852 30.0463 89.9647 29.7526 90.1325L17.9286 96.8362C17.6693 96.9833 17.4533 97.1984 17.303 97.4593C17.1527 97.7201 17.0735 98.0172 17.0737 98.3197V104.569L7.39616 110.077C7.12948 110.208 6.8919 110.393 6.698 110.621C6.5041 110.849 6.35796 111.115 6.26855 111.403C6.17914 111.691 6.14834 111.994 6.17804 112.295C6.20774 112.595 6.29732 112.886 6.44128 113.15C6.58524 113.413 6.78054 113.644 7.01521 113.829C7.24988 114.013 7.51896 114.146 7.80596 114.22C8.09296 114.294 8.39182 114.308 8.6842 114.261C8.97659 114.213 9.25634 114.105 9.50629 113.943L17.11 109.641L25.3596 105.005C25.654 104.838 26.0012 104.798 26.325 104.891C26.6489 104.985 26.9231 105.206 27.0877 105.505L27.8972 106.98C28.0597 107.281 28.0983 107.636 28.0045 107.966C27.9107 108.296 27.6922 108.575 27.3969 108.741L17.11 114.564C17.0646 114.564 17.0646 114.564 17.0646 114.648V121.407C17.0646 121.537 17.11 121.546 17.201 121.481L54.4011 100.406C54.6956 100.239 55.0427 100.199 55.3666 100.293C55.6905 100.386 55.9647 100.607 56.1293 100.907L56.9297 102.381C57.0929 102.681 57.1329 103.035 57.0408 103.365C56.9488 103.695 56.7322 103.975 56.4385 104.142L17.1191 126.423L1.22948 135.491C0.952375 135.651 0.708919 135.865 0.513013 136.121C0.317107 136.377 0.172588 136.67 0.0877069 136.983C0.00282604 137.296 -0.0207542 137.623 0.0183126 137.945C0.0573793 138.268 0.158328 138.579 0.315395 138.861C0.472461 139.144 0.68257 139.392 0.933725 139.592C1.18488 139.791 1.47216 139.939 1.77917 140.025C2.08618 140.112 2.40689 140.136 2.72301 140.096C3.03913 140.056 3.34446 139.953 3.62157 139.793L30.6895 124.467C30.835 124.383 30.9953 124.33 31.1612 124.31C31.3271 124.289 31.4952 124.303 31.6559 124.35C31.8166 124.396 31.9667 124.475 32.0974 124.581C32.2281 124.687 32.337 124.818 32.4176 124.967L33.218 126.442C33.3 126.59 33.3524 126.753 33.3721 126.922C33.3918 127.092 33.3784 127.263 33.3328 127.427C33.2871 127.591 33.21 127.744 33.106 127.877C33.002 128.01 32.8731 128.121 32.7268 128.203L21.4031 134.629C21.354 134.658 21.3134 134.7 21.2852 134.751C21.257 134.801 21.2421 134.858 21.2421 134.916C21.2421 134.974 21.257 135.031 21.2852 135.082C21.3134 135.132 21.354 135.174 21.4031 135.204L21.7032 135.389L25.405 137.568C25.5876 137.67 25.7925 137.724 26.0008 137.724C26.2091 137.724 26.414 137.67 26.5965 137.568L47.043 125.922C47.3385 125.757 47.6865 125.717 48.0105 125.813C48.3345 125.909 48.608 126.131 48.7711 126.432L49.5715 127.897C49.7351 128.199 49.7754 128.554 49.6834 128.886C49.5914 129.217 49.3747 129.499 49.0803 129.668L31.1715 139.821C31.0692 139.879 30.9838 139.963 30.9244 140.066C30.865 140.169 30.8337 140.286 30.8337 140.405C30.8337 140.524 30.865 140.641 30.9244 140.744C30.9838 140.847 31.0692 140.932 31.1715 140.989L88.5453 174.758C89.9279 175.572 91.4964 176 93.093 176C94.6895 176 96.258 175.572 97.6407 174.758L164.51 135.38C165.891 134.573 167.039 133.41 167.837 132.006C168.636 130.603 169.057 129.01 169.058 127.387V100.499C169.057 100.41 169.033 100.323 168.99 100.245C168.947 100.168 168.884 100.104 168.81 100.058C168.735 100.013 168.65 99.9876 168.563 99.9851C168.475 99.9826 168.389 100.003 168.312 100.044L163.764 102.631C163.469 102.797 163.121 102.836 162.797 102.741C162.473 102.645 162.199 102.422 162.036 102.121L160.835 99.9145C160.754 99.7668 160.701 99.6041 160.682 99.4357C160.662 99.2673 160.676 99.0966 160.721 98.9335C160.767 98.7705 160.844 98.6183 160.948 98.4858C161.052 98.3534 161.181 98.2433 161.327 98.1621L168.603 94.0268C168.739 93.9467 168.853 93.832 168.932 93.6938C169.012 93.5557 169.055 93.3989 169.058 93.2387V89.3815C169.058 89.2889 169.035 89.1978 168.99 89.1173C168.945 89.0368 168.88 88.9697 168.802 88.9227C168.724 88.8758 168.635 88.8506 168.544 88.8498C168.453 88.8489 168.364 88.8724 168.285 88.9179L137.597 106.303C137.302 106.467 136.955 106.506 136.632 106.413C136.309 106.319 136.035 106.1 135.869 105.802L134.668 103.595C134.586 103.447 134.534 103.284 134.514 103.115C134.494 102.945 134.508 102.774 134.553 102.61C134.599 102.446 134.676 102.293 134.78 102.16C134.884 102.027 135.013 101.916 135.159 101.834L169.094 82.103L186.33 72.3304C186.481 72.2483 186.614 72.1358 186.722 71.9996C186.829 71.8635 186.908 71.7065 186.954 71.5383C187 71.3701 187.012 71.1941 186.989 71.0211C186.966 70.848 186.909 70.6815 186.821 70.5316Z" fill="url(#paint0_linear_1390_1703)"></path>
  <path d="M166.283 36.9113C166.555 37.4063 167.008 37.7713 167.544 37.926C168.079 38.0807 168.653 38.0126 169.139 37.7365L181.372 30.801C181.648 30.6866 181.897 30.5137 182.102 30.2937C182.308 30.0737 182.465 29.8118 182.563 29.5252C182.662 29.2387 182.699 28.934 182.674 28.6315C182.648 28.329 182.559 28.0356 182.414 27.7706C182.268 27.5057 182.069 27.2754 181.83 27.0949C181.59 26.9144 181.316 26.7878 181.024 26.7237C180.733 26.6595 180.432 26.6592 180.141 26.7227C179.85 26.7863 179.575 26.9122 179.335 27.0922L167.093 34.0277C166.607 34.3047 166.249 34.7669 166.097 35.3127C165.945 35.8585 166.012 36.4435 166.283 36.9391V36.9113Z" fill="url(#paint1_linear_1390_1703)"></path>
  <path d="M144.726 51.6885C144.45 51.8029 144.202 51.9758 143.996 52.1958C143.791 52.4157 143.634 52.6777 143.535 52.9643C143.437 53.2508 143.399 53.5555 143.425 53.858C143.451 54.1605 143.54 54.4539 143.685 54.7188C143.831 54.9838 144.03 55.2141 144.269 55.3946C144.509 55.5751 144.783 55.7017 145.074 55.7658C145.365 55.83 145.667 55.8303 145.958 55.7667C146.249 55.7032 146.524 55.5773 146.764 55.3972L161.607 46.9783C162.02 46.6688 162.307 46.2163 162.416 45.7059C162.524 45.1956 162.445 44.6625 162.195 44.2069C161.945 43.7513 161.54 43.4046 161.057 43.232C160.573 43.0594 160.045 43.0727 159.57 43.2695L144.726 51.6885Z" fill="url(#paint2_linear_1390_1703)"></path>
  <defs>
    <linearGradient id="SvgjsLinearGradient1002" x1="163.254" y1="23.4667" x2="157.778" y2="177.372" gradientUnits="userSpaceOnUse">
      <stop stop-color="#94BBDF"></stop>
      <stop offset="1" stop-color="#FF6D04"></stop>
    </linearGradient>
    <linearGradient id="SvgjsLinearGradient1001" x1="163.254" y1="23.4667" x2="157.778" y2="177.372" gradientUnits="userSpaceOnUse">
      <stop stop-color="#94BBDF"></stop>
      <stop offset="1" stop-color="#FF6D04"></stop>
    </linearGradient>
    <linearGradient id="SvgjsLinearGradient1000" x1="163.254" y1="23.4667" x2="157.778" y2="177.372" gradientUnits="userSpaceOnUse">
      <stop stop-color="#94BBDF"></stop>
      <stop offset="1" stop-color="#FF6D04"></stop>
    </linearGradient>
  </defs>
</svg><style>@media (prefers-color-scheme: light) { :root { filter: none; } }</style></svg>