<svg xmlns="http://www.w3.org/2000/svg" width="126" height="28" viewBox="0 0 126 28" fill="none">
  <path d="M116.489 8.54387L115.639 8.04344C115.59 8.01496 115.534 8 115.477 8C115.42 8 115.364 8.01496 115.314 8.04344L114.464 8.54387C114.414 8.5728 114.373 8.61462 114.345 8.66506C114.316 8.7155 114.301 8.77275 114.301 8.83097V9.82785C114.301 9.88602 114.316 9.9432 114.345 9.9936C114.373 10.044 114.414 10.0859 114.464 10.1149L115.314 10.6134C115.363 10.6428 115.42 10.6584 115.477 10.6584C115.534 10.6584 115.59 10.6428 115.639 10.6134L116.489 10.1149C116.539 10.0859 116.58 10.044 116.609 9.9936C116.637 9.9432 116.652 9.88602 116.652 9.82785V8.83097C116.652 8.77275 116.637 8.7155 116.609 8.66506C116.58 8.61462 116.539 8.5728 116.489 8.54387Z" fill="#FF6D04"/>
  <path d="M42.3541 8.30274C42.2204 8.30248 42.088 8.32905 41.9645 8.38093C41.8409 8.43282 41.7286 8.50899 41.634 8.60511C41.5393 8.70122 41.4643 8.81538 41.4131 8.94105C41.3618 9.06672 41.3355 9.20144 41.3355 9.3375V16.4572C41.3359 16.4887 41.3262 16.5194 41.308 16.5448C41.2897 16.5703 41.2639 16.589 41.2343 16.5982C41.2048 16.6074 41.1731 16.6066 41.144 16.5959C41.1149 16.5852 41.09 16.5652 41.073 16.5389L36.0699 9.13812C35.8948 8.87996 35.6607 8.66902 35.3877 8.52349C35.1147 8.37795 34.811 8.30219 34.5028 8.30274C34.2461 8.30274 34 8.40651 33.8185 8.59121C33.637 8.77592 33.5351 9.02644 33.5351 9.28765V19.3442C33.5351 19.6186 33.6422 19.8818 33.8328 20.0758C34.0235 20.2699 34.2821 20.3789 34.5517 20.3789C34.8214 20.3789 35.08 20.2699 35.2706 20.0758C35.4613 19.8818 35.5684 19.6186 35.5684 19.3442V12.3281C35.5685 12.2899 35.5806 12.2527 35.6029 12.222C35.6252 12.1913 35.6565 12.1686 35.6924 12.1572C35.7282 12.1459 35.7667 12.1465 35.8022 12.1589C35.8377 12.1714 35.8683 12.195 35.8897 12.2264L41.0123 19.8027C41.1319 19.9793 41.292 20.1237 41.4787 20.2234C41.6653 20.323 41.873 20.3751 42.0838 20.3749H42.3208C42.5983 20.3749 42.8643 20.2628 43.0605 20.0631C43.2567 19.8634 43.3669 19.5926 43.3669 19.3103V9.34148C43.3674 9.2056 43.3416 9.07094 43.291 8.94519C43.2404 8.81945 43.1659 8.70508 43.0719 8.60863C42.9778 8.51217 42.866 8.43551 42.7429 8.38303C42.6197 8.33054 42.4876 8.30326 42.3541 8.30274Z" fill="white"/>
  <path d="M71.7849 8.43604H63.5457C63.3119 8.43604 63.0877 8.53056 62.9224 8.69882C62.7571 8.86707 62.6642 9.09528 62.6642 9.33323C62.6642 9.57117 62.7571 9.79938 62.9224 9.96763C63.0877 10.1359 63.3119 10.2304 63.5457 10.2304H66.6486V19.8244C66.6486 20.0073 66.72 20.1828 66.8471 20.3122C66.9743 20.4415 67.1467 20.5142 67.3264 20.5142H68.0473C68.2156 20.5142 68.3771 20.4461 68.4961 20.325C68.6151 20.2039 68.682 20.0396 68.682 19.8682V10.2304H71.7849C72.0187 10.2304 72.2429 10.1359 72.4082 9.96763C72.5736 9.79938 72.6664 9.57117 72.6664 9.33323C72.6664 9.09528 72.5736 8.86707 72.4082 8.69882C72.2429 8.53056 72.0187 8.43604 71.7849 8.43604Z" fill="white"/>
  <path d="M52.5581 17.9881V14.3475C52.5716 13.8231 52.4823 13.3012 52.2956 12.8123C52.1365 12.4093 51.8837 12.0515 51.5591 11.7696C51.2244 11.4888 50.8342 11.2848 50.4151 11.1714C49.926 11.0367 49.4213 10.9696 48.9145 10.9721C48.4102 10.9659 47.9076 11.0331 47.4218 11.1714C47.0158 11.2874 46.6341 11.4779 46.2955 11.7337C45.9954 11.9618 45.7469 12.2528 45.5668 12.587C45.3897 12.9195 45.288 13.288 45.269 13.6656H47.083C47.1021 13.511 47.1548 13.3627 47.2371 13.2314C47.3194 13.1 47.4293 12.9889 47.559 12.906C47.8293 12.7226 48.2531 12.6309 48.8303 12.6309C49.4728 12.6309 49.9443 12.7598 50.2447 13.0177C50.545 13.2755 50.6952 13.75 50.6952 14.4412V14.9416H47.8979C46.8701 14.9416 46.0898 15.1629 45.557 15.6056C45.0241 16.0482 44.759 16.724 44.7616 17.6332C44.7549 18.0219 44.8214 18.4084 44.9575 18.7716C45.0895 19.1122 45.2897 19.4211 45.5452 19.6788C45.8197 19.9444 46.1461 20.1482 46.5031 20.2769C46.9193 20.4268 47.3585 20.4997 47.7999 20.4922C48.475 20.5145 49.1442 20.3571 49.7412 20.0357C50.2089 19.7886 50.595 19.4073 50.8519 18.9391C50.8519 19.2143 50.8519 19.4455 50.8774 19.629V19.6469C50.894 19.8262 50.9756 19.9927 51.1064 20.114C51.2371 20.2353 51.4076 20.3026 51.5846 20.3028H51.8647C51.9622 20.3022 52.0585 20.2814 52.1478 20.2415C52.237 20.2016 52.3174 20.1435 52.3838 20.0709C52.4502 19.9983 52.5013 19.9126 52.534 19.8191C52.5667 19.7256 52.5802 19.6263 52.5738 19.5273C52.5738 19.4329 52.5699 19.3372 52.5621 19.2402C52.5594 18.8906 52.5581 18.4732 52.5581 17.9881ZM50.6952 16.8676C50.7002 17.1641 50.6329 17.4573 50.4993 17.7209C50.3734 17.9641 50.1969 18.1764 49.9822 18.343C49.7555 18.5149 49.4999 18.6433 49.228 18.7218C48.9333 18.8087 48.6278 18.8524 48.321 18.8514C47.7451 18.8514 47.3239 18.7377 47.0575 18.5065C46.9284 18.3941 46.8261 18.2533 46.7582 18.0948C46.6903 17.9362 46.6587 17.7641 46.6657 17.5913C46.6556 17.4142 46.69 17.2374 46.7658 17.0776C46.8415 16.9178 46.9561 16.7803 47.0986 16.6782C47.4388 16.4557 47.8388 16.3469 48.2426 16.3672H50.7011L50.6952 16.8676Z" fill="white"/>
  <path d="M59.0304 10.9842C58.3659 10.954 57.7086 11.1352 57.1498 11.5026C56.7015 11.8031 56.3387 12.2184 56.0979 12.7068V12.0528C56.0873 11.8266 55.9916 11.6133 55.8305 11.457C55.6695 11.3007 55.4555 11.2135 55.233 11.2135C55.0105 11.2135 54.7966 11.3007 54.6355 11.457C54.4745 11.6133 54.3787 11.8266 54.3682 12.0528V19.5932C54.3682 19.7857 54.4433 19.9703 54.577 20.1064C54.7107 20.2425 54.8921 20.319 55.0812 20.319H55.52C55.7091 20.319 55.8905 20.2425 56.0242 20.1064C56.1579 19.9703 56.2331 19.7857 56.2331 19.5932V14.9697C56.2328 14.6745 56.2757 14.3808 56.3604 14.0984C56.4407 13.8269 56.574 13.5747 56.7522 13.3568C56.9386 13.1361 57.1698 12.9592 57.43 12.8384C57.7479 12.6978 58.0923 12.6298 58.4388 12.639C59.1616 12.639 59.6827 12.8384 60.0059 13.2252C60.3292 13.612 60.482 14.1961 60.482 14.9677V19.5912C60.482 19.7837 60.5571 19.9683 60.6908 20.1044C60.8245 20.2405 61.0059 20.317 61.195 20.317H61.6338C61.8229 20.317 62.0043 20.2405 62.138 20.1044C62.2717 19.9683 62.3468 19.7837 62.3468 19.5912V14.5391C62.3468 13.376 62.07 12.4928 61.5163 11.8894C60.9625 11.2859 60.1339 10.9842 59.0304 10.9842Z" fill="white"/>
  <path d="M78.5275 11.1677C78.1813 11.1626 77.8361 11.2089 77.503 11.3053C77.2226 11.3887 76.9544 11.5101 76.7057 11.6662C76.483 11.8079 76.2845 11.9857 76.1181 12.1925C75.9657 12.382 75.8344 12.5879 75.7263 12.8066V9.37334C75.7263 9.12165 75.628 8.88026 75.4532 8.70228C75.2783 8.5243 75.0411 8.42432 74.7938 8.42432C74.5465 8.42432 74.3094 8.5243 74.1345 8.70228C73.9596 8.88026 73.8614 9.12165 73.8614 9.37334V19.7748C73.8614 19.9672 73.9365 20.1518 74.0702 20.2879C74.204 20.424 74.3853 20.5005 74.5744 20.5005H75.0172C75.2063 20.5005 75.3876 20.424 75.5214 20.2879C75.6551 20.1518 75.7302 19.9672 75.7302 19.7748V15.1532C75.7293 14.8581 75.7715 14.5644 75.8556 14.282C75.9356 14.0097 76.0688 13.7568 76.2474 13.5383C76.433 13.3173 76.6645 13.141 76.9251 13.0219C77.243 12.8812 77.5874 12.8131 77.934 12.8225C78.6562 12.8225 79.1786 13.0219 79.5011 13.4207C79.8237 13.8194 79.9817 14.4003 79.9752 15.1632V19.7847C79.9752 19.9772 80.0503 20.1618 80.184 20.2979C80.3177 20.434 80.4991 20.5105 80.6882 20.5105H81.127C81.3161 20.5105 81.4975 20.434 81.6312 20.2979C81.7649 20.1618 81.8401 19.9772 81.8401 19.7847V14.7206C81.8401 13.5602 81.5632 12.6777 81.0095 12.0729C80.4558 11.4681 79.6285 11.1664 78.5275 11.1677Z" fill="white"/>
  <path d="M87.4935 11.1676C86.9394 11.1639 86.3888 11.2569 85.8656 11.4427C85.3636 11.6224 84.9044 11.9077 84.5179 12.2801C84.1148 12.6719 83.8 13.1481 83.5952 13.6757C83.3545 14.3112 83.2387 14.9886 83.2544 15.6695V16.0144C83.2388 16.7233 83.3599 17.4284 83.6109 18.0899C83.8239 18.64 84.1506 19.1371 84.5688 19.5473C84.9699 19.9325 85.4466 20.2267 85.9675 20.4106C86.5125 20.6019 87.0855 20.6977 87.662 20.6938C88.5683 20.7218 89.4626 20.4762 90.2321 19.988C90.7165 19.6691 91.0981 19.2122 91.3291 18.6741C91.3638 18.5912 91.3777 18.5008 91.3696 18.4111C91.3615 18.3213 91.3317 18.235 91.2828 18.1599C91.2338 18.0848 91.1673 18.0233 91.0893 17.9808C91.0112 17.9383 90.924 17.9162 90.8354 17.9165H90.0362C89.9409 17.9178 89.8476 17.9447 89.7658 17.9944C89.6839 18.0441 89.6164 18.1149 89.57 18.1996C89.4476 18.4114 89.2795 18.5921 89.0783 18.7279C88.7792 18.9353 88.3071 19.0389 87.662 19.0389C87.3493 19.0395 87.0383 18.9925 86.7393 18.8994C86.4362 18.8119 86.1565 18.6556 85.9214 18.4421C85.6862 18.2287 85.5017 17.9638 85.3818 17.6672C85.2305 17.2873 85.1533 16.881 85.1545 16.471H91.7306V15.498C91.7306 14.1064 91.3663 13.0364 90.6376 12.2881C89.9088 11.5398 88.8608 11.1663 87.4935 11.1676ZM85.1545 15.0494C85.1542 14.6951 85.2291 14.3449 85.3739 14.0226C85.498 13.7541 85.681 13.5181 85.9087 13.3328C86.1326 13.1472 86.3922 13.0114 86.6708 12.9341C86.9664 12.8527 87.2714 12.8118 87.5777 12.8124C87.8778 12.8112 88.177 12.846 88.469 12.9161C88.739 12.9776 88.99 13.1058 89.1998 13.2894C89.4096 13.473 89.5717 13.7063 89.6718 13.9688C89.8013 14.3104 89.8677 14.6733 89.8677 15.0395L85.1545 15.0494Z" fill="white"/>
  <path d="M98.0305 11.2017C97.8194 11.1743 97.6066 11.163 97.3939 11.1678C96.8386 11.1491 96.2948 11.3321 95.8601 11.6842C95.4624 12.0051 95.1544 12.4265 94.9668 12.9064V12.2365C94.9562 12.0103 94.8605 11.7969 94.6994 11.6406C94.5384 11.4843 94.3244 11.3971 94.1019 11.3971C93.8794 11.3971 93.6654 11.4843 93.5044 11.6406C93.3434 11.7969 93.2476 12.0103 93.2371 12.2365V19.7749C93.2371 19.9673 93.3122 20.1519 93.4459 20.288C93.5796 20.4241 93.761 20.5006 93.9501 20.5006H94.3889C94.578 20.5006 94.7594 20.4241 94.8931 20.288C95.0268 20.1519 95.102 19.9673 95.102 19.7749V15.1533C95.1017 14.8581 95.1446 14.5644 95.2293 14.2821C95.3104 14.0103 95.4436 13.7576 95.6211 13.5384C95.7984 13.3194 96.0212 13.143 96.2734 13.022C96.5735 12.8817 96.9012 12.8135 97.2313 12.8226C97.4241 12.8207 97.6168 12.8354 97.8072 12.8665L97.9052 12.8864C97.9563 12.8967 98.009 12.8954 98.0596 12.8825C98.1102 12.8697 98.1573 12.8456 98.1977 12.8121C98.2381 12.7786 98.2708 12.7365 98.2933 12.6887C98.3159 12.6409 98.3278 12.5886 98.3283 12.5355V11.5526C98.3282 11.4675 98.2982 11.3852 98.2435 11.3208C98.1888 11.2564 98.1133 11.2141 98.0305 11.2017Z" fill="white"/>
  <path d="M109.461 11.1676C108.88 11.1545 108.309 11.3229 107.825 11.6501C107.36 11.9658 106.983 12.3984 106.73 12.9062C106.583 12.4022 106.28 11.9601 105.866 11.6461C105.449 11.3231 104.867 11.1636 104.121 11.1636C103.838 11.1616 103.558 11.2081 103.29 11.3012C103.033 11.3907 102.79 11.5183 102.569 11.68C102.35 11.8397 102.153 12.028 101.982 12.2403C101.82 12.4438 101.684 12.6676 101.578 12.9062V12.2363C101.568 12.0101 101.472 11.7967 101.311 11.6404C101.15 11.4841 100.936 11.3969 100.713 11.3969C100.491 11.3969 100.277 11.4841 100.116 11.6404C99.9547 11.7967 99.859 12.0101 99.8484 12.2363V19.7747C99.8484 19.9671 99.9235 20.1517 100.057 20.2878C100.191 20.4239 100.372 20.5004 100.561 20.5004H101C101.189 20.5004 101.371 20.4239 101.504 20.2878C101.638 20.1517 101.713 19.9671 101.713 19.7747V15.0654C101.689 14.4927 101.846 13.9273 102.162 13.4525C102.462 13.0338 102.916 12.8224 103.533 12.8224C103.76 12.8116 103.986 12.8518 104.195 12.94C104.405 13.0282 104.593 13.1623 104.746 13.3328C105.043 13.6718 105.194 14.25 105.194 15.0654V19.7747C105.194 19.9671 105.269 20.1517 105.403 20.2878C105.537 20.4239 105.718 20.5004 105.907 20.5004H106.346C106.535 20.5004 106.717 20.4239 106.85 20.2878C106.984 20.1517 107.059 19.9671 107.059 19.7747V15.0654C107.035 14.4927 107.192 13.9273 107.508 13.4525C107.808 13.0338 108.262 12.8224 108.879 12.8224C109.104 12.8131 109.328 12.854 109.536 12.9421C109.744 13.0303 109.93 13.1637 110.082 13.3328C110.38 13.6718 110.53 14.25 110.53 15.0654V19.7747C110.53 19.9671 110.606 20.1517 110.739 20.2878C110.873 20.4239 111.054 20.5004 111.243 20.5004H111.682C111.871 20.5004 112.053 20.4239 112.186 20.2878C112.32 20.1517 112.395 19.9671 112.395 19.7747V14.6348C112.395 13.4505 112.141 12.5765 111.633 12.013C111.125 11.4494 110.401 11.1676 109.461 11.1676Z" fill="white"/>
  <path d="M115.426 11.3569C115.303 11.3569 115.182 11.3815 115.068 11.4294C114.955 11.4772 114.852 11.5473 114.766 11.6356C114.679 11.7239 114.61 11.8288 114.564 11.9442C114.517 12.0595 114.493 12.1832 114.493 12.308V19.7766C114.493 19.969 114.568 20.1536 114.702 20.2897C114.836 20.4258 115.017 20.5023 115.206 20.5023H115.643C115.832 20.5023 116.014 20.4258 116.147 20.2897C116.281 20.1536 116.356 19.969 116.356 19.7766V12.308C116.357 12.1833 116.333 12.0599 116.286 11.9446C116.239 11.8294 116.171 11.7246 116.085 11.6363C115.998 11.548 115.895 11.4779 115.782 11.4299C115.669 11.382 115.548 11.3572 115.426 11.3569Z" fill="white"/>
  <path d="M125.877 19.3697L123.424 15.6693L125.522 12.6786C125.601 12.5908 125.662 12.4868 125.698 12.3736C125.735 12.2603 125.748 12.1403 125.736 12.0217C125.724 11.903 125.687 11.7883 125.628 11.6852C125.569 11.5821 125.489 11.493 125.393 11.4238C125.298 11.3545 125.189 11.3067 125.074 11.2836C124.959 11.2604 124.841 11.2624 124.726 11.2895C124.612 11.3165 124.505 11.368 124.412 11.4404C124.319 11.5129 124.242 11.6046 124.186 11.7097L122.282 14.4272L120.333 11.7097C120.256 11.6024 120.155 11.5151 120.039 11.4549C119.922 11.3946 119.793 11.3631 119.663 11.3628H119.587C119.435 11.3626 119.286 11.4051 119.156 11.4854C119.026 11.5658 118.921 11.6811 118.851 11.8185C118.781 11.9559 118.75 12.1101 118.761 12.2643C118.772 12.4185 118.824 12.5667 118.913 12.6926L121.052 15.739L118.589 19.3617C118.515 19.4707 118.472 19.5982 118.464 19.7305C118.456 19.8627 118.484 19.9947 118.545 20.112C118.605 20.2292 118.696 20.3274 118.808 20.3959C118.919 20.4643 119.047 20.5004 119.177 20.5001H119.502C119.619 20.4992 119.733 20.4693 119.836 20.413C119.938 20.3567 120.025 20.2757 120.09 20.1771L122.202 16.9473L124.28 20.1732C124.344 20.2725 124.431 20.3542 124.534 20.4112C124.636 20.4683 124.751 20.4988 124.868 20.5001H125.277C125.407 20.5022 125.536 20.4679 125.648 20.4009C125.76 20.3339 125.852 20.2368 125.914 20.1202C125.976 20.0036 126.005 19.8719 125.999 19.7396C125.992 19.6072 125.95 19.4793 125.877 19.3697Z" fill="white"/>
  <path d="M29.2509 11.0256L29.1256 10.7966C29.111 10.7699 29.0905 10.747 29.0658 10.7296C29.0411 10.7123 29.0128 10.701 28.9832 10.6966C28.9374 10.6863 28.8896 10.6941 28.8493 10.7183L26.4597 12.0706H26.4526L26.3785 12.1141L24.0772 13.4186C24.0641 13.4258 24.0502 13.4317 24.0359 13.436L23.9775 13.4519C23.9515 13.4506 23.9263 13.4421 23.9047 13.4273C23.8831 13.4125 23.8659 13.3919 23.855 13.3678L23.6571 13.0055C23.636 12.9662 23.6283 12.9209 23.635 12.8766C23.6416 12.8324 23.6624 12.7916 23.6941 12.7605L25.1837 11.9141L25.2179 11.8952L25.2321 11.8865L25.4614 11.7575C25.5369 11.7076 25.5899 11.6291 25.6086 11.5394C25.6273 11.4497 25.6102 11.3561 25.5611 11.2792C25.512 11.2024 25.4349 11.1485 25.3468 11.1294C25.2586 11.1104 25.1667 11.1278 25.0911 11.1778L23.1957 12.2561C23.1788 12.2654 23.1631 12.2766 23.1487 12.2895L23.0362 12.3532L17.9878 15.21C17.9651 15.2231 17.9401 15.2314 17.9143 15.2345C17.8884 15.2376 17.8622 15.2355 17.8372 15.2282C17.8121 15.2209 17.7887 15.2086 17.7684 15.1921C17.7481 15.1755 17.7312 15.155 17.7187 15.1318L17.5136 14.7433C17.488 14.6962 17.4817 14.6406 17.4961 14.5888C17.5105 14.5369 17.5444 14.493 17.5905 14.4665L22.0137 11.817L24.6013 10.3516C24.6278 10.3369 24.6505 10.3162 24.6678 10.2911C24.6851 10.2659 24.6965 10.237 24.7009 10.2067C24.7038 10.1879 24.7038 10.1689 24.7009 10.1501C24.6981 10.1261 24.6903 10.1029 24.6782 10.082L24.5471 9.85737C24.4959 9.7791 24.4645 9.72547 24.4047 9.62112L26.464 8.46159L28.1501 7.50643C28.1703 7.49508 28.1882 7.47982 28.2028 7.4615C28.2296 7.4303 28.2463 7.39142 28.2507 7.35017C28.255 7.30893 28.2467 7.26732 28.227 7.23105L28.1002 7.00059C28.0747 6.95389 28.032 6.91941 27.9816 6.90473C27.9311 6.89005 27.877 6.89638 27.8311 6.92232L26.6918 7.56441L26.4597 7.69631H26.4526L18.7027 12.0895C18.6779 12.0724 18.6574 12.0495 18.6429 12.0228L18.398 11.5749C18.3851 11.5518 18.377 11.5264 18.3739 11.5001C18.3708 11.4737 18.3729 11.4471 18.3801 11.4216C18.3873 11.3961 18.3993 11.3723 18.4156 11.3516C18.4319 11.3309 18.452 11.3137 18.4749 11.301L21.2561 9.72547C21.2626 9.722 21.2683 9.71721 21.2729 9.71141C21.2776 9.70561 21.281 9.69891 21.283 9.69173C21.285 9.68454 21.2855 9.67702 21.2846 9.66962C21.2836 9.66221 21.2812 9.65508 21.2774 9.64865L21.0738 9.27761C21.0567 9.24572 21.0382 9.21673 21.024 9.19209C21.0172 9.18096 21.0064 9.17292 20.9939 9.16968C20.9815 9.16644 20.9682 9.16824 20.957 9.1747L19.9459 9.74577C19.9233 9.75881 19.8983 9.76713 19.8724 9.77025C19.8465 9.77337 19.8203 9.77123 19.7953 9.76395C19.7702 9.75666 19.7469 9.74438 19.7265 9.72783C19.7062 9.71127 19.6893 9.69076 19.6768 9.6675L19.4318 9.21963C19.415 9.18935 19.4061 9.15515 19.4061 9.12035C19.4061 9.08555 19.415 9.05134 19.4318 9.02106L24.963 5.8889L25.0043 5.86571C25.0355 5.84889 25.0612 5.82321 25.0783 5.79179C25.0958 5.76121 25.1051 5.72645 25.1051 5.69105C25.1051 5.65566 25.0958 5.6209 25.0783 5.59032L24.9188 5.28305C24.9025 5.25256 24.8788 5.22692 24.8498 5.20862C24.8208 5.19032 24.7877 5.18001 24.7536 5.17869C24.717 5.17694 24.6805 5.18546 24.6483 5.20333L24.221 5.44683L21.5879 6.93682C21.5545 6.93516 21.522 6.92483 21.4936 6.90682C21.4652 6.88881 21.4418 6.86371 21.4256 6.83391L21.3002 6.60346C21.2765 6.56073 21.2689 6.51063 21.2788 6.46259C21.2888 6.41455 21.3156 6.37187 21.3544 6.34256L23.5887 5.07433L24.5144 4.54965L24.5372 4.53515C24.5755 4.5059 24.6021 4.46348 24.6121 4.41577C24.622 4.36806 24.6147 4.3183 24.5913 4.27571L24.3805 3.88872C24.3805 3.87857 24.3663 3.86843 24.3592 3.85828C24.3297 3.82188 24.2886 3.79715 24.2431 3.78841C24.1975 3.77967 24.1504 3.78747 24.1099 3.81045L22.7485 4.58153L15.4245 8.72973C15.4158 8.72083 15.4086 8.71055 15.4031 8.6993L15.1909 8.31375C15.1657 8.26653 15.1596 8.21112 15.174 8.15939C15.1883 8.10765 15.222 8.0637 15.2678 8.03692L18.4891 6.20922L19.6611 5.54394C19.6935 5.51536 19.7155 5.47658 19.7238 5.43378C19.7316 5.39191 19.724 5.34858 19.7024 5.31203C19.695 5.30297 19.6883 5.29327 19.6825 5.28305L19.6554 5.23232L19.4874 4.95258C19.4603 4.90475 19.419 4.85257 19.4603 4.83373L19.4988 4.81054L19.8249 4.61922L23.922 2.2161C23.9471 2.20209 23.9688 2.18239 23.9854 2.15852C24.0019 2.13466 24.0129 2.10725 24.0174 2.07841C24.0251 2.0332 24.016 1.98667 23.9918 1.94796L23.7696 1.57982C23.7421 1.53439 23.6983 1.50169 23.6475 1.48869C23.5967 1.47569 23.5429 1.48343 23.4976 1.51024L21.998 2.39148L20.4643 3.29301L12.8141 7.78037C12.7969 7.79011 12.7815 7.80287 12.7686 7.81806L11.0896 8.76887C11.0444 8.79467 10.9911 8.80168 10.941 8.78844C10.8908 8.77521 10.8476 8.74274 10.8204 8.69785L10.6068 8.30361C10.5846 8.26197 10.5772 8.21376 10.5861 8.16722C10.5949 8.12069 10.6193 8.07872 10.6552 8.04851L19.7494 2.90022L21.3159 2.01754C21.3388 2.00469 21.359 1.98735 21.3753 1.96651C21.3916 1.94568 21.4036 1.92177 21.4108 1.89616C21.4179 1.87056 21.42 1.84376 21.4169 1.81733C21.4138 1.79089 21.4056 1.76534 21.3928 1.74215L21.1906 1.29283C21.1738 1.26182 21.1493 1.23585 21.1196 1.21753C21.0898 1.19921 21.0559 1.18919 21.0211 1.18848C20.9867 1.18871 20.953 1.19768 20.9229 1.21456L18.9377 2.33785L14.5928 4.80184C14.558 4.80113 14.5241 4.79111 14.4943 4.77279C14.4646 4.75447 14.4401 4.7285 14.4233 4.69749L14.2254 4.34963C14.2124 4.32649 14.204 4.30092 14.2008 4.27445C14.1976 4.24797 14.1997 4.22111 14.2068 4.19545C14.214 4.16979 14.2261 4.14584 14.2425 4.12503C14.2589 4.10421 14.2793 4.08695 14.3023 4.07424L15.9471 3.14662C15.9529 3.14374 15.958 3.13956 15.962 3.13439C15.9659 3.12923 15.9687 3.12321 15.9701 3.1168C15.9715 3.11038 15.9714 3.10373 15.9699 3.09735C15.9684 3.09097 15.9655 3.08502 15.9614 3.07995L15.9286 3.02922L15.7378 2.68861C15.7126 2.6416 15.7065 2.58642 15.7209 2.53492C15.7353 2.48342 15.769 2.43973 15.8147 2.41322L17.2231 1.61605C17.2474 1.602 17.2676 1.58166 17.2816 1.55709C17.2957 1.53252 17.303 1.50461 17.303 1.47618C17.303 1.44776 17.2957 1.41984 17.2816 1.39527C17.2676 1.3707 17.2474 1.35036 17.2231 1.33632L15.2806 0.194184C15.0642 0.0669716 14.8186 0 14.5686 0C14.3186 0 14.0731 0.0669716 13.8566 0.194184L3.38529 6.35126C3.16906 6.4773 2.98936 6.6592 2.86433 6.87858C2.7393 7.09795 2.67339 7.34703 2.67325 7.60065V14.165C2.67308 14.194 2.68038 14.2224 2.69442 14.2476C2.70847 14.2728 2.72876 14.2938 2.75328 14.3084C2.7778 14.3231 2.80567 14.331 2.83412 14.3312C2.86256 14.3315 2.89057 14.3242 2.91535 14.3099L4.33943 13.5055C4.36221 13.4925 4.38732 13.4841 4.41329 13.481C4.43926 13.4778 4.46559 13.48 4.49075 13.4872C4.51591 13.4945 4.5394 13.5068 4.55987 13.5234C4.58034 13.5399 4.59738 13.5605 4.61 13.5838L4.73532 13.8142C4.76088 13.8612 4.76713 13.9165 4.75272 13.9681C4.73831 14.0197 4.70441 14.0634 4.65842 14.0896L2.80712 15.1376C2.76652 15.1606 2.7327 15.1942 2.70916 15.235C2.68562 15.2757 2.67323 15.3222 2.67325 15.3695V16.3464L1.15803 17.2073C1.11627 17.2278 1.07908 17.2568 1.04872 17.2924C1.01836 17.3281 0.995477 17.3697 0.981478 17.4147C0.967479 17.4597 0.962656 17.5071 0.967307 17.554C0.971957 17.601 0.985983 17.6465 1.00852 17.6877C1.03106 17.7289 1.06164 17.7651 1.09838 17.7938C1.13513 17.8226 1.17726 17.8434 1.22219 17.855C1.26713 17.8667 1.31392 17.8688 1.3597 17.8614C1.40548 17.8539 1.44928 17.837 1.48842 17.8117L2.67895 17.1392L3.97059 16.4145C4.0167 16.3885 4.07104 16.3821 4.12175 16.3968C4.17246 16.4114 4.21539 16.4459 4.24117 16.4927L4.36791 16.7232C4.39335 16.7703 4.39939 16.8258 4.38471 16.8774C4.37002 16.929 4.33581 16.9726 4.28958 16.9986L2.67895 17.9088C2.67183 17.9088 2.67183 17.9088 2.67183 17.9219V18.9785C2.67183 18.9988 2.67895 19.0002 2.69319 18.9901L8.51768 15.6956C8.56379 15.6696 8.61814 15.6632 8.66884 15.6779C8.71955 15.6925 8.76248 15.727 8.78826 15.7738L8.91358 16.0043C8.93913 16.0512 8.94539 16.1065 8.93098 16.1581C8.91657 16.2098 8.88266 16.2535 8.83668 16.2797L2.68037 19.7626L0.192502 21.1801C0.149115 21.2052 0.110997 21.2386 0.0803233 21.2787C0.04965 21.3187 0.0270224 21.3645 0.0137324 21.4134C0.000442479 21.4623 -0.00324951 21.5134 0.00286723 21.5638C0.00898398 21.6142 0.0247897 21.6628 0.0493819 21.707C0.0739741 21.7511 0.106871 21.7899 0.146195 21.8212C0.185519 21.8524 0.230499 21.8754 0.278568 21.8889C0.326636 21.9025 0.376852 21.9062 0.426347 21.9C0.475842 21.8938 0.523648 21.8777 0.567035 21.8526L2.84557 20.5656L4.8051 19.4568C4.82789 19.4437 4.85299 19.4354 4.87896 19.4322C4.90494 19.4291 4.93127 19.4312 4.95642 19.4385C4.98158 19.4458 5.00508 19.4581 5.02555 19.4746C5.04601 19.4912 5.06305 19.5117 5.07568 19.5351L5.201 19.7655C5.21384 19.7887 5.22204 19.8142 5.22513 19.8407C5.22821 19.8671 5.22612 19.8939 5.21897 19.9195C5.21182 19.9451 5.19975 19.969 5.18347 19.9899C5.16718 20.0107 5.147 20.028 5.1241 20.0409L3.35111 21.0453C3.34344 21.0499 3.33708 21.0565 3.33266 21.0644C3.32824 21.0723 3.32591 21.0812 3.32591 21.0903C3.32591 21.0993 3.32824 21.1083 3.33266 21.1161C3.33708 21.124 3.34344 21.1306 3.35111 21.1352L3.39811 21.1642L3.97771 21.5048C4.00629 21.5208 4.03838 21.5292 4.07099 21.5292C4.1036 21.5292 4.13568 21.5208 4.16427 21.5048L7.3656 19.6843C7.41188 19.6584 7.46636 19.6523 7.51709 19.6672C7.56781 19.6822 7.61064 19.717 7.63617 19.7641L7.76149 19.9931C7.78712 20.0402 7.79341 20.0957 7.77901 20.1476C7.76461 20.1994 7.73068 20.2434 7.68459 20.2699L4.88058 21.857C4.86455 21.866 4.85119 21.8793 4.84189 21.8953C4.83259 21.9114 4.82768 21.9297 4.82768 21.9483C4.82768 21.967 4.83259 21.9853 4.84189 22.0013C4.85119 22.0174 4.86455 22.0306 4.88058 22.0396L13.8637 27.3184C14.0802 27.4456 14.3257 27.5125 14.5757 27.5125C14.8257 27.5125 15.0713 27.4456 15.2878 27.3184L25.7576 21.1627C25.9738 21.0367 26.1535 20.8548 26.2786 20.6354C26.4036 20.416 26.4695 20.167 26.4697 19.9133V15.7101C26.4695 15.6962 26.4659 15.6826 26.4591 15.6705C26.4523 15.6585 26.4425 15.6484 26.4308 15.6413C26.4191 15.6341 26.4058 15.6302 26.3921 15.6298C26.3785 15.6294 26.365 15.6326 26.3529 15.639L25.6408 16.0434C25.5946 16.0693 25.5401 16.0755 25.4893 16.0605C25.4386 16.0456 25.3958 16.0108 25.3703 15.9637L25.1823 15.6188C25.1695 15.5957 25.1613 15.5702 25.1582 15.5439C25.1552 15.5176 25.1573 15.4909 25.1644 15.4654C25.1716 15.4399 25.1836 15.4161 25.1999 15.3954C25.2162 15.3747 25.2363 15.3575 25.2592 15.3448L26.3984 14.6984C26.4198 14.6859 26.4375 14.6679 26.45 14.6463C26.4625 14.6247 26.4693 14.6002 26.4697 14.5752V13.9722C26.4697 13.9578 26.4661 13.9435 26.4591 13.9309C26.452 13.9183 26.4419 13.9079 26.4296 13.9005C26.4174 13.8932 26.4034 13.8892 26.3892 13.8891C26.375 13.889 26.361 13.8927 26.3486 13.8998L21.5438 16.6174C21.4976 16.643 21.4433 16.6492 21.3927 16.6345C21.3422 16.6199 21.2992 16.5856 21.2732 16.5391L21.0852 16.1942C21.0724 16.171 21.0642 16.1454 21.0611 16.119C21.058 16.0926 21.0601 16.0658 21.0672 16.0402C21.0744 16.0145 21.0864 15.9906 21.1027 15.9698C21.119 15.949 21.1392 15.9316 21.1621 15.9188L26.4753 12.8344L29.174 11.3068C29.1977 11.2939 29.2185 11.2764 29.2353 11.2551C29.2521 11.2338 29.2645 11.2093 29.2717 11.183C29.2789 11.1567 29.2807 11.1292 29.2771 11.1021C29.2736 11.0751 29.2646 11.049 29.2509 11.0256Z" fill="url(#paint0_linear_1387_1270)"/>
  <path d="M26.0352 5.77002C26.0777 5.84741 26.1487 5.90446 26.2325 5.92864C26.3164 5.95283 26.4062 5.94217 26.4823 5.89901L28.3977 4.81486C28.4409 4.79697 28.4799 4.76994 28.512 4.73555C28.5442 4.70117 28.5688 4.66022 28.5842 4.61542C28.5996 4.57063 28.6055 4.523 28.6015 4.47572C28.5974 4.42843 28.5835 4.38256 28.5607 4.34114C28.538 4.29973 28.5068 4.26372 28.4693 4.2355C28.4318 4.20729 28.3888 4.18751 28.3432 4.17748C28.2976 4.16745 28.2505 4.1674 28.2049 4.17734C28.1593 4.18727 28.1163 4.20696 28.0787 4.2351L26.1619 5.31925C26.0859 5.36256 26.0298 5.4348 26.006 5.52013C25.9823 5.60545 25.9928 5.69689 26.0352 5.77436V5.77002Z" fill="#A3B0C1"/>
  <path d="M22.6601 8.0805C22.6169 8.09839 22.5779 8.12542 22.5458 8.1598C22.5136 8.19419 22.489 8.23513 22.4736 8.27993C22.4582 8.32473 22.4523 8.37235 22.4563 8.41964C22.4604 8.46692 22.4743 8.5128 22.497 8.55421C22.5198 8.59562 22.551 8.63163 22.5885 8.65985C22.626 8.68807 22.669 8.70785 22.7146 8.71787C22.7602 8.7279 22.8073 8.72795 22.8529 8.71802C22.8985 8.70808 22.9415 8.6884 22.9791 8.66026L25.3032 7.3442C25.3678 7.29581 25.4128 7.22508 25.4297 7.1453C25.4467 7.06552 25.4344 6.98219 25.3952 6.91097C25.356 6.83975 25.2926 6.78556 25.2169 6.75857C25.1412 6.73159 25.0585 6.73367 24.9842 6.76444L22.6601 8.0805Z" fill="#A3B0C1"/>
  <defs>
    <linearGradient id="paint0_linear_1387_1270" x1="28.0299" y1="27.5125" x2="1.7025" y2="27.0253" gradientUnits="userSpaceOnUse">
      <stop stop-color="#94BBDF"/>
      <stop offset="1" stop-color="#FF6D04"/>
    </linearGradient>
  </defs>
</svg>