<svg xmlns="http://www.w3.org/2000/svg" width="56" height="56" viewBox="0 0 56 56" fill="none">
  <path fill-rule="evenodd" clip-rule="evenodd" d="M24.5439 0.143578C18.0896 0.970703 11.9865 4.12807 7.43799 8.99286C4.46205 12.176 1.95082 16.7306 0.926627 20.8023C-0.49418 26.451 -0.284211 31.7584 1.57813 37.2686C3.40047 42.661 7.4819 47.9298 12.3665 51.196C21.4249 57.2528 32.9751 57.6079 42.3077 52.1164C44.917 50.5811 47.8876 48.0409 49.7021 45.7937C52.6902 42.0928 54.619 38.0254 55.5735 33.4125C55.9433 31.6258 55.9704 31.2518 55.9699 27.9444C55.9691 24.6356 55.9425 24.2682 55.5757 22.5407C54.8141 18.9526 53.6338 16.0321 51.7386 13.0462C47.1152 5.76174 39.843 1.16937 31.2806 0.127059C29.8302 -0.0495821 25.9767 -0.0401635 24.5439 0.143578ZM33.6595 0.908538C34.6113 1.1201 36.0132 1.4999 36.775 1.75247C38.4306 2.30123 41.9308 4.01794 43.4629 5.03228C44.7903 5.91128 47.9041 8.62813 48.8187 9.70551C51.7182 13.1208 53.8313 17.1273 54.8084 21.0614C55.6609 24.4939 55.8793 28.3725 55.4124 31.7845C53.6888 44.3813 43.565 54.1193 30.7696 55.4882C27.3936 55.8495 22.935 55.3808 19.7133 54.3261C15.6285 52.9889 12.3412 51.0492 9.26816 48.1628C4.64536 43.8208 1.79998 38.5737 0.744479 32.4451C0.437568 30.6629 0.404384 25.9869 0.684343 23.9595C0.930684 22.1754 1.8549 18.8801 2.58189 17.194C4.2544 13.3144 6.91285 9.7342 10.1873 6.95157C11.8844 5.50931 12.2306 5.2608 13.9315 4.26297C16.7458 2.61191 19.5071 1.5341 22.4767 0.927231C24.958 0.420349 24.7576 0.290223 28.5236 0.336738C31.5847 0.374703 32.1038 0.562792 33.6595 0.908538ZM24.9009 1.92781C20.6181 2.49193 17.1356 3.79188 13.5258 6.17371C10.5777 8.11908 9.03327 9.61335 6.68622 12.791C3.99473 16.4351 2.1266 21.5954 1.88199 26.0607C1.4877 33.2596 3.44742 39.3196 7.95284 44.8333C10.7043 48.2004 15.0311 51.2038 19.296 52.7067C26.7612 55.3375 35.0793 54.4574 41.8025 50.3252C53.7642 42.9734 57.8234 27.3086 50.9221 15.1312C47.0307 8.26485 40.2813 3.47497 32.6143 2.13879C30.4083 1.75421 26.9385 1.6593 24.9009 1.92781ZM22.5168 4.69306C20.9893 5.36325 19.2012 6.59466 17.7505 7.97533C17.1006 8.59394 16.491 9.10154 16.396 9.10328C16.0031 9.11082 13.0621 10.1546 11.9024 10.698C11.216 11.0197 10.6291 11.2575 10.5981 11.2264C10.4667 11.095 13.0986 8.85245 14.4446 7.94896C16.937 6.27601 19.2031 5.24269 22.0695 4.47178C23.6271 4.05286 23.791 4.13401 22.5168 4.69306ZM34.029 4.46932C38.1038 5.50975 42.4014 7.97547 45.1154 10.8301L45.695 11.4399L44.3694 10.7901C43.6402 10.4327 42.2168 9.87882 41.2061 9.55916C39.3759 8.9804 39.3638 8.97359 38.2419 7.90172C36.657 6.38759 34.5418 5.00301 32.875 4.38875C32.0879 4.09865 32.7612 4.1456 34.029 4.46932ZM28.8859 4.60046C29.2047 4.74856 29.7056 5.12212 29.9989 5.43048C30.5129 5.9707 31.6314 7.78594 31.5194 7.89795C31.4894 7.92809 29.8905 7.93519 27.9664 7.91374L24.4681 7.87491L25.0105 6.9749C26.006 5.32325 27.1016 4.38585 28.0889 4.34093C28.2084 4.33557 28.5671 4.45222 28.8859 4.60046ZM24.9722 5.42281C24.6817 5.80347 24.228 6.54394 23.9638 7.06851L23.4835 8.02213L21.3303 8.28123C20.1461 8.42381 18.9815 8.57379 18.7424 8.61451C18.3187 8.68682 18.326 8.6716 19.0322 8.01199C20.4451 6.69247 22.6478 5.44903 24.5387 4.90375C25.0169 4.7658 25.4288 4.67045 25.4542 4.6919C25.4797 4.71334 25.2628 5.04228 24.9722 5.42281ZM31.6013 4.90317C33.7128 5.55539 35.93 6.83521 37.1457 8.10357L37.7251 8.70827L37.2904 8.62436C37.0513 8.57814 35.8999 8.42526 34.7318 8.28471L32.6081 8.02909L32.2959 7.37237C31.9131 6.56698 30.8125 4.90433 30.6621 4.90433C30.6017 4.90433 30.5523 4.83912 30.5523 4.75942C30.5523 4.57235 30.5129 4.56699 31.6013 4.90317ZM32.4026 9.9036C32.786 10.9362 33.7402 14.3964 33.7402 14.7543C33.7402 14.7962 31.1809 14.8243 28.0527 14.8168L22.3651 14.8032L22.4117 14.4545C22.612 12.9575 23.9934 8.70725 24.3076 8.62132C24.4346 8.58654 26.1992 8.56742 28.2284 8.57886L31.9183 8.59944L32.4026 9.9036ZM23.1621 8.76377C23.1621 8.81434 22.9375 9.48265 22.6629 10.2491C22.3883 11.0155 22.0063 12.3451 21.814 13.2038C21.6217 14.0626 21.4301 14.7994 21.3883 14.8413C21.3464 14.8832 20.31 14.98 19.0853 15.0565C16.9901 15.1872 14.8033 15.4084 14.0692 15.5639C13.8259 15.6154 13.7432 15.5665 13.7432 15.3711C13.7432 14.9401 15.5942 11.8172 16.58 10.5852L17.4983 9.43758L19.0622 9.18849C20.4397 8.96924 22.1515 8.74782 22.9085 8.69088C23.048 8.68044 23.1621 8.71319 23.1621 8.76377ZM34.8995 8.88737C37.6104 9.23413 38.4305 9.39976 38.7173 9.65871C39.2375 10.1283 40.359 11.6515 41.0847 12.8742C42.3646 15.0304 42.6704 15.7488 42.2375 15.5828C42.0535 15.5122 38.2454 15.1486 35.7494 14.9634L34.6431 14.8813L34.4703 13.9863C34.2668 12.9339 33.7299 10.9803 33.3119 9.77217C32.9887 8.83825 32.9602 8.67132 33.1244 8.67305C33.1842 8.67363 33.9829 8.77014 34.8995 8.88737ZM15.9167 9.91896C15.9167 9.96721 15.7323 10.2444 15.5068 10.5348C14.9481 11.2544 13.7442 13.2892 13.0806 14.6354L12.5341 15.7446L11.2724 15.9755C9.69375 16.2643 7.66738 16.8465 6.92778 17.2238C6.61797 17.3818 6.32815 17.5112 6.28381 17.5112C6.17195 17.5112 6.86894 16.1537 7.47407 15.1927C8.76881 13.1365 11.2002 11.4019 14.2796 10.3376C15.7958 9.81361 15.9167 9.7826 15.9167 9.91896ZM41.9274 10.3773C44.3819 11.2483 46.6036 12.6357 47.7816 14.033C48.3453 14.7014 49.9993 17.3811 49.907 17.4763C49.887 17.4968 49.4153 17.3258 48.8589 17.0965C47.9548 16.7236 45.6128 16.0988 44.1368 15.8365C43.6188 15.7445 43.5599 15.6733 42.899 14.3432C42.313 13.1637 41.3665 11.6312 40.3081 10.1485C40.0718 9.81738 40.0736 9.81491 40.4911 9.91562C40.7233 9.97156 41.3695 10.1794 41.9274 10.3773ZM33.8576 15.5516C33.9135 15.6075 34.4603 19.0452 34.4632 19.3587C34.464 19.4631 34.6492 19.5399 34.8995 19.5399C35.4035 19.5399 35.3933 19.6243 35.1186 17.7285C34.776 15.3642 34.7265 15.5048 35.8776 15.5783C37.8857 15.7067 42.0863 16.0697 42.4685 16.1479C42.8305 16.2221 42.9108 16.3722 43.3955 17.8845C43.9083 19.4844 43.94 19.5399 44.3395 19.5399C44.5734 19.5399 44.7531 19.4613 44.7531 19.359C44.7531 19.2596 44.5507 18.5709 44.3033 17.8284C44.0561 17.086 43.8802 16.4521 43.9125 16.4196C44.0255 16.3066 47.0092 17.0537 48.2529 17.5065C50.0165 18.1486 50.4511 18.5735 50.9994 20.1919C51.2424 20.9092 51.6102 22.246 51.8167 23.1625C52.1543 24.6614 52.1932 25.1421 52.2033 27.9444C52.2155 31.3507 52.0451 32.5229 51.1177 35.4071C50.5696 37.1119 50.2711 37.5695 49.4315 37.9919C48.08 38.6721 44.2001 39.7569 43.9639 39.5206C43.9206 39.4772 44.0804 38.8641 44.3191 38.158C44.5578 37.452 44.7531 36.8172 44.7531 36.7473C44.7531 36.6775 44.5552 36.6408 44.3132 36.6659C43.9044 36.7081 43.8444 36.7931 43.4636 37.8705C42.7111 39.9995 43.0384 39.7465 40.6718 40.028C39.5294 40.1638 37.7267 40.3148 36.6662 40.3633L34.7376 40.4519L34.8185 40.1031C34.927 39.6353 35.3329 37.0482 35.3336 36.8199C35.3339 36.7171 35.1549 36.6388 34.9196 36.6388H34.5049L34.2578 38.269C34.1219 39.1657 33.9754 40.0458 33.9322 40.2252L33.8537 40.5513H28.0189H22.1841L21.9485 39.0389C21.8189 38.2071 21.713 37.3268 21.713 37.0827C21.713 36.6861 21.6666 36.6388 21.2783 36.6388C20.8843 36.6388 20.8436 36.683 20.8441 37.1098C20.8444 37.3688 20.9411 38.1676 21.0589 38.8849C21.1768 39.6021 21.2744 40.2547 21.2758 40.3351C21.2789 40.5177 18.7402 40.3826 15.592 40.0327L13.3112 39.7791L12.8911 38.68C12.66 38.0754 12.426 37.3688 12.371 37.1098C12.286 36.7088 12.2082 36.6388 11.8479 36.6388C11.3155 36.6388 11.3161 36.732 11.8594 38.329C12.0985 39.0319 12.2941 39.6172 12.2941 39.6294C12.2941 39.736 8.90575 38.8794 7.92763 38.5253C6.03443 37.8404 5.63739 37.4307 4.99661 35.502C3.46075 30.8784 3.45321 25.2854 4.97661 20.5729C5.65724 18.4678 6.05153 18.0978 8.45407 17.3099C10.1966 16.7385 12.1492 16.3403 12.1492 16.5564C12.1492 16.6532 11.9536 17.3111 11.7145 18.0184C11.4754 18.7256 11.2797 19.3615 11.2797 19.4313C11.2797 19.5012 11.477 19.5378 11.7178 19.5128C12.1369 19.4694 12.1798 19.3981 12.7007 17.8826C13.3489 15.9972 13.0334 16.1596 16.6372 15.8561C20.55 15.5263 21.2783 15.4992 21.2778 15.683C21.2776 15.772 21.1855 16.399 21.0734 17.0765C20.6414 19.684 20.6388 19.5399 21.1202 19.5399C21.605 19.5399 21.5642 19.6604 21.9404 17.117L22.1809 15.4912L23.9395 15.435C25.8695 15.3732 33.7723 15.4663 33.8576 15.5516ZM28.3787 22.0757C28.3787 22.2632 27.8715 22.2931 24.6836 22.2931H20.9885V22.6474C20.9885 22.9673 21.0553 23.006 21.6768 23.0459L22.3651 23.0901V28.1618V33.2335L21.6768 33.2777C21.0553 33.3176 20.9885 33.3562 20.9885 33.6762V34.0305H23.3794H25.7704V33.6682C25.7704 33.3418 25.7127 33.306 25.1871 33.306H24.6039L24.6437 30.9512L24.6836 28.5965L26.0964 28.5551L27.5093 28.5136V29.1709C27.5093 29.8046 27.5249 29.8282 27.944 29.8282H28.3787V28.0893V26.3505H27.944C27.5249 26.3505 27.5093 26.3741 27.5093 27.0078V27.6651L26.0964 27.6236L24.6836 27.5822L24.6434 25.5173L24.6032 23.4523H26.491H28.3787V24.032C28.3787 24.5794 28.4029 24.6116 28.8134 24.6116H29.2481V23.235V21.8584H28.8134C28.5236 21.8584 28.3787 21.9308 28.3787 22.0757ZM36.4934 22.2361C36.4934 22.3989 36.4169 22.4393 36.2399 22.3706C35.5958 22.1205 34.0392 22.1118 33.2984 22.3541C31.732 22.8665 31.0742 23.7669 31.0671 25.4086C31.0608 26.86 31.3855 27.2987 33.5788 28.8026C35.7196 30.2705 36.2036 30.7807 36.2036 31.5698C36.2036 32.4381 35.6115 33.0321 34.6542 33.1241C33.8544 33.2009 33.0254 32.9904 32.3998 32.5514C32.0671 32.318 32.0014 32.1658 32.0014 31.6297C32.0014 31.0127 31.9843 30.9875 31.5666 30.9875H31.1319V32.5814V34.1754H31.5666C31.9047 34.1754 32.0014 34.1111 32.0014 33.8856C32.0014 33.5309 31.9608 33.53 32.8024 33.9024C33.6911 34.2954 35.2828 34.3228 36.1697 33.9601C37.6075 33.3723 38.4384 31.6949 38.0929 30.0777C37.8393 28.8904 37.4072 28.3906 35.5639 27.1527C33.7325 25.9227 33.0157 25.2287 33.0157 24.6858C33.0157 23.3896 34.4151 22.7846 35.8776 23.4484C36.4708 23.7178 36.4934 23.7521 36.4934 24.3871C36.4934 25.023 36.5088 25.0463 36.9282 25.0463H37.3629V23.5248V22.0033H36.9282C36.6255 22.0033 36.4934 22.074 36.4934 22.2361ZM7.60884 22.3897C7.55566 22.4428 7.51218 22.6058 7.51218 22.752C7.51218 22.9702 7.62854 23.0176 8.16426 23.0176H8.81634V28.1535V33.2893L8.20049 33.3339C7.69607 33.3703 7.58464 33.4309 7.58464 33.6682C7.58464 33.9437 7.69462 33.9601 9.79446 33.998L12.0043 34.038V33.672C12.0043 33.3416 11.9479 33.306 11.4247 33.306H10.845V30.9875V28.669H13.4533H16.0617V30.9875V33.306H15.482C14.9604 33.306 14.9024 33.3422 14.9024 33.6682V34.0305H17.1485H19.3945V33.6682C19.3945 33.3355 19.3413 33.306 18.7424 33.306H18.0903V28.1618V23.0176H18.7526C19.3562 23.0176 19.4106 22.9889 19.3684 22.6916C19.3229 22.3718 19.2797 22.3648 17.1122 22.3255L14.9024 22.2856V22.6516C14.9024 22.982 14.9588 23.0176 15.482 23.0176H16.0617V25.3361V27.6546H13.4533H10.845V25.3361V23.0176H11.4247C11.9463 23.0176 12.0043 22.9814 12.0043 22.6554V22.2931H9.85488C8.67259 22.2931 7.66187 22.3366 7.60884 22.3897ZM40.0799 22.3766C40.02 22.437 39.9712 22.6058 39.9712 22.752C39.9712 22.9702 40.0876 23.0176 40.6233 23.0176H41.2754V28.1618V33.306H40.6233C40.0244 33.306 39.9712 33.3355 39.9712 33.6682V34.0305H42.5071H45.0429V33.6682C45.0429 33.3302 44.9947 33.306 44.3184 33.306H43.5939V28.3067V23.3074L44.4271 23.308C45.557 23.3087 46.0929 23.6464 46.4014 24.5517C46.7114 25.4616 46.6947 26.4264 46.3561 27.1724C46.0303 27.8898 45.5453 28.2435 44.837 28.28C44.3798 28.3037 44.3195 28.3516 44.319 28.6937C44.3185 29.0066 44.4021 29.099 44.7563 29.1769C45.8118 29.4087 47.3987 28.8121 48.1075 27.9172C49.5938 26.0407 49.0702 23.5438 46.9992 22.6332C46.5208 22.4229 45.8753 22.3686 43.304 22.3226C41.5905 22.2919 40.1397 22.3163 40.0799 22.3766ZM7.802 39.0989C8.85445 39.4848 10.0294 39.7891 11.7432 40.1196L12.5688 40.2789L13.31 41.7589C13.7175 42.5729 14.4652 43.8569 14.9714 44.6121C15.4775 45.3674 15.8359 46.0058 15.7675 46.0308C15.6992 46.0558 15.0364 45.8686 14.2948 45.6147C10.4147 44.2862 8.18745 42.4287 6.5045 39.1177C6.20875 38.5356 6.20382 38.4906 6.44814 38.5907C6.59507 38.651 7.20426 38.8796 7.802 39.0989ZM49.8248 38.6008C49.8248 38.764 49.2142 39.8657 48.5818 40.8431C47.537 42.4581 46.1877 43.6179 44.1899 44.6178C43.0668 45.1799 40.7031 46.0577 40.3125 46.0577C40.2112 46.0577 40.5368 45.4545 41.0358 44.7173C41.535 43.9802 42.2985 42.6762 42.7324 41.8196C43.4744 40.3551 43.5515 40.2574 44.0286 40.1774C45.4343 39.9417 48.2455 39.1973 48.8842 38.8915C49.644 38.528 49.8248 38.472 49.8248 38.6008ZM17.2209 40.765C18.6953 40.887 20.2128 41.0099 20.5932 41.038C20.9735 41.066 21.3212 41.1255 21.3658 41.1702C21.4106 41.2148 21.6623 42.1209 21.9253 43.1836C22.1883 44.2464 22.5742 45.5637 22.7828 46.1112C22.9914 46.6586 23.1621 47.1315 23.1621 47.1618C23.1621 47.2815 21.7116 47.2012 20.3338 47.0053C17.8681 46.6546 17.6439 46.5788 17.0214 45.886C16.2071 44.9798 14.8857 42.9734 14.1847 41.5791L13.5768 40.3701L14.0585 40.4565C14.3234 40.504 15.7465 40.6429 17.2209 40.765ZM42.4346 40.4836C42.4346 40.8273 40.6578 43.9025 39.8838 44.8985C38.5665 46.5936 38.7262 46.4833 37.1454 46.7898C35.4507 47.1184 33.0148 47.319 33.0176 47.1297C33.0187 47.0582 33.2052 46.4664 33.4322 45.8144C33.6591 45.1626 34.0325 43.8438 34.262 42.8837L34.6794 41.1381L35.2603 41.0708C35.58 41.0337 37.1773 40.8972 38.8099 40.7673C40.4426 40.6375 41.8066 40.5032 41.8408 40.4688C41.9306 40.3791 42.4346 40.3916 42.4346 40.4836ZM33.7392 41.2396C33.7362 41.5716 33.088 43.9747 32.5829 45.5275L31.9996 47.3201L31.0224 47.4124C29.7611 47.5316 26.5562 47.5327 25.159 47.4146L24.0693 47.3226L23.4009 45.2048C23.0331 44.04 22.6636 42.7611 22.5795 42.3626C22.4956 41.9641 22.3923 41.5239 22.35 41.3845C22.2777 41.146 22.6134 41.1309 28.0067 41.1309C31.1602 41.1309 33.7398 41.1797 33.7392 41.2396ZM13.9605 46.1129C14.7575 46.3917 15.703 46.695 16.0617 46.787C16.5596 46.9147 16.9707 47.2015 17.8005 48.0005C19.2331 49.3796 20.4771 50.2438 22.3094 51.1325C23.137 51.534 23.6185 51.8214 23.3794 51.7712C20.3283 51.1312 17.2364 49.8661 14.8165 48.2675C13.4707 47.3785 10.4103 44.8334 10.4103 44.6032C10.4103 44.5332 10.8831 44.7301 11.4609 45.0408C12.0386 45.3516 13.1635 45.834 13.9605 46.1129ZM45.4591 44.8509C45.0474 45.3525 42.3226 47.6091 41.3446 48.2586C39.3067 49.6117 36.1239 50.9983 33.8851 51.5081C33.3671 51.626 32.8128 51.7543 32.6534 51.7931C32.494 51.8319 33.0157 51.5468 33.8127 51.1593C35.3848 50.3952 37.8835 48.6004 38.7667 47.6008C39.223 47.0842 39.4829 46.9324 40.261 46.7265C41.704 46.3448 43.8747 45.5203 44.6808 45.0479C45.5088 44.5626 45.745 44.5027 45.4591 44.8509ZM21.4849 47.7208C22.5948 47.8437 23.5162 47.9598 23.5327 47.979C23.5493 47.9983 23.7979 48.4836 24.0853 49.0576C24.3726 49.6315 24.8128 50.3348 25.0634 50.6202C25.3141 50.9056 25.4771 51.1813 25.4256 51.2326C25.3048 51.3535 23.9201 50.9187 22.7634 50.3969C21.6956 49.9151 19.7076 48.6126 18.8873 47.8572L18.3077 47.3235L18.8873 47.4106C19.2061 47.4584 20.3751 47.5981 21.4849 47.7208ZM37.0731 47.9618C35.4565 49.4181 32.5523 50.9877 31.0114 51.2378L30.5214 51.3172L31.0408 50.6369C31.3264 50.2628 31.8008 49.5195 32.0951 48.9853C32.3893 48.451 32.6404 47.998 32.6531 47.9785C32.6659 47.9589 33.6166 47.8393 34.7659 47.7128C35.9151 47.5863 36.8827 47.4556 36.916 47.4223C36.9493 47.3891 37.1449 47.3646 37.3509 47.3681C37.7092 47.3739 37.6973 47.3993 37.0731 47.9618ZM31.5666 48.0747C31.5666 48.2067 30.6331 49.7817 30.2777 50.2496C29.7576 50.934 28.7226 51.5642 28.1186 51.5642C27.478 51.5642 26.7966 51.2338 26.2396 50.6528C25.7223 50.1135 24.4568 48.2189 24.5323 48.0967C24.5903 48.0028 31.5666 47.9811 31.5666 48.0747Z" fill="url(#paint0_linear_1141_600)"/>
  <defs>
    <linearGradient id="paint0_linear_1141_600" x1="55.9999" y1="8.50001" x2="59.8219" y2="55.8138" gradientUnits="userSpaceOnUse">
      <stop stop-color="#629ACE"/>
      <stop offset="1" stop-color="#FF6D04"/>
    </linearGradient>
  </defs>
</svg>