<svg xmlns="http://www.w3.org/2000/svg" width="20" height="21" viewBox="0 0 20 21" fill="none">
  <path d="M19.8179 10.1197L17.2041 7.50589V3.81012C17.2041 3.51018 16.9684 3.2745 16.6685 3.2745H12.9727L10.3589 0.660686C10.1446 0.446438 9.81253 0.446438 9.59829 0.660686L6.98447 3.2745H3.31012C3.01018 3.2745 2.7745 3.51018 2.7745 3.81012V7.50589L0.160686 10.1197C-0.0535619 10.334 -0.0535619 10.666 0.160686 10.8803L2.7745 13.4941V17.1899C2.7745 17.4898 3.01018 17.7255 3.31012 17.7255H7.00589L9.61971 20.3393C9.72683 20.4464 9.86609 20.5 9.99464 20.5C10.1232 20.5 10.2732 20.4464 10.3696 20.3393L12.9834 17.7255H16.6792C16.9791 17.7255 17.2148 17.4898 17.2148 17.1899V13.4941L19.8286 10.8803C20.0321 10.666 20.0321 10.3232 19.8179 10.1197ZM16.2935 12.8835C16.1971 12.9799 16.1328 13.1192 16.1328 13.2584V16.6328H12.7584C12.6192 16.6328 12.4799 16.6864 12.3835 16.7935L9.99464 19.1824L7.60578 16.7935C7.50937 16.6971 7.37011 16.6328 7.23085 16.6328H3.85645V13.2584C3.85645 13.1192 3.80289 12.9799 3.69577 12.8835L1.30691 10.4946L3.69577 8.10579C3.79218 8.00937 3.85645 7.87011 3.85645 7.73085V4.35645H7.23085C7.37011 4.35645 7.50937 4.30289 7.60578 4.19577L9.99464 1.80691L12.3835 4.19577C12.4799 4.29218 12.6192 4.35645 12.7584 4.35645H16.1328V7.73085C16.1328 7.87011 16.1864 8.00937 16.2935 8.10579L18.6824 10.4946L16.2935 12.8835Z" fill="#6A6667"/>
  <path d="M11.4622 7.49518C11.3658 7.39877 11.2266 7.33449 11.0873 7.33449H8.91269C8.77343 7.33449 8.63417 7.38806 8.53776 7.49518L7.00589 9.02705C6.90948 9.12346 6.84521 9.26272 6.84521 9.40198V11.5766C6.84521 11.7159 6.89877 11.8551 7.00589 11.9515L8.53776 13.4834C8.63417 13.5798 8.77343 13.6441 8.91269 13.6441H11.0873C11.2266 13.6441 11.3658 13.5905 11.4622 13.4834L12.9941 11.9515C13.0905 11.8551 13.1548 11.7159 13.1548 11.5766V9.40198C13.1548 9.26272 13.1012 9.12346 12.9941 9.02705L11.4622 7.49518ZM12.0836 11.3623L10.8623 12.5836H9.13765L7.91644 11.3623V9.63765L9.13765 8.41644H10.8623L12.0836 9.63765V11.3623Z" fill="#6A6667"/>
</svg>