<svg xmlns="http://www.w3.org/2000/svg" width="330" height="289" viewBox="0 0 330 289" fill="none">
  <path fill-rule="evenodd" clip-rule="evenodd" d="M322.29 150.372C322.681 150.445 323.085 150.484 323.498 150.484C327.089 150.484 330 147.572 330 143.981C330 140.39 327.089 137.479 323.498 137.479C323.257 137.479 323.019 137.492 322.784 137.517L249.527 10.6317C250.451 9.50873 251.006 8.07037 251.006 6.50238C251.006 2.91123 248.095 9.7671e-07 244.504 1.01953e-06C241.821 1.05152e-06 239.518 1.62406 238.524 3.94248L91.0735 3.94251C90.0796 1.62409 87.7766 2.88848e-06 85.0944 2.92047e-06C81.5032 2.96329e-06 78.592 2.91123 78.592 6.50238C78.592 8.25571 79.2859 9.84693 80.4141 11.0164L7.3681 137.536C7.08484 137.498 6.79581 137.479 6.50223 137.479C2.91104 137.479 -0.000181431 140.39 -0.000181389 143.981C-0.000181346 147.572 2.91104 150.484 6.50223 150.484C6.96643 150.484 7.41928 150.435 7.85596 150.342L81.1212 277.242C79.5827 278.431 78.592 280.294 78.592 282.389C78.592 285.981 81.5032 288.892 85.0944 288.892C88.4485 288.892 91.2095 286.352 91.5594 283.091L238.4 283.091C238.75 286.352 241.511 288.892 244.865 288.892C248.457 288.892 251.368 285.981 251.368 282.389C251.368 280.358 250.437 278.545 248.978 277.352L322.29 150.372ZM247.162 276.304L320.292 149.64C318.323 148.522 316.995 146.407 316.995 143.981C316.995 141.39 318.511 139.153 320.704 138.108L247.918 12.0376C246.925 12.6508 245.756 13.0048 244.504 13.0048C240.912 13.0048 238.001 10.0936 238.001 6.50238C238.001 6.34659 238.007 6.19205 238.017 6.039L91.5805 6.03903C91.5913 6.19208 91.5968 6.34659 91.5968 6.50238C91.5968 10.0936 88.6855 13.0048 85.0944 13.0048C84.017 13.0048 83.0008 12.7428 82.1061 12.279L9.42288 138.17C11.5473 139.24 13.0046 141.44 13.0046 143.981C13.0046 146.356 11.7313 148.434 9.83005 149.569L82.9658 276.243C83.6327 276.012 84.3489 275.887 85.0944 275.887C88.2067 275.887 90.8083 278.074 91.4468 280.994L238.513 280.994C239.152 278.074 241.753 275.887 244.865 275.887C245.674 275.887 246.448 276.035 247.162 276.304Z" fill="white"/>
</svg>