<svg width="241" height="34" viewBox="0 0 241 34" fill="none" xmlns="http://www.w3.org/2000/svg">
<g clip-path="url(#clip0_966_989)">
<path d="M216.215 1.41755L213.999 0.113212C213.87 0.0389954 213.724 0 213.575 0C213.427 0 213.281 0.0389954 213.151 0.113212L210.936 1.41755C210.806 1.49295 210.699 1.60195 210.624 1.73342C210.55 1.86489 210.511 2.01411 210.512 2.16584V4.76411C210.512 4.91575 210.551 5.06476 210.625 5.19613C210.699 5.32751 210.806 5.4366 210.936 5.51242L213.151 6.81155C213.28 6.8883 213.426 6.92876 213.575 6.92876C213.724 6.92876 213.87 6.8883 213.999 6.81155L216.215 5.51242C216.344 5.4366 216.451 5.32751 216.525 5.19613C216.6 5.06476 216.639 4.91575 216.639 4.76411V2.16584C216.639 2.01411 216.601 1.86489 216.526 1.73342C216.452 1.60195 216.344 1.49295 216.215 1.41755Z" fill="#FF6D04"/>
<path d="M22.9861 0.78907C22.6376 0.788387 22.2925 0.857644 21.9704 0.992875C21.6483 1.12811 21.3556 1.32666 21.109 1.57716C20.8624 1.82767 20.6668 2.12522 20.5333 2.45277C20.3998 2.78033 20.3311 3.13146 20.3311 3.48607V22.0429C20.3321 22.125 20.3069 22.2051 20.2594 22.2714C20.2119 22.3376 20.1445 22.3864 20.0674 22.4104C19.9904 22.4344 19.9077 22.4323 19.8319 22.4045C19.7561 22.3766 19.6912 22.3245 19.6469 22.256L6.60683 2.96642C6.15053 2.29356 5.54028 1.74376 4.82868 1.36444C4.11709 0.985113 3.32552 0.787647 2.52223 0.78907C1.85329 0.78907 1.21175 1.05953 0.738742 1.54096C0.265731 2.02238 0 2.67533 0 3.35616V29.5675C0 30.2828 0.279181 30.9688 0.77613 31.4746C1.27308 31.9804 1.94708 32.2645 2.64988 32.2645C3.35267 32.2645 4.02668 31.9804 4.52363 31.4746C5.02058 30.9688 5.29976 30.2828 5.29976 29.5675V11.2809C5.3 11.1813 5.33147 11.0844 5.38958 11.0043C5.44768 10.9242 5.5294 10.865 5.62283 10.8355C5.71625 10.8059 5.81651 10.8074 5.90901 10.8399C6.00151 10.8723 6.08141 10.934 6.1371 11.0159L19.4886 30.7627C19.8006 31.223 20.2178 31.5993 20.7043 31.8591C21.1908 32.1189 21.7321 32.2545 22.2815 32.2541H22.8993C23.6224 32.2541 24.3158 31.9618 24.8272 31.4414C25.3385 30.921 25.6257 30.2151 25.6257 29.4792V3.49647C25.6271 3.14229 25.5599 2.79132 25.4279 2.46358C25.296 2.13584 25.1019 1.83775 24.8568 1.58635C24.6117 1.33494 24.3203 1.13514 23.9993 0.99834C23.6784 0.861543 23.3341 0.790432 22.9861 0.78907Z" fill="#161516"/>
<path d="M99.6942 1.13867H78.2195C77.6101 1.13867 77.0257 1.38504 76.5948 1.82358C76.1639 2.26213 75.9219 2.85692 75.9219 3.47712C75.9219 4.09731 76.1639 4.6921 76.5948 5.13064C77.0257 5.56918 77.6101 5.81556 78.2195 5.81556H86.307V30.8213C86.307 31.2982 86.4931 31.7555 86.8244 32.0927C87.1557 32.4299 87.605 32.6193 88.0735 32.6193H89.9525C90.3912 32.6193 90.812 32.4419 91.1222 32.1262C91.4324 31.8104 91.6067 31.3822 91.6067 30.9356V5.81556H99.6942C100.304 5.81556 100.888 5.56918 101.319 5.13064C101.75 4.6921 101.992 4.09731 101.992 3.47712C101.992 2.85692 101.75 2.26213 101.319 1.82358C100.888 1.38504 100.304 1.13867 99.6942 1.13867Z" fill="#161516"/>
<path d="M49.5838 26.0337V16.5448C49.6188 15.1781 49.3862 13.8179 48.8996 12.5435C48.4847 11.4931 47.826 10.5606 46.9799 9.82571C46.1076 9.09396 45.0906 8.56222 43.9981 8.26675C42.7233 7.9155 41.4078 7.74071 40.0871 7.7471C38.7726 7.73111 37.4625 7.90609 36.1965 8.26675C35.1383 8.56893 34.1433 9.06558 33.2607 9.73218C32.4787 10.3268 31.831 11.0852 31.3614 11.9563C30.9 12.8228 30.6349 13.7833 30.5853 14.7676H35.3132C35.3632 14.3647 35.5004 13.9781 35.715 13.6358C35.9295 13.2934 36.2161 13.0037 36.5539 12.7877C37.2585 12.3097 38.3631 12.0706 39.8676 12.0706C41.5423 12.0706 42.771 12.4067 43.5539 13.0787C44.3368 13.7508 44.7282 14.9876 44.7282 16.7891V18.0934H37.4372C34.7584 18.0934 32.7246 18.6702 31.3359 19.8239C29.9471 20.9775 29.2561 22.7391 29.2629 25.1087C29.2454 26.1219 29.4187 27.1291 29.7735 28.076C30.1176 28.9636 30.6392 29.7688 31.3052 30.4404C32.0208 31.1326 32.8715 31.6637 33.8019 31.9994C34.8867 32.3899 36.0314 32.58 37.1819 32.5606C38.9415 32.6186 40.6856 32.2084 42.2417 31.3706C43.4606 30.7266 44.4672 29.7329 45.1367 28.5125C45.1367 29.2296 45.1367 29.8324 45.2031 30.3105V30.3572C45.2463 30.8245 45.4591 31.2586 45.7999 31.5748C46.1407 31.8909 46.5851 32.0664 47.0462 32.0669H47.7764C48.0305 32.0653 48.2816 32.0109 48.5142 31.9069C48.7469 31.803 48.9562 31.6517 49.1293 31.4623C49.3024 31.273 49.4357 31.0497 49.5209 30.806C49.606 30.5623 49.6414 30.3035 49.6246 30.0455C49.6246 29.7995 49.6144 29.55 49.594 29.2971C49.5872 28.386 49.5838 27.2982 49.5838 26.0337ZM44.7282 23.1133C44.7413 23.8862 44.5658 24.6504 44.2177 25.3374C43.8895 25.9711 43.4295 26.5244 42.8698 26.9587C42.279 27.4069 41.6129 27.7415 40.904 27.946C40.1359 28.1727 39.3398 28.2864 38.5401 28.2838C37.039 28.2838 35.9412 27.9876 35.2469 27.3848C34.9104 27.0918 34.6437 26.7249 34.4668 26.3117C34.2899 25.8986 34.2075 25.4499 34.2257 24.9996C34.1993 24.538 34.2891 24.0771 34.4865 23.6606C34.684 23.2441 34.9826 22.8858 35.3541 22.6196C36.2407 22.0396 37.2832 21.7562 38.3358 21.8089H44.7435L44.7282 23.1133Z" fill="#161516"/>
<path d="M66.4505 7.77797C64.7185 7.69936 63.0053 8.17158 61.549 9.12907C60.3803 9.91238 59.4348 10.9948 58.8072 12.2678V10.5633C58.7796 9.97372 58.5301 9.41757 58.1104 9.01024C57.6907 8.6029 57.133 8.37566 56.553 8.37566C55.9731 8.37566 55.4154 8.6029 54.9957 9.01024C54.5759 9.41757 54.3264 9.97372 54.2988 10.5633V30.2166C54.2988 30.7183 54.4946 31.1994 54.8432 31.5542C55.1917 31.9089 55.6644 32.1082 56.1573 32.1082H57.301C57.7939 32.1082 58.2666 31.9089 58.6152 31.5542C58.9637 31.1994 59.1595 30.7183 59.1595 30.2166V18.1659C59.1588 17.3963 59.2706 16.631 59.4914 15.895C59.7008 15.1873 60.0481 14.5299 60.5125 13.9619C60.9983 13.3866 61.6011 12.9256 62.2791 12.6108C63.1079 12.2444 64.0053 12.067 64.9086 12.0911C66.7926 12.0911 68.1507 12.6108 68.9932 13.6189C69.8356 14.627 70.2339 16.1496 70.2339 18.1607V30.2114C70.2339 30.7131 70.4297 31.1942 70.7782 31.549C71.1267 31.9037 71.5994 32.103 72.0924 32.103H73.236C73.7289 32.103 74.2017 31.9037 74.5502 31.549C74.8987 31.1942 75.0945 30.7131 75.0945 30.2114V17.0434C75.0945 14.0121 74.3729 11.71 72.9297 10.1372C71.4865 8.56438 69.3267 7.77797 66.4505 7.77797Z" fill="#161516"/>
<path d="M117.269 8.25591C116.367 8.24251 115.467 8.3633 114.599 8.61447C113.868 8.83197 113.169 9.14832 112.521 9.55504C111.94 9.92437 111.423 10.3878 110.989 10.9269C110.592 11.4207 110.25 11.9575 109.968 12.5275V3.57902C109.968 2.92299 109.712 2.29384 109.256 1.82995C108.8 1.36607 108.182 1.10547 107.538 1.10547C106.893 1.10547 106.275 1.36607 105.819 1.82995C105.363 2.29384 105.107 2.92299 105.107 3.57902V30.6894C105.107 31.191 105.303 31.6722 105.652 32.0269C106 32.3816 106.473 32.5809 106.966 32.5809H108.12C108.613 32.5809 109.085 32.3816 109.434 32.0269C109.783 31.6722 109.978 31.191 109.978 30.6894V18.6438C109.976 17.8745 110.086 17.1092 110.305 16.3729C110.514 15.6633 110.861 15.004 111.326 14.4346C111.81 13.8586 112.413 13.399 113.093 13.0887C113.921 12.7218 114.819 12.5445 115.722 12.569C117.605 12.569 118.966 13.0887 119.807 14.128C120.648 15.1673 121.059 16.6812 121.042 18.6698V30.7154C121.042 31.217 121.238 31.6981 121.587 32.0529C121.935 32.4076 122.408 32.6069 122.901 32.6069H124.045C124.538 32.6069 125.01 32.4076 125.359 32.0529C125.707 31.6981 125.903 31.217 125.903 30.7154V17.5161C125.903 14.4918 125.182 12.1914 123.738 10.6151C122.295 9.03885 120.139 8.25244 117.269 8.25591Z" fill="#161516"/>
<path d="M140.637 8.25809C139.193 8.24841 137.758 8.49097 136.395 8.97522C135.086 9.44355 133.889 10.1872 132.882 11.1578C131.831 12.179 131.011 13.4201 130.477 14.7953C129.85 16.4517 129.548 18.2172 129.589 19.9919V20.8909C129.548 22.7386 129.864 24.5764 130.518 26.3005C131.073 27.7343 131.924 29.0298 133.015 30.0992C134.06 31.103 135.302 31.8699 136.66 32.3493C138.081 32.8479 139.574 33.0974 141.077 33.0872C143.439 33.1603 145.77 32.5203 147.775 31.2476C149.038 30.4165 150.032 29.2255 150.635 27.8231C150.725 27.607 150.761 27.3714 150.74 27.1375C150.719 26.9036 150.641 26.6787 150.514 26.483C150.386 26.2872 150.213 26.1268 150.009 26.016C149.806 25.9053 149.579 25.8477 149.348 25.8484H147.265C147.016 25.8519 146.773 25.922 146.56 26.0515C146.347 26.1811 146.171 26.3655 146.05 26.5863C145.731 27.1385 145.292 27.6094 144.768 27.9634C143.989 28.5038 142.758 28.774 141.077 28.774C140.262 28.7755 139.451 28.6529 138.672 28.4103C137.882 28.1823 137.153 27.7748 136.54 27.2185C135.927 26.6623 135.446 25.9717 135.133 25.1988C134.739 24.2085 134.538 23.1495 134.541 22.0809H151.681V19.545C151.681 15.9178 150.732 13.129 148.832 11.1785C146.933 9.22811 144.201 8.25463 140.637 8.25809ZM134.541 18.3758C134.54 17.4522 134.735 16.5393 135.113 15.6995C135.436 14.9996 135.913 14.3845 136.507 13.9015C137.09 13.4178 137.767 13.0638 138.493 12.8622C139.264 12.6502 140.059 12.5436 140.857 12.5452C141.639 12.5419 142.419 12.6326 143.18 12.8155C143.884 12.9756 144.538 13.3098 145.085 13.7883C145.631 14.2668 146.054 14.8751 146.315 15.5592C146.653 16.4495 146.826 17.3955 146.826 18.3498L134.541 18.3758Z" fill="#161516"/>
<path d="M168.103 8.34176C167.553 8.27037 166.998 8.24084 166.444 8.25342C164.996 8.20453 163.579 8.68165 162.446 9.59932C161.41 10.4356 160.607 11.534 160.118 12.7848V11.0388C160.09 10.4492 159.841 9.89302 159.421 9.48568C159.001 9.07835 158.443 8.85111 157.864 8.85111C157.284 8.85111 156.726 9.07835 156.306 9.48568C155.886 9.89302 155.637 10.4492 155.609 11.0388V30.6869C155.609 31.1885 155.805 31.6697 156.154 32.0244C156.502 32.3791 156.975 32.5784 157.468 32.5784H158.612C159.104 32.5784 159.577 32.3791 159.926 32.0244C160.274 31.6697 160.47 31.1885 160.47 30.6869V18.6413C160.469 17.8718 160.581 17.1064 160.802 16.3704C161.013 15.6621 161.36 15.0033 161.823 14.4321C162.285 13.8612 162.866 13.4016 163.523 13.0862C164.305 12.7206 165.16 12.5428 166.02 12.5665C166.523 12.5615 167.025 12.5998 167.521 12.6809L167.776 12.7328C167.91 12.7596 168.047 12.7561 168.179 12.7226C168.311 12.6891 168.434 12.6265 168.539 12.5392C168.644 12.4519 168.729 12.342 168.788 12.2174C168.847 12.0928 168.878 11.9565 168.879 11.8182V9.25635C168.879 9.03452 168.801 8.82012 168.658 8.65223C168.516 8.48435 168.319 8.37416 168.103 8.34176Z" fill="#161516"/>
<path d="M197.893 8.25665C196.379 8.22251 194.891 8.6614 193.629 9.51421C192.417 10.3369 191.434 11.4646 190.775 12.788C190.393 11.4744 189.603 10.3222 188.524 9.50382C187.436 8.66198 185.92 8.24626 183.974 8.24626C183.238 8.241 182.506 8.36222 181.81 8.60482C181.139 8.83808 180.506 9.17078 179.931 9.59216C179.359 10.0082 178.844 10.4992 178.399 11.0524C177.977 11.5828 177.623 12.1661 177.347 12.788V11.042C177.32 10.4524 177.07 9.89625 176.65 9.48892C176.231 9.08158 175.673 8.85434 175.093 8.85434C174.513 8.85434 173.955 9.08158 173.536 9.48892C173.116 9.89625 172.866 10.4524 172.839 11.042V30.6901C172.839 31.1918 173.035 31.6729 173.383 32.0276C173.732 32.3824 174.204 32.5817 174.697 32.5817H175.841C176.334 32.5817 176.807 32.3824 177.155 32.0276C177.504 31.6729 177.7 31.1918 177.7 30.6901V18.4159C177.637 16.9233 178.047 15.4496 178.869 14.2119C179.65 13.1206 180.834 12.5698 182.443 12.5698C183.033 12.5416 183.623 12.6462 184.169 12.8761C184.715 13.1061 185.205 13.4557 185.603 13.9001C186.379 14.7835 186.772 16.2905 186.772 18.4159V30.6901C186.772 31.1918 186.968 31.6729 187.317 32.0276C187.665 32.3824 188.138 32.5817 188.631 32.5817H189.775C190.268 32.5817 190.74 32.3824 191.089 32.0276C191.437 31.6729 191.633 31.1918 191.633 30.6901V18.4159C191.57 16.9233 191.98 15.4496 192.802 14.2119C193.583 13.1206 194.768 12.5698 196.376 12.5698C196.963 12.5455 197.547 12.6519 198.088 12.8817C198.63 13.1115 199.116 13.4591 199.511 13.9001C200.287 14.7835 200.68 16.2905 200.68 18.4159V30.6901C200.68 31.1918 200.876 31.6729 201.225 32.0276C201.573 32.3824 202.046 32.5817 202.539 32.5817H203.683C204.176 32.5817 204.648 32.3824 204.997 32.0276C205.345 31.6729 205.541 31.1918 205.541 30.6901V17.2934C205.541 14.2067 204.879 11.9289 203.555 10.46C202.231 8.99109 200.344 8.25665 197.893 8.25665Z" fill="#161516"/>
<path d="M213.44 8.75C213.121 8.75 212.804 8.81415 212.509 8.93878C212.214 9.06341 211.946 9.24608 211.72 9.47632C211.494 9.70656 211.315 9.97986 211.193 10.2806C211.071 10.5813 211.009 10.9035 211.01 11.2287V30.695C211.01 31.1967 211.206 31.6778 211.554 32.0325C211.903 32.3872 212.375 32.5865 212.868 32.5865H214.007C214.5 32.5865 214.972 32.3872 215.321 32.0325C215.67 31.6778 215.865 31.1967 215.865 30.695V11.2287C215.866 10.9039 215.804 10.5821 215.682 10.2818C215.561 9.9814 215.382 9.70833 215.157 9.47816C214.932 9.24799 214.664 9.06521 214.37 8.94028C214.075 8.81534 213.759 8.75068 213.44 8.75Z" fill="#161516"/>
<path d="M240.679 29.633L234.286 19.9882L239.754 12.1934C239.961 11.9645 240.118 11.6935 240.214 11.3983C240.31 11.1031 240.344 10.7904 240.312 10.4811C240.28 10.1718 240.184 9.87283 240.03 9.60415C239.876 9.33547 239.668 9.10317 239.419 8.92268C239.17 8.7422 238.887 8.61765 238.587 8.5573C238.287 8.49696 237.978 8.5022 237.681 8.57268C237.383 8.64315 237.104 8.77726 236.861 8.96608C236.618 9.15491 236.417 9.39414 236.272 9.66789L231.31 16.7508L226.229 9.66789C226.028 9.38837 225.766 9.16088 225.462 9.00381C225.159 8.84673 224.824 8.76448 224.483 8.7637H224.284C223.888 8.76331 223.5 8.87395 223.162 9.08348C222.823 9.29301 222.549 9.59333 222.367 9.95145C222.186 10.3096 222.105 10.7117 222.133 11.1136C222.161 11.5155 222.298 11.9017 222.528 12.2298L228.103 20.1701L221.685 29.6122C221.492 29.8963 221.379 30.2287 221.359 30.5734C221.338 30.9181 221.411 31.262 221.569 31.5677C221.727 31.8734 221.964 32.1293 222.254 32.3076C222.545 32.486 222.878 32.58 223.217 32.5794H224.065C224.368 32.5771 224.666 32.4991 224.933 32.3523C225.2 32.2056 225.428 31.9945 225.596 31.7376L231.1 23.3192L236.517 31.7272C236.685 31.9861 236.912 32.1992 237.179 32.3478C237.446 32.4964 237.745 32.5759 238.049 32.5794H239.116C239.456 32.5849 239.79 32.4955 240.083 32.3209C240.376 32.1463 240.616 31.8932 240.777 31.5892C240.938 31.2853 241.014 30.9421 240.997 30.5971C240.979 30.2522 240.869 29.9187 240.679 29.633Z" fill="#161516"/>
</g>
<defs>
<clipPath id="clip0_966_989">
<rect width="241" height="33.092" fill="white"/>
</clipPath>
</defs>
</svg>
