<svg xmlns="http://www.w3.org/2000/svg" width="578" height="660" viewBox="0 0 578 660" fill="none">
  <path fill-rule="evenodd" clip-rule="evenodd" d="M277.256 644.581C277.109 645.363 277.032 646.17 277.032 646.995C277.032 654.178 282.854 660 290.037 660C297.219 660 303.041 654.178 303.041 646.995C303.041 646.513 303.015 646.037 302.964 645.569L556.736 499.054C558.982 500.902 561.859 502.012 564.995 502.012C572.178 502.012 578 496.19 578 489.008C578 483.643 574.751 479.036 570.114 477.049L570.114 182.147C574.751 180.159 578 175.553 578 170.188C578 163.005 572.178 157.183 564.995 157.183C561.488 157.183 558.305 158.571 555.966 160.829L302.927 14.7367C303.003 14.17 303.041 13.5918 303.041 13.0045C303.041 5.82212 297.219 -0.000268687 290.037 -0.000269315C282.854 -0.000269943 277.032 5.82212 277.032 13.0045C277.032 13.933 277.129 14.8386 277.314 15.712L23.516 162.243C21.1376 159.165 17.4104 157.184 13.2205 157.184C6.03813 157.184 0.215681 163.006 0.21568 170.189C0.215679 176.897 5.29466 182.419 11.8169 183.119L11.8168 476.801C5.29463 477.501 0.215653 483.022 0.215652 489.731C0.215651 496.913 6.0381 502.735 13.2205 502.735C17.2822 502.735 20.9091 500.873 23.2939 497.956L277.256 644.581ZM25.5603 493.847L278.974 640.155C281.266 636.455 285.364 633.99 290.037 633.99C295.041 633.99 299.386 636.817 301.56 640.962L553.671 495.406C552.601 493.517 551.99 491.334 551.99 489.008C551.99 481.825 557.813 476.003 564.995 476.003C565.138 476.003 565.28 476.005 565.422 476.01L565.422 183.186C565.28 183.19 565.138 183.193 564.995 183.193C557.813 183.193 551.99 177.37 551.99 170.188C551.99 168.212 552.431 166.338 553.22 164.661L301.426 19.2873C299.21 23.2951 294.94 26.0093 290.037 26.0093C285.465 26.0093 281.445 23.6505 279.126 20.0836L25.6697 166.417C26.031 167.61 26.2253 168.877 26.2253 170.189C26.2253 176.235 22.0989 181.318 16.5086 182.774L16.5086 477.145C22.0988 478.601 26.2252 483.684 26.2252 489.731C26.2252 491.169 25.9917 492.553 25.5603 493.847Z" fill="white"/>
</svg>