<svg width="53" height="56" viewBox="0 0 53 56" fill="none" xmlns="http://www.w3.org/2000/svg">
<path d="M25.6939 23.7902C25.8085 24.0702 26.0567 24.2802 26.3558 24.3375C26.4131 24.3502 26.4704 24.3566 26.5276 24.3566C26.7695 24.3566 27.005 24.2611 27.1768 24.0829C27.2977 23.9557 27.4186 23.8284 27.5396 23.7074C35.0558 15.8221 40.1409 8.89133 40.911 7.6312C41.1719 7.21116 41.0383 6.65746 40.6119 6.40289C40.1918 6.14195 39.6381 6.2756 39.3835 6.70201C38.658 7.89214 33.9484 14.301 26.8968 21.7854C26.3431 19.8889 26.1203 17.7695 26.2349 15.4848C26.4513 11.1825 27.8387 7.03296 28.9588 4.79272C29.1816 4.34722 29.0034 3.81261 28.5579 3.58986C28.1187 3.36711 27.5778 3.54531 27.355 3.99082C26.1585 6.39016 24.6756 10.8134 24.4401 15.3957C24.3065 18.075 24.5993 20.5571 25.3184 22.7719C25.4266 23.1156 25.5539 23.4592 25.6876 23.7965L25.6939 23.7902Z" fill="url(#paint0_linear_1388_1457)"/>
<path d="M51.5715 13.0918C51.1514 12.8309 50.5977 12.9645 50.3431 13.3909C49.0576 15.4975 43.5397 22.9374 35.5398 31.3319C32.714 34.2977 29.8755 37.0598 27.0625 39.5992C26.216 39.3255 25.1532 39.2109 24.7841 39.1728C23.8167 39.0837 22.512 39.0646 21.7801 39.4464C21.5446 39.5674 21.3346 39.6946 21.1246 39.8219C20.4882 40.2038 19.8899 40.5602 18.7253 40.7575C16.8096 41.0757 15.3331 42.0494 14.5694 43.5005C14.1175 44.3533 13.5893 44.6906 12.3928 45.3207C10.859 46.1226 10.789 47.8282 10.7444 48.8401C10.7444 48.9547 10.738 49.0565 10.7317 49.1584C10.6935 49.8139 10.2798 50.5076 9.88522 51.1822C9.82795 51.284 9.7643 51.3859 9.70702 51.4813C9.36971 52.0669 9.19788 52.4424 9.10878 52.7669C8.11595 53.3143 7.12948 53.8298 6.15574 54.3007C5.71024 54.5171 5.52567 55.0517 5.74206 55.4972C5.8948 55.8154 6.21302 56 6.55033 56C6.68398 56 6.81763 55.9682 6.93855 55.9109C12.1446 53.3779 17.6242 49.7884 23.2248 45.2443C24.7523 44.0033 26.2861 42.6922 27.8326 41.3175L27.8453 41.3048C30.8365 38.6318 33.8469 35.7106 36.8444 32.5666C44.9462 24.0703 50.5659 16.4776 51.8833 14.3265C52.1442 13.9065 52.0106 13.3528 51.5842 13.0982L51.5715 13.0918ZM22.0792 43.8569C18.6425 46.6445 15.2631 49.0629 11.9664 51.0868C12.24 50.5331 12.4628 49.9157 12.501 49.2602C12.5073 49.1456 12.5137 49.0311 12.52 48.9102C12.5582 47.9237 12.6346 47.2045 13.2074 46.899C14.5248 46.2117 15.4349 45.658 16.1413 44.3342C16.6441 43.3859 17.6624 42.7431 19.0116 42.5204C20.5136 42.2722 21.3219 41.7821 22.0411 41.3557C22.2384 41.2412 22.4166 41.1266 22.6075 41.0311C22.7475 40.9611 23.4285 40.8466 24.6313 40.9548C24.9114 40.9802 25.1787 41.012 25.4205 41.0502C24.3068 42.024 23.193 42.9595 22.092 43.8569H22.0792Z" fill="url(#paint1_linear_1388_1457)"/>
<path d="M8.70783 42.9786C8.79056 42.9786 8.86694 42.9786 8.94331 42.9723C10.1016 42.8959 10.7189 42.4122 11.6354 41.6294C11.8518 41.4448 12.31 41.2921 12.7555 41.1393C13.5765 40.8657 14.6012 40.522 15.2249 39.6437C15.4985 39.2555 15.6958 39.02 15.8868 38.7845C16.2177 38.3772 16.5105 38.0272 16.956 37.1871C17.2551 36.6334 17.5097 36.3852 17.8342 36.0733C18.1206 35.7933 18.4516 35.4815 18.7825 34.966C19.489 33.8777 19.4381 32.5093 19.298 31.6947C19.9599 31.1028 20.6218 30.4982 21.2901 29.8745C21.5956 29.5881 21.6656 29.1362 21.4555 28.7735C20.7045 27.4688 20.0872 26.0686 19.6163 24.6112C18.6743 21.7027 18.2798 18.4951 18.4516 15.0838C18.7253 9.58508 20.4627 4.35362 21.9901 1.29875C22.2129 0.85325 22.0347 0.318648 21.5892 0.095897C21.1437 -0.126854 20.6091 0.051347 20.3863 0.496849C18.7762 3.71719 16.9496 9.21595 16.6632 14.9947C16.4787 18.6224 16.8987 22.0464 17.9106 25.1649C18.3498 26.5078 18.8971 27.8125 19.5526 29.0408C18.9416 29.6072 18.3307 30.1545 17.7261 30.6955C17.707 30.7082 17.6942 30.721 17.6751 30.7401C13.1119 34.7878 8.72692 38.0717 4.57103 40.5538C4.54557 40.5665 4.51375 40.5856 4.48829 40.6047C3.13269 41.413 1.80892 42.1322 0.504232 42.7622C0.0587299 42.9786 -0.125835 43.5132 0.0905511 43.9587C0.243295 44.2769 0.56151 44.4615 0.898819 44.4615C1.03247 44.4615 1.16612 44.4297 1.28704 44.3724C2.53445 43.7614 3.80731 43.0804 5.10563 42.3167C5.87571 42.5395 7.56225 42.985 8.6951 42.985L8.70783 42.9786ZM17.2806 33.9986C17.0578 34.3423 16.8414 34.5459 16.5932 34.7878C16.2241 35.1442 15.804 35.5451 15.3713 36.347C15.0021 37.028 14.7985 37.2762 14.493 37.6581C14.3021 37.8872 14.0666 38.1799 13.7611 38.6127C13.4747 39.0137 12.8255 39.23 12.1891 39.4401C11.5781 39.6437 10.9481 39.8537 10.4644 40.2674C9.64975 40.9675 9.38244 41.1457 8.82238 41.1839C8.45326 41.2093 7.86774 41.1202 7.2504 40.993C10.5662 38.8736 14.0029 36.277 17.5542 33.2221C17.5097 33.4958 17.4269 33.7631 17.2742 33.9922L17.2806 33.9986Z" fill="url(#paint2_linear_1388_1457)"/>
<path d="M21.9583 8.16584C21.9583 8.16584 21.9074 8.1913 21.882 8.20403C21.8565 8.21676 21.831 8.23585 21.8056 8.24858C21.7801 8.26767 21.7547 8.2804 21.7356 8.29949C21.7101 8.31859 21.691 8.33768 21.6719 8.35677C21.6528 8.37586 21.6337 8.40132 21.6146 8.42041C21.5956 8.44587 21.5765 8.46497 21.5637 8.49042C21.5446 8.51588 21.5319 8.54134 21.5192 8.56679C21.5065 8.59225 21.4937 8.61771 21.481 8.64317C21.4683 8.66862 21.4619 8.70044 21.4492 8.7259C21.4428 8.75136 21.4365 8.78318 21.4301 8.80864C21.4301 8.84046 21.4174 8.86592 21.4174 8.89774C21.4174 8.92956 21.4174 8.95502 21.4174 8.98684C21.4174 9.01866 21.4174 9.04412 21.4174 9.07594C21.4174 9.10776 21.4237 9.13322 21.4301 9.16504C21.4301 9.1905 21.4428 9.22232 21.4492 9.24778C21.4555 9.27323 21.4683 9.30505 21.481 9.33051C21.4937 9.35597 21.5065 9.38143 21.5192 9.40688C21.5319 9.43234 21.551 9.4578 21.5637 9.48326C21.5828 9.50871 21.5956 9.53417 21.6146 9.55326C21.6337 9.57872 21.6528 9.59781 21.6719 9.61691C21.691 9.636 21.7165 9.65509 21.7356 9.67418C21.761 9.69328 21.7801 9.71237 21.8056 9.7251C21.831 9.74419 21.8565 9.75692 21.882 9.76965C21.9074 9.78238 21.9329 9.79511 21.9583 9.80783C21.9838 9.82056 22.0156 9.82693 22.0411 9.83966C22.0665 9.84602 22.0983 9.85239 22.1238 9.85875C22.1556 9.85875 22.1811 9.87148 22.2129 9.87148C22.2447 9.87148 22.2702 9.87148 22.302 9.87148C22.3338 9.87148 22.3593 9.87148 22.3911 9.87148C22.4229 9.87148 22.4484 9.86511 22.4802 9.85875C22.512 9.85239 22.5375 9.84602 22.5629 9.83966C22.5884 9.83329 22.6202 9.82056 22.6457 9.80783C22.6711 9.79511 22.6966 9.78238 22.722 9.76965C22.7475 9.75692 22.773 9.73783 22.7984 9.7251C22.8239 9.70601 22.8493 9.69328 22.8684 9.67418C22.8939 9.65509 22.913 9.636 22.9321 9.61691C22.9512 9.59781 22.9702 9.57236 22.9893 9.55326C23.0084 9.52781 23.0275 9.50871 23.0403 9.48326C23.0593 9.4578 23.0721 9.43234 23.0848 9.40688C23.0975 9.38143 23.1103 9.35597 23.123 9.33051C23.1357 9.30505 23.1421 9.27323 23.1548 9.24778C23.1612 9.22232 23.1675 9.1905 23.1739 9.16504C23.1739 9.13322 23.1866 9.10776 23.1866 9.07594C23.1866 9.04412 23.1866 9.01866 23.1866 8.98684C23.1866 8.95502 23.1866 8.92956 23.1866 8.89774C23.1866 8.86592 23.1803 8.84046 23.1739 8.80864C23.1739 8.78318 23.1612 8.75136 23.1548 8.7259C23.1484 8.70044 23.1357 8.66862 23.123 8.64317C23.1103 8.61771 23.0975 8.59225 23.0848 8.56679C23.0721 8.54134 23.053 8.51588 23.0403 8.49042C23.0212 8.46497 23.0084 8.43951 22.9893 8.42041C22.9702 8.39496 22.9512 8.37586 22.9321 8.35677C22.913 8.33768 22.8875 8.31859 22.8684 8.29949C22.843 8.2804 22.8239 8.26131 22.7984 8.24858C22.773 8.22949 22.7475 8.21676 22.722 8.20403C22.6966 8.1913 22.6711 8.17857 22.6457 8.16584C22.6202 8.15311 22.5884 8.14675 22.5629 8.13402C22.5375 8.12766 22.5057 8.12129 22.4802 8.11493C22.4547 8.11493 22.4229 8.1022 22.3911 8.1022C22.3338 8.1022 22.2765 8.1022 22.2129 8.1022C22.1811 8.1022 22.1556 8.10856 22.1238 8.11493C22.0983 8.11493 22.0665 8.12766 22.0411 8.13402C22.0156 8.14039 21.9838 8.15311 21.9583 8.16584Z" fill="url(#paint3_linear_1388_1457)"/>
<path d="M21.4619 17.1904C21.4619 17.1904 21.481 17.1332 21.4937 17.1077C21.5001 17.0822 21.5128 17.0504 21.5128 17.025C21.5128 16.9931 21.5255 16.9677 21.5255 16.9359C21.5255 16.904 21.5255 16.8786 21.5255 16.8468C21.5255 16.8149 21.5255 16.7895 21.5255 16.7577C21.5255 16.7258 21.5192 16.7004 21.5128 16.6686C21.5128 16.6431 21.5001 16.6113 21.4937 16.5858C21.4874 16.5604 21.4746 16.5285 21.4619 16.5031C21.4492 16.4776 21.4364 16.4522 21.4237 16.4267C21.411 16.4013 21.3919 16.3758 21.3792 16.3503C21.3601 16.3249 21.3474 16.2994 21.3283 16.2803C21.3092 16.2549 21.2901 16.2358 21.271 16.2167C21.2519 16.1976 21.2264 16.1785 21.2073 16.1594C21.1819 16.1403 21.1628 16.1212 21.1373 16.1085C21.1119 16.0894 21.0864 16.0767 21.061 16.064C21.0355 16.0512 21.01 16.0385 20.9846 16.0258C20.9591 16.013 20.9273 16.0067 20.9018 15.9939C20.8764 15.9876 20.8446 15.9749 20.8191 15.9749C20.7873 15.9749 20.7618 15.9621 20.73 15.9621C20.6727 15.9621 20.6155 15.9621 20.5518 15.9621C20.52 15.9621 20.4945 15.9685 20.4627 15.9749C20.4373 15.9749 20.4054 15.9876 20.38 15.9939C20.3545 16.0003 20.3227 16.013 20.2972 16.0258C20.2718 16.0385 20.2463 16.0512 20.2209 16.064C20.1954 16.0767 20.17 16.0958 20.1445 16.1085C20.119 16.1276 20.0936 16.1403 20.0745 16.1594C20.049 16.1785 20.0299 16.1976 20.0108 16.2167C19.9918 16.2358 19.9727 16.2612 19.9536 16.2803C19.9345 16.3058 19.9154 16.3249 19.9026 16.3503C19.8836 16.3758 19.8708 16.4013 19.8581 16.4267C19.8454 16.4522 19.8326 16.4776 19.8199 16.5031C19.8072 16.5285 19.8008 16.5604 19.7881 16.5858C19.7817 16.6113 19.769 16.6431 19.769 16.6686C19.769 16.7004 19.7563 16.7258 19.7563 16.7577C19.7563 16.7895 19.7563 16.8149 19.7563 16.8468C19.7563 16.8786 19.7563 16.904 19.7563 16.9359C19.7563 16.9677 19.7626 16.9931 19.769 17.025C19.769 17.0504 19.7817 17.0822 19.7881 17.1077C19.7945 17.1332 19.8072 17.165 19.8199 17.1904C19.8326 17.2159 19.8454 17.2414 19.8581 17.2668C19.8708 17.2923 19.8899 17.3177 19.9026 17.3432C19.9217 17.3686 19.9345 17.3941 19.9536 17.4132C19.9727 17.4386 19.9918 17.4577 20.0108 17.4768C20.0299 17.4959 20.0554 17.515 20.0745 17.5341C20.0999 17.5532 20.119 17.5723 20.1445 17.585C20.17 17.6041 20.1954 17.6168 20.2209 17.6296C20.2463 17.6423 20.2718 17.655 20.2972 17.6678C20.3227 17.6805 20.3545 17.6869 20.38 17.6996C20.4054 17.7059 20.4373 17.7187 20.4627 17.7187C20.4945 17.7187 20.52 17.7314 20.5518 17.7314C20.5836 17.7314 20.6091 17.7314 20.6409 17.7314C20.6727 17.7314 20.6982 17.7314 20.73 17.7314C20.7618 17.7314 20.7873 17.725 20.8191 17.7187C20.8446 17.7187 20.8764 17.7059 20.9018 17.6996C20.9273 17.6932 20.9591 17.6805 20.9846 17.6678C21.01 17.655 21.0355 17.6423 21.061 17.6296C21.0864 17.6168 21.1119 17.5978 21.1373 17.585C21.1628 17.5659 21.1882 17.5532 21.2073 17.5341C21.2328 17.515 21.2519 17.4959 21.271 17.4768C21.2901 17.4577 21.3092 17.4323 21.3283 17.4132C21.3474 17.3877 21.3664 17.3686 21.3792 17.3432C21.3983 17.3177 21.411 17.2923 21.4237 17.2668C21.4364 17.2414 21.4492 17.2159 21.4619 17.1904Z" fill="url(#paint4_linear_1388_1457)"/>
<path d="M21.4174 22.8547C21.4174 22.8547 21.4301 22.912 21.4364 22.9374C21.4428 22.9629 21.4555 22.9947 21.4683 23.0201C21.481 23.0456 21.4937 23.0711 21.5065 23.0965C21.5192 23.122 21.5383 23.1474 21.551 23.1729C21.5701 23.1983 21.5828 23.2238 21.6019 23.2429C21.621 23.2684 21.6401 23.2874 21.6592 23.3065C21.6783 23.3256 21.7038 23.3447 21.7228 23.3638C21.7419 23.3829 21.7674 23.402 21.7929 23.4147C21.8183 23.4338 21.8438 23.4466 21.8692 23.4593C21.8947 23.472 21.9201 23.4847 21.9456 23.4975C21.9711 23.5102 22.0029 23.5166 22.0283 23.5293C22.0538 23.5357 22.0856 23.542 22.1111 23.5484C22.1429 23.5484 22.1683 23.5611 22.2002 23.5611C22.232 23.5611 22.2574 23.5611 22.2893 23.5611C22.3211 23.5611 22.3465 23.5611 22.3784 23.5611C22.4102 23.5611 22.4356 23.5547 22.4675 23.5484C22.4993 23.5484 22.5247 23.5357 22.5502 23.5293C22.5757 23.5229 22.6075 23.5102 22.6329 23.4975C22.6584 23.4847 22.6839 23.472 22.7093 23.4593C22.7348 23.4466 22.7602 23.4275 22.7857 23.4147C22.8111 23.3956 22.8366 23.3829 22.8557 23.3638C22.8811 23.3447 22.9002 23.3256 22.9193 23.3065C22.9384 23.2874 22.9575 23.262 22.9766 23.2429C22.9957 23.2174 23.0148 23.1983 23.0275 23.1729C23.0466 23.1474 23.0593 23.122 23.0721 23.0965C23.0848 23.0711 23.0975 23.0456 23.1103 23.0201C23.123 22.9947 23.1294 22.9629 23.1421 22.9374C23.1484 22.912 23.1548 22.8801 23.1612 22.8547C23.1612 22.8292 23.1739 22.7974 23.1739 22.7656C23.1739 22.7337 23.1739 22.7083 23.1739 22.6765C23.1739 22.6446 23.1739 22.6192 23.1739 22.5874C23.1739 22.5555 23.1675 22.5301 23.1612 22.4983C23.1612 22.4664 23.1484 22.441 23.1421 22.4155C23.1357 22.3901 23.123 22.3583 23.1103 22.3328C23.0975 22.3073 23.0848 22.2819 23.0721 22.2564C23.0593 22.231 23.0403 22.2055 23.0275 22.1801C23.0084 22.1546 22.9957 22.1291 22.9766 22.11C22.9575 22.0846 22.9384 22.0655 22.9193 22.0464C22.9002 22.0273 22.8748 22.0082 22.8557 21.9891C22.8302 21.97 22.8111 21.9509 22.7857 21.9382C22.7602 21.9191 22.7348 21.9064 22.7093 21.8937C22.6839 21.8809 22.6584 21.8682 22.6329 21.8555C22.6075 21.8427 22.5757 21.8364 22.5502 21.8237C22.5247 21.8173 22.4929 21.8109 22.4675 21.8046C22.442 21.8046 22.4102 21.7918 22.3784 21.7918C22.3211 21.7918 22.2638 21.7918 22.2002 21.7918C22.1683 21.7918 22.1429 21.7982 22.1111 21.8046C22.0856 21.8046 22.0538 21.8173 22.0283 21.8237C22.0029 21.83 21.9711 21.8427 21.9456 21.8555C21.9201 21.8682 21.8947 21.8809 21.8692 21.8937C21.8438 21.9064 21.8183 21.9255 21.7929 21.9382C21.7674 21.9573 21.7419 21.97 21.7228 21.9891C21.6974 22.0082 21.6783 22.0273 21.6592 22.0464C21.6401 22.0655 21.621 22.091 21.6019 22.11C21.5828 22.1355 21.5637 22.1546 21.551 22.1801C21.5319 22.2055 21.5192 22.231 21.5065 22.2564C21.4937 22.2819 21.481 22.3073 21.4683 22.3328C21.4555 22.3583 21.4492 22.3901 21.4364 22.4155C21.4301 22.441 21.4237 22.4728 21.4174 22.4983C21.4174 22.5237 21.4046 22.5555 21.4046 22.5874C21.4046 22.6192 21.4046 22.6446 21.4046 22.6765C21.4046 22.7083 21.4046 22.7337 21.4046 22.7656C21.4046 22.7974 21.411 22.8228 21.4174 22.8547Z" fill="url(#paint5_linear_1388_1457)"/>
<path d="M23.0912 34.845C23.0912 34.845 23.0403 34.8769 23.0212 34.8959C22.9957 34.915 22.9766 34.9341 22.9575 34.9532C22.9384 34.9723 22.9193 34.9978 22.9002 35.0169C22.8811 35.036 22.8621 35.0614 22.8493 35.0869C22.8302 35.1123 22.8175 35.1378 22.8048 35.1632C22.792 35.1887 22.7793 35.2142 22.7666 35.2396C22.7539 35.2651 22.7475 35.2969 22.7348 35.3224C22.7284 35.3478 22.7157 35.3796 22.7157 35.4051C22.7157 35.4369 22.7029 35.4624 22.7029 35.4942C22.7029 35.526 22.7029 35.5515 22.7029 35.5833C22.7029 35.6151 22.7029 35.6406 22.7029 35.6724C22.7029 35.7042 22.7093 35.7297 22.7157 35.7615C22.7157 35.7869 22.7284 35.8188 22.7348 35.8442C22.7411 35.8697 22.7539 35.9015 22.7666 35.927C22.7793 35.9524 22.792 35.9779 22.8048 36.0033C22.8175 36.0288 22.8366 36.0542 22.8493 36.0797C22.8684 36.1052 22.8811 36.1306 22.9002 36.1497C22.9193 36.1752 22.9384 36.1943 22.9575 36.2134C22.9766 36.2325 23.0021 36.2515 23.0212 36.2706C23.0466 36.2897 23.0657 36.3088 23.0912 36.3216C23.1166 36.3406 23.1421 36.3534 23.1675 36.3661C23.193 36.3788 23.2185 36.3916 23.2439 36.4043C23.2694 36.417 23.3012 36.4234 23.3267 36.4361C23.3521 36.4425 23.3839 36.4488 23.4094 36.4552C23.4412 36.4552 23.4667 36.4679 23.4985 36.4679C23.5303 36.4679 23.5558 36.4679 23.5876 36.4679C23.6194 36.4679 23.6449 36.4679 23.6767 36.4679C23.7085 36.4679 23.734 36.4616 23.7658 36.4552C23.7912 36.4552 23.8231 36.4425 23.8485 36.4361C23.874 36.4297 23.9058 36.417 23.9313 36.4043C23.9567 36.3916 23.9822 36.3788 24.0076 36.3661C24.0331 36.3534 24.0585 36.3343 24.084 36.3216C24.1095 36.3025 24.1349 36.2897 24.154 36.2706C24.1795 36.2515 24.1986 36.2325 24.2177 36.2134C24.2367 36.1943 24.2558 36.1688 24.2749 36.1497C24.294 36.1243 24.3131 36.1052 24.3258 36.0797C24.3449 36.0542 24.3577 36.0288 24.3704 36.0033C24.3831 35.9779 24.3959 35.9524 24.4086 35.927C24.4213 35.9015 24.4277 35.8697 24.4404 35.8442C24.4468 35.8188 24.4595 35.7869 24.4595 35.7615C24.4595 35.736 24.4722 35.7042 24.4722 35.6724C24.4722 35.6406 24.4722 35.6151 24.4722 35.5833C24.4722 35.5515 24.4722 35.526 24.4722 35.4942C24.4722 35.4624 24.4659 35.4369 24.4595 35.4051C24.4595 35.3796 24.4468 35.3478 24.4404 35.3224C24.434 35.2969 24.4213 35.2651 24.4086 35.2396C24.3959 35.2142 24.3831 35.1887 24.3704 35.1632C24.3577 35.1378 24.3386 35.1123 24.3258 35.0869C24.3068 35.0614 24.294 35.036 24.2749 35.0169C24.2558 34.9914 24.2367 34.9723 24.2177 34.9532C24.1986 34.9341 24.1731 34.915 24.154 34.8959C24.1286 34.8769 24.1095 34.8578 24.084 34.845C24.0585 34.8259 24.0331 34.8132 24.0076 34.8005C23.9822 34.7878 23.9567 34.775 23.9313 34.7623C23.9058 34.7496 23.874 34.7432 23.8485 34.7305C23.8231 34.7241 23.7912 34.7177 23.7658 34.7114C23.734 34.7114 23.7085 34.6987 23.6767 34.6987C23.6194 34.6987 23.5621 34.6987 23.4985 34.6987C23.4667 34.6987 23.4412 34.705 23.4094 34.7114C23.3839 34.7114 23.3521 34.7241 23.3267 34.7305C23.3012 34.7368 23.2694 34.7496 23.2439 34.7623C23.2185 34.775 23.193 34.7878 23.1675 34.8005C23.1421 34.8132 23.1166 34.8323 23.0912 34.845Z" fill="url(#paint6_linear_1388_1457)"/>
<path d="M27.2343 34.6605C27.2343 34.6605 27.2471 34.7177 27.2534 34.7432C27.2598 34.7687 27.2725 34.8005 27.2852 34.8259C27.298 34.8514 27.3107 34.8769 27.3234 34.9023C27.3362 34.9278 27.3553 34.9532 27.368 34.9787C27.3871 35.0041 27.3998 35.0296 27.4189 35.0487C27.438 35.0741 27.4571 35.0932 27.4762 35.1123C27.4953 35.1314 27.5207 35.1505 27.5398 35.1696C27.5653 35.1887 27.5844 35.2078 27.6098 35.2205C27.6353 35.2396 27.6607 35.2523 27.6862 35.2651C27.7117 35.2778 27.7371 35.2905 27.7626 35.3033C27.788 35.316 27.8199 35.3224 27.8453 35.3351C27.8708 35.3414 27.9026 35.3542 27.928 35.3542C27.9599 35.3542 27.9853 35.3669 28.0171 35.3669C28.049 35.3669 28.0744 35.3669 28.1062 35.3669C28.1381 35.3669 28.1635 35.3669 28.1953 35.3669C28.2272 35.3669 28.2526 35.3605 28.2844 35.3542C28.3099 35.3542 28.3417 35.3414 28.3672 35.3351C28.3926 35.3287 28.4245 35.316 28.4499 35.3033C28.4754 35.2905 28.5008 35.2778 28.5263 35.2651C28.5517 35.2523 28.5772 35.2333 28.6027 35.2205C28.6281 35.2014 28.6536 35.1887 28.6727 35.1696C28.6981 35.1505 28.7172 35.1314 28.7363 35.1123C28.7554 35.0932 28.7745 35.0678 28.7936 35.0487C28.8127 35.0232 28.8318 35.0041 28.8445 34.9787C28.8636 34.9532 28.8763 34.9278 28.8891 34.9023C28.9018 34.8769 28.9145 34.8514 28.9272 34.8259C28.94 34.8005 28.9463 34.7687 28.9591 34.7432C28.9654 34.7177 28.9782 34.6859 28.9782 34.6605C28.9782 34.6286 28.9909 34.6032 28.9909 34.5714C28.9909 34.5395 28.9909 34.5141 28.9909 34.4823C28.9909 34.4504 28.9909 34.425 28.9909 34.3932C28.9909 34.3613 28.9845 34.3359 28.9782 34.3041C28.9782 34.2786 28.9654 34.2468 28.9591 34.2213C28.9527 34.1959 28.94 34.1641 28.9272 34.1386C28.9145 34.1131 28.9018 34.0877 28.8891 34.0622C28.8763 34.0368 28.8572 34.0113 28.8445 33.9859C28.8254 33.9604 28.8127 33.9349 28.7936 33.9158C28.7745 33.8904 28.7554 33.8713 28.7363 33.8522C28.7172 33.8331 28.6918 33.814 28.6727 33.7949C28.6472 33.7758 28.6281 33.7567 28.6027 33.744C28.5772 33.7249 28.5517 33.7122 28.5263 33.6995C28.5008 33.6867 28.4754 33.674 28.4499 33.6613C28.4245 33.6485 28.3926 33.6422 28.3672 33.6294C28.3417 33.6231 28.3099 33.6104 28.2844 33.6104C28.2526 33.6104 28.2272 33.5976 28.1953 33.5976C28.1381 33.5976 28.0808 33.5976 28.0171 33.5976C27.9853 33.5976 27.9599 33.604 27.928 33.6104C27.9026 33.6104 27.8708 33.6231 27.8453 33.6294C27.8199 33.6358 27.788 33.6485 27.7626 33.6613C27.7371 33.674 27.7117 33.6867 27.6862 33.6995C27.6607 33.7122 27.6353 33.7313 27.6098 33.744C27.5844 33.7631 27.5589 33.7758 27.5398 33.7949C27.5144 33.814 27.4953 33.8331 27.4762 33.8522C27.4571 33.8713 27.438 33.8968 27.4189 33.9158C27.3998 33.9413 27.3807 33.9604 27.368 33.9859C27.3489 34.0113 27.3362 34.0368 27.3234 34.0622C27.3107 34.0877 27.298 34.1131 27.2852 34.1386C27.2725 34.1641 27.2662 34.1959 27.2534 34.2213C27.2471 34.2468 27.2343 34.2786 27.2343 34.3041C27.2343 34.3359 27.2216 34.3613 27.2216 34.3932C27.2216 34.425 27.2216 34.4504 27.2216 34.4823C27.2216 34.5141 27.2216 34.5395 27.2216 34.5714C27.2216 34.6032 27.228 34.6286 27.2343 34.6605Z" fill="url(#paint7_linear_1388_1457)"/>
<path d="M27.2852 29.9827C27.2852 29.9827 27.3171 29.9318 27.3298 29.9063C27.3425 29.8809 27.3553 29.8554 27.368 29.83C27.3807 29.8045 27.3871 29.7727 27.3998 29.7472C27.4062 29.7218 27.4189 29.6899 27.4189 29.6645C27.4189 29.6327 27.4316 29.6072 27.4316 29.5754C27.4316 29.5436 27.4316 29.5181 27.4316 29.4863C27.4316 29.4545 27.4316 29.429 27.4316 29.3972C27.4316 29.3654 27.4253 29.3399 27.4189 29.3081C27.4189 29.2826 27.4062 29.2508 27.3998 29.2253C27.3934 29.1999 27.3807 29.1681 27.368 29.1426C27.3553 29.1172 27.3425 29.0917 27.3298 29.0662C27.3171 29.0408 27.298 29.0153 27.2852 28.9899C27.2662 28.9644 27.2534 28.939 27.2343 28.9199C27.2152 28.8944 27.1961 28.8753 27.1771 28.8562C27.158 28.8371 27.1325 28.818 27.1134 28.7989C27.088 28.7798 27.0689 28.7607 27.0434 28.748C27.018 28.7289 26.9925 28.7162 26.967 28.7035C26.9416 28.6907 26.9161 28.678 26.8907 28.6653C26.8652 28.6526 26.8334 28.6462 26.8079 28.6335C26.7825 28.6271 26.7506 28.6144 26.7252 28.6144C26.6934 28.6144 26.6679 28.6016 26.6361 28.6016C26.5788 28.6016 26.5152 28.6016 26.4579 28.6016C26.4261 28.6016 26.4006 28.608 26.3688 28.6144C26.3433 28.6144 26.3115 28.6271 26.2861 28.6335C26.2606 28.6398 26.2288 28.6526 26.2033 28.6653C26.1779 28.678 26.1524 28.6907 26.1269 28.7035C26.1015 28.7162 26.076 28.7353 26.0506 28.748C26.0251 28.7671 25.9997 28.7798 25.9806 28.7989C25.9551 28.818 25.936 28.8371 25.9169 28.8562C25.8978 28.8753 25.8787 28.9008 25.8596 28.9199C25.8406 28.9453 25.8215 28.9644 25.8087 28.9899C25.7896 29.0153 25.7769 29.0408 25.7642 29.0662C25.7515 29.0917 25.7387 29.1172 25.726 29.1426C25.7133 29.1681 25.7069 29.1999 25.6942 29.2253C25.6878 29.2508 25.6751 29.2826 25.6751 29.3081C25.6751 29.3399 25.6624 29.3654 25.6624 29.3972C25.6624 29.429 25.6624 29.4545 25.6624 29.4863C25.6624 29.5181 25.6624 29.5436 25.6624 29.5754C25.6624 29.6072 25.6687 29.6327 25.6751 29.6645C25.6751 29.6899 25.6878 29.7218 25.6942 29.7472C25.7005 29.7727 25.7133 29.8045 25.726 29.83C25.7387 29.8554 25.7515 29.8809 25.7642 29.9063C25.7769 29.9318 25.796 29.9572 25.8087 29.9827C25.8278 30.0082 25.8406 30.0336 25.8596 30.0527C25.8787 30.0782 25.8978 30.0973 25.9169 30.1163C25.936 30.1354 25.9615 30.1545 25.9806 30.1736C26.006 30.1927 26.0251 30.2118 26.0506 30.2245C26.076 30.2436 26.1015 30.2564 26.1269 30.2691C26.1524 30.2818 26.1779 30.2945 26.2033 30.3073C26.2288 30.32 26.2606 30.3264 26.2861 30.3391C26.3115 30.3455 26.3433 30.3582 26.3688 30.3582C26.4006 30.3582 26.4261 30.3709 26.4579 30.3709C26.4897 30.3709 26.5152 30.3709 26.547 30.3709C26.5788 30.3709 26.6043 30.3709 26.6361 30.3709C26.6679 30.3709 26.6934 30.3646 26.7252 30.3582C26.7506 30.3582 26.7825 30.3455 26.8079 30.3391C26.8334 30.3327 26.8652 30.32 26.8907 30.3073C26.9161 30.2945 26.9416 30.2818 26.967 30.2691C26.9925 30.2564 27.018 30.2373 27.0434 30.2245C27.0689 30.2055 27.0943 30.1927 27.1134 30.1736C27.1389 30.1545 27.158 30.1354 27.1771 30.1163C27.1961 30.0973 27.2152 30.0718 27.2343 30.0527C27.2534 30.0272 27.2725 30.0082 27.2852 29.9827Z" fill="url(#paint8_linear_1388_1457)"/>
<path d="M34.3305 28.3916C34.3305 28.3916 34.3114 28.3343 34.2987 28.3089C34.286 28.2834 34.2733 28.258 34.2605 28.2325C34.2478 28.2071 34.2287 28.1816 34.216 28.1561C34.1969 28.1307 34.1842 28.1052 34.1651 28.0861C34.146 28.0607 34.1269 28.0416 34.1078 28.0225C34.0887 28.0034 34.0632 27.9843 34.0441 27.9652C34.0187 27.9461 33.9996 27.927 33.9741 27.9143C33.9487 27.8952 33.9232 27.8825 33.8978 27.8697C33.8723 27.857 33.8469 27.8443 33.8214 27.8316C33.7959 27.8188 33.7641 27.8125 33.7387 27.7997C33.7132 27.7934 33.6814 27.787 33.6559 27.7806C33.6305 27.7806 33.5986 27.7679 33.5668 27.7679C33.5095 27.7679 33.4523 27.7679 33.3886 27.7679C33.3568 27.7679 33.3313 27.7743 33.2995 27.7806C33.2677 27.7806 33.2422 27.7934 33.2168 27.7997C33.1913 27.8061 33.1595 27.8188 33.1341 27.8316C33.1086 27.8443 33.0831 27.857 33.0577 27.8697C33.0322 27.8825 33.0068 27.9016 32.9813 27.9143C32.9559 27.9334 32.9304 27.9461 32.9113 27.9652C32.8858 27.9843 32.8668 28.0034 32.8477 28.0225C32.8286 28.0416 32.8095 28.067 32.7904 28.0861C32.7713 28.1116 32.7522 28.1307 32.7395 28.1561C32.7204 28.1816 32.7076 28.2071 32.6949 28.2325C32.6822 28.258 32.6695 28.2834 32.6567 28.3089C32.644 28.3343 32.6376 28.3662 32.6249 28.3916C32.6185 28.4171 32.6122 28.4489 32.6058 28.4744C32.6058 28.4998 32.5931 28.5316 32.5931 28.5635C32.5931 28.5953 32.5931 28.6207 32.5931 28.6526C32.5931 28.6844 32.5931 28.7098 32.5931 28.7417C32.5931 28.7735 32.5994 28.7989 32.6058 28.8308C32.6058 28.8626 32.6185 28.888 32.6249 28.9135C32.6313 28.939 32.644 28.9708 32.6567 28.9962C32.6695 29.0217 32.6822 29.0471 32.6949 29.0726C32.7076 29.0981 32.7267 29.1235 32.7395 29.149C32.7586 29.1744 32.7713 29.1999 32.7904 29.219C32.8095 29.2444 32.8286 29.2635 32.8477 29.2826C32.8668 29.3017 32.8922 29.3208 32.9113 29.3399C32.9368 29.359 32.9559 29.3781 32.9813 29.3908C33.0068 29.4099 33.0322 29.4226 33.0577 29.4354C33.0831 29.4481 33.1086 29.4608 33.1341 29.4736C33.1595 29.4863 33.1913 29.4926 33.2168 29.5054C33.2422 29.5117 33.2741 29.5181 33.2995 29.5245C33.325 29.5245 33.3568 29.5372 33.3886 29.5372C33.4204 29.5372 33.4459 29.5372 33.4777 29.5372C33.5095 29.5372 33.535 29.5372 33.5668 29.5372C33.5986 29.5372 33.6241 29.5308 33.6559 29.5245C33.6877 29.5245 33.7132 29.5117 33.7387 29.5054C33.7641 29.499 33.7959 29.4863 33.8214 29.4736C33.8469 29.4608 33.8723 29.4481 33.8978 29.4354C33.9232 29.4226 33.9487 29.4035 33.9741 29.3908C33.9996 29.3717 34.0251 29.359 34.0441 29.3399C34.0696 29.3208 34.0887 29.3017 34.1078 29.2826C34.1269 29.2635 34.146 29.2381 34.1651 29.219C34.1842 29.1935 34.2033 29.1744 34.216 29.149C34.2351 29.1235 34.2478 29.0981 34.2605 29.0726C34.2733 29.0471 34.286 29.0217 34.2987 28.9962C34.3114 28.9708 34.3178 28.939 34.3305 28.9135C34.3369 28.888 34.3433 28.8562 34.3496 28.8308C34.3496 28.8053 34.3624 28.7735 34.3624 28.7417C34.3624 28.7098 34.3624 28.6844 34.3624 28.6526C34.3624 28.6207 34.3624 28.5953 34.3624 28.5635C34.3624 28.5316 34.356 28.5062 34.3496 28.4744C34.3496 28.4425 34.3369 28.4171 34.3305 28.3916Z" fill="url(#paint9_linear_1388_1457)"/>
<path d="M34.4515 24.1975C34.4515 24.1975 34.5024 24.2294 34.5278 24.2421C34.5533 24.2548 34.5788 24.2675 34.6042 24.2803C34.6297 24.293 34.6615 24.2994 34.6869 24.3121C34.7124 24.3185 34.7442 24.3248 34.7697 24.3312C34.8015 24.3312 34.827 24.3439 34.8588 24.3439C34.8906 24.3439 34.9161 24.3439 34.9479 24.3439C34.9797 24.3439 35.0052 24.3439 35.037 24.3439C35.0688 24.3439 35.0943 24.3376 35.1261 24.3312C35.1515 24.3312 35.1834 24.3185 35.2088 24.3121C35.2343 24.3057 35.2661 24.293 35.2915 24.2803C35.317 24.2675 35.3425 24.2548 35.3679 24.2421C35.3934 24.2294 35.4188 24.2103 35.4443 24.1975C35.4698 24.1784 35.4952 24.1657 35.5143 24.1466C35.5398 24.1275 35.5589 24.1084 35.5779 24.0893C35.597 24.0703 35.6161 24.0448 35.6352 24.0257C35.6543 24.0002 35.6734 23.9812 35.6861 23.9557C35.7052 23.9302 35.718 23.9048 35.7307 23.8793C35.7434 23.8539 35.7561 23.8284 35.7689 23.803C35.7816 23.7775 35.788 23.7457 35.8007 23.7202C35.8071 23.6948 35.8198 23.6629 35.8198 23.6375C35.8198 23.612 35.8325 23.5802 35.8325 23.5484C35.8325 23.5166 35.8325 23.4911 35.8325 23.4593C35.8325 23.4275 35.8325 23.402 35.8325 23.3702C35.8325 23.3384 35.8262 23.3129 35.8198 23.2811C35.8198 23.2493 35.8071 23.2238 35.8007 23.1983C35.7943 23.1729 35.7816 23.1411 35.7689 23.1156C35.7561 23.0902 35.7434 23.0647 35.7307 23.0392C35.718 23.0138 35.6989 22.9883 35.6861 22.9629C35.667 22.9374 35.6543 22.912 35.6352 22.8929C35.6161 22.8674 35.597 22.8483 35.5779 22.8292C35.5589 22.8101 35.5334 22.791 35.5143 22.7719C35.4888 22.7528 35.4698 22.7337 35.4443 22.721C35.4188 22.7019 35.3934 22.6892 35.3679 22.6765C35.3425 22.6637 35.317 22.651 35.2915 22.6383C35.2661 22.6256 35.2343 22.6192 35.2088 22.6065C35.1834 22.6001 35.1515 22.5937 35.1261 22.5874C35.0943 22.5874 35.0688 22.5746 35.037 22.5746C34.9797 22.5746 34.9161 22.5746 34.8588 22.5746C34.827 22.5746 34.8015 22.581 34.7697 22.5874C34.7442 22.5874 34.7124 22.6001 34.6869 22.6065C34.6615 22.6128 34.6297 22.6256 34.6042 22.6383C34.5788 22.651 34.5533 22.6637 34.5278 22.6765C34.5024 22.6892 34.4769 22.7083 34.4515 22.721C34.426 22.7401 34.4006 22.7528 34.3815 22.7719C34.356 22.791 34.3369 22.8101 34.3178 22.8292C34.2987 22.8483 34.2796 22.8738 34.2605 22.8929C34.2414 22.9183 34.2223 22.9374 34.2096 22.9629C34.1905 22.9883 34.1778 23.0138 34.1651 23.0392C34.1523 23.0647 34.1396 23.0902 34.1269 23.1156C34.1142 23.1411 34.1078 23.1729 34.0951 23.1983C34.0887 23.2238 34.076 23.2556 34.076 23.2811C34.076 23.3065 34.0632 23.3384 34.0632 23.3702C34.0632 23.402 34.0632 23.4275 34.0632 23.4593C34.0632 23.4911 34.0632 23.5166 34.0632 23.5484C34.0632 23.5802 34.0696 23.6057 34.076 23.6375C34.076 23.6693 34.0887 23.6948 34.0951 23.7202C34.1014 23.7457 34.1142 23.7775 34.1269 23.803C34.1396 23.8284 34.1523 23.8539 34.1651 23.8793C34.1778 23.9048 34.1969 23.9302 34.2096 23.9557C34.2287 23.9812 34.2414 24.0066 34.2605 24.0257C34.2796 24.0512 34.2987 24.0703 34.3178 24.0893C34.3369 24.1084 34.3624 24.1275 34.3815 24.1466C34.4069 24.1657 34.426 24.1848 34.4515 24.1975Z" fill="url(#paint10_linear_1388_1457)"/>
<path d="M9.497 45.2634C9.497 45.2634 9.47791 45.2061 9.46518 45.1807C9.45245 45.1552 9.43972 45.1298 9.427 45.1043C9.41427 45.0788 9.39517 45.0534 9.38244 45.0279C9.36335 45.0025 9.35062 44.977 9.33153 44.9579C9.31244 44.9325 9.29334 44.9134 9.27425 44.8943C9.25516 44.8752 9.2297 44.8561 9.21061 44.837C9.18515 44.8179 9.16606 44.7988 9.1406 44.7861C9.11514 44.767 9.08969 44.7543 9.06423 44.7415C9.03877 44.7288 9.01331 44.7161 8.98786 44.7033C8.9624 44.6906 8.93058 44.6843 8.90512 44.6715C8.87966 44.6652 8.84784 44.6524 8.82238 44.6524C8.79056 44.6524 8.76511 44.6397 8.73328 44.6397C8.67601 44.6397 8.61873 44.6397 8.55508 44.6397C8.52326 44.6397 8.49781 44.6461 8.46598 44.6524C8.44053 44.6524 8.4087 44.6652 8.38325 44.6715C8.35779 44.6779 8.32597 44.6906 8.30051 44.7033C8.27505 44.7161 8.2496 44.7288 8.22414 44.7415C8.19868 44.7543 8.17323 44.7734 8.14777 44.7861C8.12231 44.8052 8.09685 44.8179 8.07776 44.837C8.0523 44.8561 8.03321 44.8752 8.01412 44.8943C7.99502 44.9134 7.97593 44.9388 7.95684 44.9579C7.93775 44.9834 7.91865 45.0025 7.90592 45.0279C7.88683 45.0534 7.8741 45.0788 7.86137 45.1043C7.84865 45.1298 7.83592 45.1552 7.82319 45.1807C7.81046 45.2061 7.80409 45.238 7.79137 45.2634C7.785 45.2889 7.77227 45.3207 7.77227 45.3461C7.77227 45.378 7.75955 45.4034 7.75955 45.4352C7.75955 45.4671 7.75955 45.4925 7.75955 45.5243C7.75955 45.5562 7.75955 45.5816 7.75955 45.6134C7.75955 45.6453 7.76591 45.6707 7.77227 45.7025C7.77227 45.728 7.785 45.7598 7.79137 45.7853C7.79773 45.8107 7.81046 45.8426 7.82319 45.868C7.83592 45.8935 7.84865 45.9189 7.86137 45.9444C7.8741 45.9698 7.8932 45.9953 7.90592 46.0208C7.92502 46.0462 7.93775 46.0717 7.95684 46.0908C7.97593 46.1162 7.99502 46.1353 8.01412 46.1544C8.03321 46.1735 8.05867 46.1926 8.07776 46.2117C8.10322 46.2308 8.12231 46.2499 8.14777 46.2626C8.17323 46.2817 8.19868 46.2944 8.22414 46.3072C8.2496 46.3199 8.27505 46.3326 8.30051 46.3453C8.32597 46.3581 8.35779 46.3644 8.38325 46.3772C8.4087 46.3835 8.44053 46.3963 8.46598 46.3963C8.49781 46.3963 8.52326 46.409 8.55508 46.409C8.58691 46.409 8.61236 46.409 8.64418 46.409C8.67601 46.409 8.70146 46.409 8.73328 46.409C8.76511 46.409 8.79056 46.4026 8.82238 46.3963C8.84784 46.3963 8.87966 46.3835 8.90512 46.3772C8.93058 46.3708 8.9624 46.3581 8.98786 46.3453C9.01331 46.3326 9.03877 46.3199 9.06423 46.3072C9.08969 46.2944 9.11514 46.2753 9.1406 46.2626C9.16606 46.2435 9.19152 46.2308 9.21061 46.2117C9.23607 46.1926 9.25516 46.1735 9.27425 46.1544C9.29334 46.1353 9.31244 46.1099 9.33153 46.0908C9.35062 46.0653 9.36972 46.0462 9.38244 46.0208C9.40154 45.9953 9.41427 45.9698 9.427 45.9444C9.43972 45.9189 9.45245 45.8935 9.46518 45.868C9.47791 45.8426 9.48427 45.8107 9.497 45.7853C9.50337 45.7598 9.5161 45.728 9.5161 45.7025C9.5161 45.6707 9.52882 45.6453 9.52882 45.6134C9.52882 45.5816 9.52882 45.5562 9.52882 45.5243C9.52882 45.4925 9.52882 45.4671 9.52882 45.4352C9.52882 45.4034 9.52246 45.378 9.5161 45.3461C9.5161 45.3207 9.50337 45.2889 9.497 45.2634Z" fill="url(#paint11_linear_1388_1457)"/>
<path d="M7.39042 49.9794C7.39042 49.9794 7.37132 49.9221 7.35859 49.8966C7.34587 49.8712 7.33314 49.8457 7.32041 49.8203C7.30768 49.7948 7.28859 49.7693 7.27586 49.7439C7.25676 49.7184 7.24404 49.693 7.22494 49.6739C7.20585 49.6484 7.18676 49.6293 7.16766 49.6102C7.14857 49.5911 7.12311 49.572 7.10402 49.553C7.07856 49.5339 7.05947 49.5148 7.03401 49.502C7.00856 49.4829 6.9831 49.4702 6.95764 49.4575C6.93218 49.4448 6.90673 49.432 6.88127 49.4193C6.85581 49.4066 6.82399 49.4002 6.79853 49.3875C6.77308 49.3811 6.74126 49.3748 6.7158 49.3684C6.68398 49.3684 6.65852 49.3557 6.6267 49.3557C6.56942 49.3557 6.50578 49.3557 6.4485 49.3557C6.41668 49.3557 6.39122 49.362 6.3594 49.3684C6.33394 49.3684 6.30212 49.3811 6.27666 49.3875C6.2512 49.3938 6.21938 49.4066 6.19393 49.4193C6.16847 49.432 6.14301 49.4448 6.11755 49.4575C6.0921 49.4702 6.06664 49.4893 6.04118 49.502C6.01572 49.5211 5.99027 49.5339 5.97117 49.553C5.94572 49.572 5.92662 49.5911 5.90753 49.6102C5.88844 49.6293 5.86935 49.6548 5.85025 49.6739C5.83116 49.693 5.81207 49.7184 5.79934 49.7439C5.78024 49.7693 5.76752 49.7948 5.75479 49.8203C5.74206 49.8457 5.72933 49.8712 5.7166 49.8966C5.70387 49.9221 5.69751 49.9539 5.68478 49.9794C5.67842 50.0048 5.66569 50.0366 5.66569 50.0621C5.66569 50.0939 5.65296 50.1194 5.65296 50.1512C5.65296 50.183 5.65296 50.2085 5.65296 50.2403C5.65296 50.2721 5.65296 50.2976 5.65296 50.3294C5.65296 50.3612 5.65932 50.3867 5.66569 50.4185C5.66569 50.4503 5.67842 50.4758 5.68478 50.5012C5.69114 50.5267 5.70387 50.5585 5.7166 50.584C5.72933 50.6094 5.74206 50.6349 5.75479 50.6603C5.76752 50.6858 5.78661 50.7113 5.79934 50.7367C5.81843 50.7622 5.83116 50.7876 5.85025 50.8067C5.86935 50.8322 5.88844 50.8513 5.90753 50.8704C5.92662 50.8895 5.95208 50.9086 5.97117 50.9276C5.99663 50.9467 6.01572 50.9658 6.04118 50.9786C6.06664 50.9977 6.0921 51.0104 6.11755 51.0231C6.14301 51.0358 6.16847 51.0486 6.19393 51.0613C6.21938 51.074 6.2512 51.0804 6.27666 51.0931C6.30212 51.0995 6.33394 51.1058 6.3594 51.1122C6.39122 51.1122 6.41668 51.1249 6.4485 51.1249C6.48032 51.1249 6.50578 51.1249 6.5376 51.1249C6.56942 51.1249 6.59488 51.1249 6.6267 51.1249C6.65852 51.1249 6.68398 51.1186 6.7158 51.1122C6.74126 51.1122 6.77308 51.0995 6.79853 51.0931C6.82399 51.0868 6.85581 51.074 6.88127 51.0613C6.90673 51.0486 6.93218 51.0358 6.95764 51.0231C6.9831 51.0104 7.00856 50.9913 7.03401 50.9786C7.05947 50.9595 7.08493 50.9467 7.10402 50.9276C7.12948 50.9086 7.14857 50.8895 7.16766 50.8704C7.18676 50.8513 7.20585 50.8258 7.22494 50.8067C7.24404 50.7813 7.26313 50.7622 7.27586 50.7367C7.29495 50.7113 7.30768 50.6858 7.32041 50.6603C7.33314 50.6349 7.34587 50.6094 7.35859 50.584C7.37132 50.5585 7.37769 50.5267 7.39042 50.5012C7.39678 50.4758 7.40951 50.444 7.40951 50.4185C7.40951 50.393 7.42224 50.3612 7.42224 50.3294C7.42224 50.2976 7.42224 50.2721 7.42224 50.2403C7.42224 50.2085 7.42224 50.183 7.42224 50.1512C7.42224 50.1194 7.41587 50.0939 7.40951 50.0621C7.40951 50.0366 7.39678 50.0048 7.39042 49.9794Z" fill="url(#paint12_linear_1388_1457)"/>
<path d="M3.12633 50.8513C3.12633 50.8513 3.1136 50.794 3.10723 50.7685C3.10087 50.7431 3.08814 50.7113 3.07541 50.6858C3.06268 50.6603 3.04996 50.6349 3.03723 50.6094C3.0245 50.584 3.00541 50.5585 2.99268 50.5331C2.97358 50.5076 2.96086 50.4821 2.94176 50.4631C2.92267 50.4376 2.90358 50.4185 2.88448 50.3994C2.86539 50.3803 2.83993 50.3612 2.82084 50.3421C2.79538 50.323 2.77629 50.3039 2.75083 50.2912C2.72538 50.2721 2.69992 50.2594 2.67446 50.2467C2.649 50.2339 2.62355 50.2212 2.59809 50.2085C2.57263 50.1957 2.54081 50.1894 2.51535 50.1767C2.4899 50.1703 2.45807 50.1639 2.43262 50.1576C2.4008 50.1576 2.37534 50.1448 2.34352 50.1448C2.28624 50.1448 2.2226 50.1448 2.16532 50.1448C2.13349 50.1448 2.10804 50.1512 2.07622 50.1576C2.05076 50.1576 2.01894 50.1703 1.99348 50.1767C1.96802 50.183 1.9362 50.1957 1.91074 50.2085C1.88529 50.2212 1.85983 50.2339 1.83437 50.2467C1.80892 50.2594 1.78346 50.2785 1.758 50.2912C1.73254 50.3103 1.70709 50.323 1.68799 50.3421C1.66254 50.3612 1.64344 50.3803 1.62435 50.3994C1.60526 50.4185 1.58616 50.444 1.56707 50.4631C1.54798 50.4885 1.52889 50.5076 1.51616 50.5331C1.49706 50.5585 1.48434 50.584 1.47161 50.6094C1.45888 50.6349 1.44615 50.6603 1.43342 50.6858C1.42069 50.7113 1.41433 50.7431 1.4016 50.7685C1.39524 50.794 1.38251 50.8258 1.38251 50.8513C1.38251 50.8767 1.36978 50.9086 1.36978 50.9404C1.36978 50.9722 1.36978 50.9977 1.36978 51.0295C1.36978 51.0613 1.36978 51.0868 1.36978 51.1186C1.36978 51.1504 1.37614 51.1758 1.38251 51.2077C1.38251 51.2395 1.39524 51.2649 1.4016 51.2904C1.40796 51.3159 1.42069 51.3477 1.43342 51.3731C1.44615 51.3986 1.45888 51.4241 1.47161 51.4495C1.48434 51.475 1.50343 51.5004 1.51616 51.5259C1.53525 51.5513 1.54798 51.5768 1.56707 51.5959C1.58616 51.6214 1.60526 51.6404 1.62435 51.6595C1.64344 51.6786 1.6689 51.6977 1.68799 51.7168C1.71345 51.7359 1.73254 51.755 1.758 51.7677C1.78346 51.7868 1.80892 51.7996 1.83437 51.8123C1.85983 51.825 1.88529 51.8377 1.91074 51.8505C1.9362 51.8632 1.96802 51.8696 1.99348 51.8823C2.01894 51.8887 2.05076 51.895 2.07622 51.9014C2.10804 51.9014 2.13349 51.9141 2.16532 51.9141C2.19714 51.9141 2.2226 51.9141 2.25442 51.9141C2.28624 51.9141 2.3117 51.9141 2.34352 51.9141C2.37534 51.9141 2.4008 51.9077 2.43262 51.9014C2.45807 51.9014 2.4899 51.8887 2.51535 51.8823C2.54081 51.8759 2.57263 51.8632 2.59809 51.8505C2.62355 51.8377 2.649 51.825 2.67446 51.8123C2.69992 51.7996 2.72538 51.7805 2.75083 51.7677C2.77629 51.7486 2.80175 51.7359 2.82084 51.7168C2.8463 51.6977 2.86539 51.6786 2.88448 51.6595C2.90358 51.6404 2.92267 51.615 2.94176 51.5959C2.96086 51.5704 2.97995 51.5513 2.99268 51.5259C3.01177 51.5004 3.0245 51.475 3.03723 51.4495C3.04996 51.4241 3.06268 51.3986 3.07541 51.3731C3.08814 51.3477 3.09451 51.3159 3.10723 51.2904C3.1136 51.2649 3.12633 51.2331 3.12633 51.2077C3.12633 51.1822 3.13906 51.1504 3.13906 51.1186C3.13906 51.0868 3.13906 51.0613 3.13906 51.0295C3.13906 50.9977 3.13906 50.9722 3.13906 50.9404C3.13906 50.9086 3.13269 50.8831 3.12633 50.8513Z" fill="url(#paint13_linear_1388_1457)"/>
<path d="M4.79378 46.5044C4.79378 46.5044 4.78105 46.4472 4.77468 46.4217C4.76832 46.3963 4.75559 46.3644 4.74286 46.339C4.73013 46.3135 4.71741 46.2881 4.70468 46.2626C4.69195 46.2371 4.67285 46.2117 4.66013 46.1862C4.64103 46.1608 4.6283 46.1353 4.60921 46.1162C4.59012 46.0908 4.57103 46.0717 4.55193 46.0526C4.53284 46.0335 4.50738 46.0144 4.48829 45.9953C4.46283 45.9762 4.44374 45.9571 4.41828 45.9444C4.39283 45.9253 4.36737 45.9126 4.34191 45.8998C4.31645 45.8871 4.291 45.8744 4.26554 45.8617C4.24008 45.8489 4.20826 45.8426 4.1828 45.8298C4.15735 45.8235 4.12552 45.8171 4.10007 45.8107C4.06825 45.8107 4.04279 45.798 4.01097 45.798C3.95369 45.798 3.89004 45.798 3.83277 45.798C3.80094 45.798 3.77549 45.8044 3.74367 45.8107C3.71821 45.8107 3.68639 45.8235 3.66093 45.8298C3.63547 45.8362 3.60365 45.8489 3.57819 45.8617C3.55274 45.8744 3.52728 45.8871 3.50182 45.8998C3.47636 45.9126 3.45091 45.9317 3.42545 45.9444C3.39999 45.9635 3.37454 45.9762 3.35544 45.9953C3.32999 46.0144 3.31089 46.0335 3.2918 46.0526C3.27271 46.0717 3.25361 46.0971 3.23452 46.1162C3.21543 46.1417 3.19634 46.1608 3.18361 46.1862C3.16451 46.2117 3.15178 46.2371 3.13906 46.2626C3.12633 46.2881 3.1136 46.3135 3.10087 46.339C3.08814 46.3644 3.08178 46.3963 3.06905 46.4217C3.06268 46.4472 3.04996 46.479 3.04996 46.5044C3.04996 46.5363 3.03723 46.5617 3.03723 46.5935C3.03723 46.6254 3.03723 46.6508 3.03723 46.6826C3.03723 46.7145 3.03723 46.7399 3.03723 46.7717C3.03723 46.8036 3.04359 46.829 3.04996 46.8608C3.04996 46.8863 3.06268 46.9181 3.06905 46.9436C3.07541 46.969 3.08814 47.0009 3.10087 47.0263C3.1136 47.0518 3.12633 47.0772 3.13906 47.1027C3.15178 47.1282 3.17088 47.1536 3.18361 47.1791C3.2027 47.2045 3.21543 47.23 3.23452 47.2491C3.25361 47.2745 3.27271 47.2936 3.2918 47.3127C3.31089 47.3318 3.33635 47.3509 3.35544 47.37C3.3809 47.3891 3.39999 47.4082 3.42545 47.4209C3.45091 47.44 3.47636 47.4527 3.50182 47.4655C3.52728 47.4782 3.55274 47.4909 3.57819 47.5036C3.60365 47.5164 3.63547 47.5227 3.66093 47.5355C3.68639 47.5418 3.71821 47.5482 3.74367 47.5546C3.77549 47.5546 3.80094 47.5673 3.83277 47.5673C3.86459 47.5673 3.89004 47.5673 3.92187 47.5673C3.95369 47.5673 3.97914 47.5673 4.01097 47.5673C4.04279 47.5673 4.06825 47.5609 4.10007 47.5546C4.12552 47.5546 4.15735 47.5418 4.1828 47.5355C4.20826 47.5291 4.24008 47.5164 4.26554 47.5036C4.291 47.4909 4.31645 47.4782 4.34191 47.4655C4.36737 47.4527 4.39283 47.4336 4.41828 47.4209C4.44374 47.4018 4.4692 47.3891 4.48829 47.37C4.51375 47.3509 4.53284 47.3318 4.55193 47.3127C4.57103 47.2936 4.59012 47.2682 4.60921 47.2491C4.6283 47.2236 4.6474 47.2045 4.66013 47.1791C4.67922 47.1536 4.69195 47.1282 4.70468 47.1027C4.71741 47.0772 4.73013 47.0518 4.74286 47.0263C4.75559 47.0009 4.76195 46.969 4.77468 46.9436C4.78105 46.9181 4.79378 46.8863 4.79378 46.8608C4.79378 46.829 4.80651 46.8036 4.80651 46.7717C4.80651 46.7399 4.80651 46.7145 4.80651 46.6826C4.80651 46.6508 4.80651 46.6254 4.80651 46.5935C4.80651 46.5617 4.80014 46.5363 4.79378 46.5044Z" fill="url(#paint14_linear_1388_1457)"/>
<path d="M45.1371 14.0274C45.1371 14.0274 45.1499 14.0847 45.1562 14.1101C45.1626 14.1356 45.1753 14.1674 45.1881 14.1928C45.2008 14.2183 45.2135 14.2438 45.2262 14.2692C45.239 14.2947 45.2581 14.3201 45.2708 14.3456C45.2899 14.371 45.3026 14.3965 45.3217 14.4156C45.3408 14.4411 45.3599 14.4601 45.379 14.4792C45.3981 14.4983 45.4235 14.5174 45.4426 14.5365C45.4681 14.5556 45.4872 14.5747 45.5126 14.5874C45.5381 14.6065 45.5635 14.6193 45.589 14.632C45.6145 14.6447 45.6399 14.6574 45.6654 14.6702C45.6908 14.6829 45.7227 14.6893 45.7481 14.702C45.7736 14.7084 45.8054 14.7147 45.8309 14.7211C45.8627 14.7211 45.8881 14.7338 45.92 14.7338C45.9518 14.7338 45.9772 14.7338 46.0091 14.7338C46.0409 14.7338 46.0663 14.7338 46.0982 14.7338C46.13 14.7338 46.1554 14.7274 46.1873 14.7211C46.2127 14.7211 46.2445 14.7084 46.27 14.702C46.2954 14.6956 46.3273 14.6829 46.3527 14.6702C46.3782 14.6574 46.4036 14.6447 46.4291 14.632C46.4546 14.6193 46.48 14.6002 46.5055 14.5874C46.5309 14.5683 46.5564 14.5556 46.5755 14.5365C46.6009 14.5174 46.62 14.4983 46.6391 14.4792C46.6582 14.4601 46.6773 14.4347 46.6964 14.4156C46.7155 14.3901 46.7346 14.371 46.7473 14.3456C46.7664 14.3201 46.7791 14.2947 46.7919 14.2692C46.8046 14.2438 46.8173 14.2183 46.83 14.1928C46.8428 14.1674 46.8491 14.1356 46.8619 14.1101C46.8682 14.0847 46.881 14.0528 46.881 14.0274C46.881 14.0019 46.8937 13.9701 46.8937 13.9383C46.8937 13.9065 46.8937 13.881 46.8937 13.8492C46.8937 13.8174 46.8937 13.7919 46.8937 13.7601C46.8937 13.7283 46.8873 13.7028 46.881 13.671C46.881 13.6455 46.8682 13.6137 46.8619 13.5882C46.8555 13.5628 46.8428 13.531 46.83 13.5055C46.8173 13.48 46.8046 13.4546 46.7919 13.4291C46.7791 13.4037 46.76 13.3782 46.7473 13.3528C46.7282 13.3273 46.7155 13.3018 46.6964 13.2827C46.6773 13.2573 46.6582 13.2382 46.6391 13.2191C46.62 13.2 46.5946 13.1809 46.5755 13.1618C46.55 13.1427 46.5309 13.1236 46.5055 13.1109C46.48 13.0918 46.4546 13.0791 46.4291 13.0664C46.4036 13.0536 46.3782 13.0409 46.3527 13.0282C46.3273 13.0154 46.2954 13.0091 46.27 12.9964C46.2445 12.99 46.2127 12.9836 46.1873 12.9773C46.1554 12.9773 46.13 12.9645 46.0982 12.9645C46.0409 12.9645 45.9772 12.9645 45.92 12.9645C45.8881 12.9645 45.8627 12.9709 45.8309 12.9773C45.8054 12.9773 45.7736 12.99 45.7481 12.9964C45.7227 13.0027 45.6908 13.0154 45.6654 13.0282C45.6399 13.0409 45.6145 13.0536 45.589 13.0664C45.5635 13.0791 45.5381 13.0982 45.5126 13.1109C45.4872 13.13 45.4617 13.1427 45.4426 13.1618C45.4172 13.1809 45.3981 13.2 45.379 13.2191C45.3599 13.2382 45.3408 13.2637 45.3217 13.2827C45.3026 13.3018 45.2835 13.3273 45.2708 13.3528C45.2517 13.3782 45.239 13.4037 45.2262 13.4291C45.2135 13.4546 45.2008 13.48 45.1881 13.5055C45.1753 13.531 45.169 13.5628 45.1562 13.5882C45.1499 13.6137 45.1371 13.6455 45.1371 13.671C45.1371 13.7028 45.1244 13.7283 45.1244 13.7601C45.1244 13.7919 45.1244 13.8174 45.1244 13.8492C45.1244 13.881 45.1244 13.9065 45.1244 13.9383C45.1244 13.9701 45.1308 13.9956 45.1371 14.0274Z" fill="url(#paint15_linear_1388_1457)"/>
<path d="M40.994 18.9979C40.994 18.9979 40.9749 18.9406 40.9622 18.9152C40.9494 18.8897 40.9367 18.8642 40.924 18.8388C40.9112 18.8133 40.8921 18.7879 40.8794 18.7624C40.8603 18.737 40.8476 18.7115 40.8285 18.6924C40.8094 18.667 40.7903 18.6479 40.7712 18.6288C40.7521 18.6097 40.7267 18.5906 40.7076 18.5715C40.6821 18.5524 40.663 18.5333 40.6376 18.5206C40.6121 18.5015 40.5867 18.4888 40.5612 18.476C40.5357 18.4633 40.5103 18.4506 40.4848 18.4378C40.4594 18.4251 40.4276 18.4187 40.4021 18.406C40.3766 18.3997 40.3448 18.3933 40.3194 18.3869C40.2939 18.3806 40.2621 18.3742 40.2303 18.3742C40.173 18.3742 40.1157 18.3742 40.0521 18.3742C40.0202 18.3742 39.9948 18.3806 39.963 18.3869C39.9375 18.3869 39.9057 18.3997 39.8802 18.406C39.8548 18.4124 39.8229 18.4251 39.7975 18.4378C39.772 18.4506 39.7466 18.4633 39.7211 18.476C39.6957 18.4888 39.6702 18.5078 39.6447 18.5206C39.6193 18.5397 39.5938 18.5524 39.5747 18.5715C39.5493 18.5906 39.5302 18.6097 39.5111 18.6288C39.492 18.6479 39.4729 18.6733 39.4538 18.6924C39.4347 18.7115 39.4156 18.737 39.4029 18.7624C39.3838 18.7879 39.3711 18.8133 39.3583 18.8388C39.3456 18.8642 39.3329 18.8897 39.3202 18.9152C39.3074 18.9406 39.3011 18.9724 39.2883 18.9979C39.282 19.0234 39.2756 19.0552 39.2692 19.0806C39.2692 19.1061 39.2565 19.1379 39.2565 19.1697C39.2565 19.2016 39.2565 19.227 39.2565 19.2588C39.2565 19.2907 39.2565 19.3161 39.2565 19.3479C39.2565 19.3798 39.2629 19.4052 39.2692 19.437C39.2692 19.4689 39.282 19.4943 39.2883 19.5198C39.2947 19.5452 39.3074 19.5771 39.3202 19.6025C39.3329 19.628 39.3456 19.6534 39.3583 19.6789C39.3711 19.7043 39.3902 19.7298 39.4029 19.7553C39.422 19.7807 39.4347 19.8062 39.4538 19.8253C39.4729 19.8507 39.492 19.8698 39.5111 19.8889C39.5302 19.908 39.5556 19.9271 39.5747 19.9462C39.6002 19.9653 39.6193 19.9844 39.6447 19.9971C39.6702 20.0162 39.6957 20.0289 39.7211 20.0416C39.7466 20.0544 39.772 20.0671 39.7975 20.0798C39.8229 20.0926 39.8548 20.0989 39.8802 20.1117C39.9057 20.118 39.9375 20.1244 39.963 20.1307C39.9948 20.1307 40.0202 20.1435 40.0521 20.1435C40.0839 20.1435 40.1093 20.1435 40.1412 20.1435C40.173 20.1435 40.1984 20.1435 40.2303 20.1435C40.2621 20.1435 40.2875 20.1371 40.3194 20.1307C40.3512 20.1244 40.3766 20.118 40.4021 20.1117C40.4276 20.1053 40.4594 20.0926 40.4848 20.0798C40.5103 20.0671 40.5357 20.0544 40.5612 20.0416C40.5867 20.0289 40.6121 20.0098 40.6376 19.9971C40.663 19.978 40.6885 19.9653 40.7076 19.9462C40.733 19.9271 40.7521 19.908 40.7712 19.8889C40.7903 19.8698 40.8094 19.8444 40.8285 19.8253C40.8476 19.7998 40.8667 19.7807 40.8794 19.7553C40.8985 19.7298 40.9112 19.7043 40.924 19.6789C40.9367 19.6534 40.9494 19.628 40.9622 19.6025C40.9749 19.5771 40.9812 19.5452 40.994 19.5198C41.0003 19.4943 41.0067 19.4625 41.0131 19.437C41.0131 19.4116 41.0258 19.3798 41.0258 19.3479C41.0258 19.3161 41.0258 19.2907 41.0258 19.2588C41.0258 19.227 41.0258 19.2016 41.0258 19.1697C41.0258 19.1379 41.0194 19.1125 41.0131 19.0806C41.0131 19.0488 41.0003 19.0234 40.994 18.9979Z" fill="url(#paint16_linear_1388_1457)"/>
<path d="M41.0322 13.8301C41.0322 13.8301 41.0258 13.7728 41.0194 13.741C41.0194 13.7155 41.0067 13.6837 41.0003 13.6582C40.994 13.6328 40.9812 13.601 40.9685 13.5755C40.9558 13.55 40.9431 13.5246 40.9303 13.4991C40.9176 13.4737 40.8985 13.4482 40.8858 13.4228C40.8667 13.3973 40.854 13.3718 40.8349 13.3528C40.8158 13.3273 40.7967 13.3082 40.7776 13.2891C40.7585 13.27 40.733 13.2509 40.7139 13.2318C40.6885 13.2127 40.6694 13.1936 40.6439 13.1809C40.6185 13.1618 40.593 13.1491 40.5676 13.1364C40.5421 13.1236 40.5167 13.1109 40.4912 13.0982C40.4657 13.0855 40.4339 13.0791 40.4085 13.0664C40.383 13.06 40.3512 13.0536 40.3257 13.0473C40.3003 13.0473 40.2684 13.0345 40.2366 13.0345C40.1793 13.0345 40.1221 13.0345 40.0584 13.0345C40.0266 13.0345 40.0011 13.0409 39.9693 13.0473C39.9439 13.0473 39.912 13.06 39.8866 13.0664C39.8611 13.0727 39.8293 13.0855 39.8038 13.0982C39.7784 13.1109 39.7529 13.1236 39.7275 13.1364C39.702 13.1491 39.6766 13.1682 39.6511 13.1809C39.6256 13.2 39.6002 13.2127 39.5811 13.2318C39.5556 13.2509 39.5365 13.27 39.5175 13.2891C39.4984 13.3082 39.4793 13.3337 39.4602 13.3528C39.4411 13.3782 39.422 13.3973 39.4093 13.4228C39.3902 13.4482 39.3774 13.4737 39.3647 13.4991C39.352 13.5246 39.3393 13.55 39.3265 13.5755C39.3138 13.601 39.3074 13.6328 39.2947 13.6582C39.2883 13.6837 39.282 13.7155 39.2756 13.741C39.2756 13.7728 39.2629 13.7983 39.2629 13.8301C39.2629 13.8619 39.2629 13.8874 39.2629 13.9192C39.2629 13.951 39.2629 13.9765 39.2629 14.0083C39.2629 14.0401 39.2692 14.0656 39.2756 14.0974C39.2756 14.1228 39.2883 14.1547 39.2947 14.1801C39.3011 14.2056 39.3138 14.2374 39.3265 14.2629C39.3393 14.2883 39.352 14.3138 39.3647 14.3392C39.3774 14.3647 39.3965 14.3901 39.4093 14.4156C39.4284 14.4411 39.4411 14.4665 39.4602 14.4856C39.4793 14.5111 39.4984 14.5302 39.5175 14.5492C39.5365 14.5683 39.562 14.5874 39.5811 14.6065C39.6066 14.6256 39.6256 14.6447 39.6511 14.6574C39.6766 14.6765 39.702 14.6893 39.7275 14.702C39.7529 14.7147 39.7784 14.7274 39.8038 14.7402C39.8293 14.7529 39.8611 14.7593 39.8866 14.772C39.912 14.7784 39.9439 14.7911 39.9693 14.7911C40.0011 14.7911 40.0266 14.8038 40.0584 14.8038C40.0902 14.8038 40.1157 14.8038 40.1475 14.8038C40.1793 14.8038 40.2048 14.8038 40.2366 14.8038C40.2684 14.8038 40.2939 14.7975 40.3257 14.7911C40.3575 14.7847 40.383 14.7784 40.4085 14.772C40.4339 14.7656 40.4657 14.7529 40.4912 14.7402C40.5167 14.7274 40.5421 14.7147 40.5676 14.702C40.593 14.6893 40.6185 14.6702 40.6439 14.6574C40.6694 14.6383 40.6949 14.6256 40.7139 14.6065C40.7394 14.5874 40.7585 14.5683 40.7776 14.5492C40.7967 14.5302 40.8158 14.5047 40.8349 14.4856C40.854 14.4601 40.8731 14.4411 40.8858 14.4156C40.9049 14.3901 40.9176 14.3647 40.9303 14.3392C40.9431 14.3138 40.9558 14.2883 40.9685 14.2629C40.9812 14.2374 40.9876 14.2056 41.0003 14.1801C41.0067 14.1547 41.0131 14.1228 41.0194 14.0974C41.0194 14.0656 41.0322 14.0401 41.0322 14.0083C41.0322 13.9765 41.0322 13.951 41.0322 13.9192C41.0322 13.8874 41.0322 13.8619 41.0322 13.8301Z" fill="url(#paint17_linear_1388_1457)"/>
<defs>
<linearGradient id="paint0_linear_1388_1457" x1="49.7976" y1="55.9999" x2="3.02083" y2="55.2444" gradientUnits="userSpaceOnUse">
<stop stop-color="#94BBDF"/>
<stop offset="1" stop-color="#FF6D04"/>
</linearGradient>
<linearGradient id="paint1_linear_1388_1457" x1="49.7976" y1="55.9999" x2="3.02083" y2="55.2444" gradientUnits="userSpaceOnUse">
<stop stop-color="#94BBDF"/>
<stop offset="1" stop-color="#FF6D04"/>
</linearGradient>
<linearGradient id="paint2_linear_1388_1457" x1="49.7976" y1="55.9999" x2="3.02083" y2="55.2444" gradientUnits="userSpaceOnUse">
<stop stop-color="#94BBDF"/>
<stop offset="1" stop-color="#FF6D04"/>
</linearGradient>
<linearGradient id="paint3_linear_1388_1457" x1="49.7976" y1="55.9999" x2="3.02083" y2="55.2444" gradientUnits="userSpaceOnUse">
<stop stop-color="#94BBDF"/>
<stop offset="1" stop-color="#FF6D04"/>
</linearGradient>
<linearGradient id="paint4_linear_1388_1457" x1="49.7976" y1="55.9999" x2="3.02083" y2="55.2444" gradientUnits="userSpaceOnUse">
<stop stop-color="#94BBDF"/>
<stop offset="1" stop-color="#FF6D04"/>
</linearGradient>
<linearGradient id="paint5_linear_1388_1457" x1="49.7976" y1="55.9999" x2="3.02083" y2="55.2444" gradientUnits="userSpaceOnUse">
<stop stop-color="#94BBDF"/>
<stop offset="1" stop-color="#FF6D04"/>
</linearGradient>
<linearGradient id="paint6_linear_1388_1457" x1="49.7976" y1="55.9999" x2="3.02083" y2="55.2444" gradientUnits="userSpaceOnUse">
<stop stop-color="#94BBDF"/>
<stop offset="1" stop-color="#FF6D04"/>
</linearGradient>
<linearGradient id="paint7_linear_1388_1457" x1="49.7976" y1="55.9999" x2="3.02083" y2="55.2444" gradientUnits="userSpaceOnUse">
<stop stop-color="#94BBDF"/>
<stop offset="1" stop-color="#FF6D04"/>
</linearGradient>
<linearGradient id="paint8_linear_1388_1457" x1="49.7976" y1="55.9999" x2="3.02083" y2="55.2444" gradientUnits="userSpaceOnUse">
<stop stop-color="#94BBDF"/>
<stop offset="1" stop-color="#FF6D04"/>
</linearGradient>
<linearGradient id="paint9_linear_1388_1457" x1="49.7976" y1="55.9999" x2="3.02083" y2="55.2444" gradientUnits="userSpaceOnUse">
<stop stop-color="#94BBDF"/>
<stop offset="1" stop-color="#FF6D04"/>
</linearGradient>
<linearGradient id="paint10_linear_1388_1457" x1="49.7976" y1="55.9999" x2="3.02083" y2="55.2444" gradientUnits="userSpaceOnUse">
<stop stop-color="#94BBDF"/>
<stop offset="1" stop-color="#FF6D04"/>
</linearGradient>
<linearGradient id="paint11_linear_1388_1457" x1="49.7976" y1="55.9999" x2="3.02083" y2="55.2444" gradientUnits="userSpaceOnUse">
<stop stop-color="#94BBDF"/>
<stop offset="1" stop-color="#FF6D04"/>
</linearGradient>
<linearGradient id="paint12_linear_1388_1457" x1="49.7976" y1="55.9999" x2="3.02083" y2="55.2444" gradientUnits="userSpaceOnUse">
<stop stop-color="#94BBDF"/>
<stop offset="1" stop-color="#FF6D04"/>
</linearGradient>
<linearGradient id="paint13_linear_1388_1457" x1="49.7976" y1="55.9999" x2="3.02083" y2="55.2444" gradientUnits="userSpaceOnUse">
<stop stop-color="#94BBDF"/>
<stop offset="1" stop-color="#FF6D04"/>
</linearGradient>
<linearGradient id="paint14_linear_1388_1457" x1="49.7976" y1="55.9999" x2="3.02083" y2="55.2444" gradientUnits="userSpaceOnUse">
<stop stop-color="#94BBDF"/>
<stop offset="1" stop-color="#FF6D04"/>
</linearGradient>
<linearGradient id="paint15_linear_1388_1457" x1="49.7976" y1="55.9999" x2="3.02083" y2="55.2444" gradientUnits="userSpaceOnUse">
<stop stop-color="#94BBDF"/>
<stop offset="1" stop-color="#FF6D04"/>
</linearGradient>
<linearGradient id="paint16_linear_1388_1457" x1="49.7976" y1="55.9999" x2="3.02083" y2="55.2444" gradientUnits="userSpaceOnUse">
<stop stop-color="#94BBDF"/>
<stop offset="1" stop-color="#FF6D04"/>
</linearGradient>
<linearGradient id="paint17_linear_1388_1457" x1="49.7976" y1="55.9999" x2="3.02083" y2="55.2444" gradientUnits="userSpaceOnUse">
<stop stop-color="#94BBDF"/>
<stop offset="1" stop-color="#FF6D04"/>
</linearGradient>
</defs>
</svg>
