<svg width="57" height="56" viewBox="0 0 57 56" fill="none" xmlns="http://www.w3.org/2000/svg">
<path d="M35.8024 27.8382L28.361 20.3968C27.9322 19.968 27.9322 19.2727 28.361 18.8438C28.7899 18.415 29.485 18.415 29.914 18.8438L37.3554 26.2852C37.7842 26.714 37.7842 27.4093 37.3554 27.8382C36.9264 28.2671 36.2314 28.267 35.8024 27.8382Z" fill="url(#paint0_linear_1388_1459)"/>
<path d="M34.3248 32.5722L23.6271 21.8744C23.1983 21.4456 23.1983 20.7504 23.6271 20.3215C24.056 19.8927 24.751 19.8927 25.18 20.3215L35.8778 31.0192C36.3066 31.448 36.3066 32.1433 35.8778 32.5722C35.4487 33.001 34.7539 33.0009 34.3248 32.5722Z" fill="url(#paint1_linear_1388_1459)"/>
<path d="M31.2191 35.6779L20.5213 24.9802C20.0925 24.5514 20.0925 23.8561 20.5213 23.4272C20.9502 22.9984 21.6453 22.9984 22.0743 23.4272L32.7721 34.125C33.2009 34.5538 33.2009 35.249 32.7721 35.6779C32.343 36.1067 31.6481 36.1066 31.2191 35.6779Z" fill="url(#paint2_linear_1388_1459)"/>
<path d="M26.4852 37.1556L19.0437 29.7141C18.6149 29.2853 18.6149 28.59 19.0437 28.1611C19.4726 27.7324 20.1676 27.7324 20.5966 28.1611L28.0382 35.6026C28.4669 36.0314 28.4669 36.7267 28.0382 37.1556C27.609 37.5844 26.9141 37.5843 26.4852 37.1556Z" fill="url(#paint3_linear_1388_1459)"/>
<path d="M45.7828 17.8579L38.3414 10.4164C37.9126 9.98757 37.9126 9.29228 38.3414 8.86349C38.7704 8.43481 39.4655 8.4347 39.8944 8.86349L47.3358 16.3049C47.7646 16.7337 47.7646 17.429 47.3358 17.8578C46.9071 18.2865 46.2118 18.2868 45.7828 17.8579Z" fill="url(#paint4_linear_1388_1459)"/>
<path d="M50.5168 16.3803L39.819 5.68243C39.3902 5.25364 39.3902 4.55836 39.819 4.12957C40.2479 3.70078 40.9431 3.70089 41.3719 4.12957L52.0697 14.8273C52.4985 15.2561 52.4985 15.9514 52.0697 16.3803C51.6407 16.8091 50.9458 16.8091 50.5168 16.3803Z" fill="url(#paint5_linear_1388_1459)"/>
<path d="M16.5047 47.1359L9.06322 39.6944C8.63443 39.2656 8.63443 38.5703 9.06322 38.1414C9.49213 37.7127 10.1872 37.7127 10.6162 38.1414L18.0577 45.5829C18.4865 46.0117 18.4865 46.707 18.0577 47.1359C17.6286 47.5648 16.9338 47.5647 16.5047 47.1359Z" fill="url(#paint6_linear_1388_1459)"/>
<path d="M15.0272 51.8699L4.32929 41.1721C3.9005 40.7433 3.9005 40.048 4.32929 39.6191C4.75819 39.1904 5.45326 39.1904 5.88227 39.6191L16.5802 50.317C17.009 50.7458 17.009 51.441 16.5802 51.8699C16.1511 52.2987 15.4562 52.2986 15.0272 51.8699Z" fill="url(#paint7_linear_1388_1459)"/>
<path d="M45.5396 22.658C43.7832 22.658 42.0613 22.4539 40.4346 22.1943C39.8358 22.0988 39.4277 21.5358 39.5233 20.9369C39.6188 20.338 40.1831 19.9298 40.7805 20.0256C45.0348 20.7045 49.522 20.9486 53.5148 18.1644C54.1144 17.7432 54.1581 16.9157 53.6727 16.4303C53.2852 16.0427 52.6809 15.9858 52.2362 16.2949C48.5 18.8915 44.107 18.3574 39.5581 17.5232C38.9615 17.4137 38.5667 16.8415 38.6761 16.245C38.7855 15.6486 39.3593 15.2537 39.9542 15.3631C44.1853 16.1391 47.9358 16.6093 50.983 14.4915C52.3018 13.5752 54.086 13.7379 55.2257 14.8774C56.6682 16.32 56.4995 18.7521 54.774 19.9637C51.813 22.0284 48.6236 22.658 45.5396 22.658Z" fill="url(#paint8_linear_1388_1459)"/>
<path d="M15.0773 55.0256C13.9377 53.8861 13.7753 52.102 14.6911 50.7834C16.809 47.7359 16.3389 43.9856 15.5628 39.7544C14.3595 33.2368 12.2431 25.0747 18.7586 18.5591C23.8384 13.4794 29.9515 13.6603 35.262 14.5075C35.8609 14.603 36.269 15.166 36.1734 15.7648C36.0778 16.3637 35.5138 16.7719 34.9161 16.6761C29.9136 15.8783 24.6816 15.7419 20.3116 20.1121C15.9415 24.4821 16.0777 29.7139 16.8758 34.7165C17.8704 40.9389 19.9471 47.0687 16.4945 52.0365C16.1856 52.4812 16.2425 53.0855 16.63 53.4729C17.1447 53.9875 17.9709 53.879 18.3643 53.3149C23.6973 45.6665 17.9972 36.1388 18.7593 28.4432C19.0244 25.7668 20.0549 23.5642 21.9094 21.7097C23.7639 19.8552 25.9663 18.8249 28.6429 18.5597C31.1138 18.315 33.8078 18.7509 36.1387 19.1786C36.7353 19.2881 37.13 19.8604 37.0206 20.4568C36.9111 21.0534 36.3381 21.4476 35.7423 21.3387C30.7847 20.4288 26.7322 19.9928 23.4622 23.2626C19.1396 27.5852 21.3036 33.3743 22.3942 40.2353C23.1093 44.7178 23.4038 49.9269 20.1657 54.571C19.5987 55.3838 18.708 55.8999 17.7218 55.9871C16.7499 56.0725 15.7832 55.7318 15.0773 55.0256Z" fill="url(#paint9_linear_1388_1459)"/>
<path d="M1.17349 41.122C0.475781 40.4243 0.125392 39.4603 0.212248 38.4772C0.299434 37.4912 0.81541 36.6003 1.62819 36.0335C6.27219 32.7953 11.4815 33.0895 15.9646 33.805C16.5635 33.9005 16.9715 34.4634 16.876 35.0623C16.7804 35.6613 16.2162 36.0685 15.6187 35.9736C11.3645 35.2951 6.87755 35.0507 2.88447 37.8349C2.3159 38.2312 2.21587 39.0582 2.72646 39.569C3.11408 39.9564 3.71812 40.0134 4.16327 39.7044C7.89907 37.1079 12.2921 37.6419 16.8412 38.4761C17.4378 38.5855 17.8325 39.1578 17.7231 39.7542C17.6137 40.3507 17.0412 40.7461 16.445 40.6362C12.2137 39.8602 8.46347 39.39 5.41626 41.5078C4.10002 42.422 2.31579 42.2641 1.17349 41.122Z" fill="url(#paint10_linear_1388_1459)"/>
<path d="M26.2223 41.951C24.4864 41.951 22.774 41.7533 21.1369 41.492C20.538 41.3965 20.13 40.8336 20.2255 40.2348C20.321 39.6359 20.8847 39.228 21.4828 39.3234C26.4851 40.1212 31.7171 40.2577 36.0872 35.8876C40.4574 31.5175 40.3212 26.2857 39.5231 21.283C38.5286 15.0597 36.4516 8.93113 39.9043 3.96299C40.2133 3.51828 40.1564 2.91402 39.7689 2.52652C39.2877 2.04535 38.4601 2.07873 38.0326 2.68738C32.7026 10.3313 38.4015 19.8613 37.6395 27.5562C37.3744 30.2327 36.3441 32.4353 34.4896 34.2897C32.6349 36.1442 30.4325 37.1745 27.7561 37.4397C25.2842 37.6847 22.5911 37.2486 20.2601 36.8208C19.6635 36.7113 19.2688 36.139 19.3782 35.5426C19.4877 34.9459 20.0599 34.5508 20.6565 34.6607C25.6145 35.5709 29.6669 36.0068 32.9367 32.7368C36.2065 29.467 35.7704 25.4147 34.8606 20.4567C33.7565 14.468 31.9992 7.5007 36.2333 1.42836C37.4555 -0.312716 39.8888 -0.459415 41.3218 0.973544C42.4615 2.11321 42.6238 3.89744 41.7079 5.21598C38.8444 9.33631 40.7068 14.7712 41.6919 20.9366C42.5391 26.2471 42.72 32.3604 37.6403 37.4403C34.1265 40.9542 30.1172 41.951 26.2223 41.951Z" fill="url(#paint11_linear_1388_1459)"/>
<defs>
<linearGradient id="paint0_linear_1388_1459" x1="53.8102" y1="55.9999" x2="3.45347" y2="55.1243" gradientUnits="userSpaceOnUse">
<stop stop-color="#94BBDF"/>
<stop offset="1" stop-color="#FF6D04"/>
</linearGradient>
<linearGradient id="paint1_linear_1388_1459" x1="53.8102" y1="55.9999" x2="3.45347" y2="55.1243" gradientUnits="userSpaceOnUse">
<stop stop-color="#94BBDF"/>
<stop offset="1" stop-color="#FF6D04"/>
</linearGradient>
<linearGradient id="paint2_linear_1388_1459" x1="53.8102" y1="55.9999" x2="3.45347" y2="55.1243" gradientUnits="userSpaceOnUse">
<stop stop-color="#94BBDF"/>
<stop offset="1" stop-color="#FF6D04"/>
</linearGradient>
<linearGradient id="paint3_linear_1388_1459" x1="53.8102" y1="55.9999" x2="3.45347" y2="55.1243" gradientUnits="userSpaceOnUse">
<stop stop-color="#94BBDF"/>
<stop offset="1" stop-color="#FF6D04"/>
</linearGradient>
<linearGradient id="paint4_linear_1388_1459" x1="53.8102" y1="55.9999" x2="3.45347" y2="55.1243" gradientUnits="userSpaceOnUse">
<stop stop-color="#94BBDF"/>
<stop offset="1" stop-color="#FF6D04"/>
</linearGradient>
<linearGradient id="paint5_linear_1388_1459" x1="53.8102" y1="55.9999" x2="3.45347" y2="55.1243" gradientUnits="userSpaceOnUse">
<stop stop-color="#94BBDF"/>
<stop offset="1" stop-color="#FF6D04"/>
</linearGradient>
<linearGradient id="paint6_linear_1388_1459" x1="53.8102" y1="55.9999" x2="3.45347" y2="55.1243" gradientUnits="userSpaceOnUse">
<stop stop-color="#94BBDF"/>
<stop offset="1" stop-color="#FF6D04"/>
</linearGradient>
<linearGradient id="paint7_linear_1388_1459" x1="53.8102" y1="55.9999" x2="3.45347" y2="55.1243" gradientUnits="userSpaceOnUse">
<stop stop-color="#94BBDF"/>
<stop offset="1" stop-color="#FF6D04"/>
</linearGradient>
<linearGradient id="paint8_linear_1388_1459" x1="53.8102" y1="55.9999" x2="3.45347" y2="55.1243" gradientUnits="userSpaceOnUse">
<stop stop-color="#94BBDF"/>
<stop offset="1" stop-color="#FF6D04"/>
</linearGradient>
<linearGradient id="paint9_linear_1388_1459" x1="53.8102" y1="55.9999" x2="3.45347" y2="55.1243" gradientUnits="userSpaceOnUse">
<stop stop-color="#94BBDF"/>
<stop offset="1" stop-color="#FF6D04"/>
</linearGradient>
<linearGradient id="paint10_linear_1388_1459" x1="53.8102" y1="55.9999" x2="3.45347" y2="55.1243" gradientUnits="userSpaceOnUse">
<stop stop-color="#94BBDF"/>
<stop offset="1" stop-color="#FF6D04"/>
</linearGradient>
<linearGradient id="paint11_linear_1388_1459" x1="53.8102" y1="55.9999" x2="3.45347" y2="55.1243" gradientUnits="userSpaceOnUse">
<stop stop-color="#94BBDF"/>
<stop offset="1" stop-color="#FF6D04"/>
</linearGradient>
</defs>
</svg>
