<svg xmlns="http://www.w3.org/2000/svg" width="82" height="81" viewBox="0 0 82 81" fill="none">
  <path d="M41.2343 19.4414L59.4728 29.9714V51.0314L41.2343 61.5614L22.9958 51.0314V29.9714L41.2343 19.4414Z" fill="url(#paint0_linear_975_3404)"/>
  <mask id="path-2-inside-1_975_3404" fill="white">
    <path d="M12.6911 64.4503C11.3203 65.6005 9.2648 65.4285 8.22781 63.9702C4.17195 58.2666 1.6522 51.5923 0.941218 44.5928C0.120789 36.5158 1.74675 28.3787 5.60812 21.2372C9.46949 14.0958 15.388 8.27963 22.5958 4.54348C28.842 1.30574 35.8066 -0.240425 42.8 0.0302666C44.5881 0.0994761 45.8575 1.72529 45.6456 3.5021C45.4337 5.27892 43.8202 6.53128 42.0313 6.48932C36.3314 6.35565 30.6704 7.65679 25.5779 10.2965C19.5234 13.4349 14.5518 18.3204 11.3082 24.3193C8.06469 30.3181 6.69888 37.1533 7.38804 43.9379C7.96771 49.6446 9.9787 55.094 13.2116 59.7903C14.2263 61.2642 14.0618 63.3001 12.6911 64.4503Z"/>
  </mask>
  <path d="M12.6911 64.4503C11.3203 65.6005 9.2648 65.4285 8.22781 63.9702C4.17195 58.2666 1.6522 51.5923 0.941218 44.5928C0.120789 36.5158 1.74675 28.3787 5.60812 21.2372C9.46949 14.0958 15.388 8.27963 22.5958 4.54348C28.842 1.30574 35.8066 -0.240425 42.8 0.0302666C44.5881 0.0994761 45.8575 1.72529 45.6456 3.5021C45.4337 5.27892 43.8202 6.53128 42.0313 6.48932C36.3314 6.35565 30.6704 7.65679 25.5779 10.2965C19.5234 13.4349 14.5518 18.3204 11.3082 24.3193C8.06469 30.3181 6.69888 37.1533 7.38804 43.9379C7.96771 49.6446 9.9787 55.094 13.2116 59.7903C14.2263 61.2642 14.0618 63.3001 12.6911 64.4503Z" stroke="url(#paint1_linear_975_3404)" stroke-width="6.48" mask="url(#path-2-inside-1_975_3404)"/>
  <mask id="path-3-inside-2_975_3404" fill="white">
    <path d="M41.2339 3.24C41.2339 1.4506 42.6869 -0.0134762 44.4706 0.129515C51.4469 0.68878 58.1793 3.0487 63.9983 7.00324C70.713 11.5665 75.9012 18.0425 78.8898 25.591C81.8785 33.1394 82.5295 41.4118 80.7585 49.3348C79.2238 56.2009 75.9315 62.5299 71.2288 67.7132C70.0265 69.0384 67.965 68.9658 66.7401 67.6614C65.5152 66.357 65.593 64.3159 66.775 62.9725C70.5412 58.6921 73.1833 53.5191 74.4346 47.9212C75.9222 41.2659 75.3753 34.3171 72.8649 27.9764C70.3544 21.6357 65.9963 16.1959 60.356 12.3627C55.6118 9.13858 50.1447 7.17631 44.4691 6.63415C42.6878 6.46399 41.2339 5.0294 41.2339 3.24Z"/>
  </mask>
  <path d="M41.2339 3.24C41.2339 1.4506 42.6869 -0.0134762 44.4706 0.129515C51.4469 0.68878 58.1793 3.0487 63.9983 7.00324C70.713 11.5665 75.9012 18.0425 78.8898 25.591C81.8785 33.1394 82.5295 41.4118 80.7585 49.3348C79.2238 56.2009 75.9315 62.5299 71.2288 67.7132C70.0265 69.0384 67.965 68.9658 66.7401 67.6614C65.5152 66.357 65.593 64.3159 66.775 62.9725C70.5412 58.6921 73.1833 53.5191 74.4346 47.9212C75.9222 41.2659 75.3753 34.3171 72.8649 27.9764C70.3544 21.6357 65.9963 16.1959 60.356 12.3627C55.6118 9.13858 50.1447 7.17631 44.4691 6.63415C42.6878 6.46399 41.2339 5.0294 41.2339 3.24Z" stroke="url(#paint2_linear_975_3404)" stroke-width="6.48" mask="url(#path-3-inside-2_975_3404)"/>
  <mask id="path-4-inside-3_975_3404" fill="white">
    <path d="M67.5807 66.8468C68.846 68.1121 68.8538 70.1748 67.4915 71.3349C62.163 75.8724 55.7337 78.9643 48.8228 80.2826C40.8481 81.8039 32.6002 80.8933 25.1494 77.6691C17.6986 74.4448 11.3887 69.0557 7.0386 62.201C3.2688 56.2607 1.12151 49.4574 0.781656 42.467C0.694762 40.6797 2.20375 39.2734 3.99227 39.3296C5.78079 39.3858 7.16901 40.8841 7.28313 42.6698C7.64674 48.3597 9.43632 53.8857 12.5098 58.7288C16.164 64.4868 21.4642 69.0136 27.7229 71.722C33.9816 74.4304 40.9098 75.1953 47.6086 73.9174C53.243 72.8426 58.4964 70.3643 62.893 66.7344C64.2729 65.5951 66.3154 65.5815 67.5807 66.8468Z"/>
  </mask>
  <path d="M67.5807 66.8468C68.846 68.1121 68.8538 70.1748 67.4915 71.3349C62.163 75.8724 55.7337 78.9643 48.8228 80.2826C40.8481 81.8039 32.6002 80.8933 25.1494 77.6691C17.6986 74.4448 11.3887 69.0557 7.0386 62.201C3.2688 56.2607 1.12151 49.4574 0.781656 42.467C0.694762 40.6797 2.20375 39.2734 3.99227 39.3296C5.78079 39.3858 7.16901 40.8841 7.28313 42.6698C7.64674 48.3597 9.43632 53.8857 12.5098 58.7288C16.164 64.4868 21.4642 69.0136 27.7229 71.722C33.9816 74.4304 40.9098 75.1953 47.6086 73.9174C53.243 72.8426 58.4964 70.3643 62.893 66.7344C64.2729 65.5951 66.3154 65.5815 67.5807 66.8468Z" stroke="url(#paint3_linear_975_3404)" stroke-width="6.48" mask="url(#path-4-inside-3_975_3404)"/>
  <defs>
    <linearGradient id="paint0_linear_975_3404" x1="52.5743" y1="19.4414" x2="20.1743" y2="61.5614" gradientUnits="userSpaceOnUse">
      <stop stop-color="#FF6D04"/>
      <stop offset="0.515922" stop-color="#FF6D04" stop-opacity="0.3"/>
      <stop offset="1" stop-color="#FF6D04" stop-opacity="0"/>
    </linearGradient>
    <linearGradient id="paint1_linear_975_3404" x1="52.5739" y1="-11.745" x2="0.733888" y2="57.51" gradientUnits="userSpaceOnUse">
      <stop offset="0.164969" stop-color="#FF6D04"/>
      <stop offset="0.816052" stop-color="#FF6D04" stop-opacity="0"/>
    </linearGradient>
    <linearGradient id="paint2_linear_975_3404" x1="88.6189" y1="72.495" x2="34.3489" y2="5.265" gradientUnits="userSpaceOnUse">
      <stop stop-color="#FF6D04"/>
      <stop offset="0.815952" stop-color="#FF6D04" stop-opacity="0"/>
    </linearGradient>
    <linearGradient id="paint3_linear_975_3404" x1="-26.4011" y1="40.5" x2="89.0239" y2="55.89" gradientUnits="userSpaceOnUse">
      <stop stop-color="#FF6D04"/>
      <stop offset="0.815952" stop-color="#FF6D04" stop-opacity="0"/>
    </linearGradient>
  </defs>
</svg>