<svg width="57" height="56" viewBox="0 0 57 56" fill="none" xmlns="http://www.w3.org/2000/svg">
<path d="M24.891 31.7253H22.0917V28.926C22.0917 28.6785 21.9934 28.4412 21.8184 28.2662C21.6434 28.0912 21.4061 27.9929 21.1586 27.9929H17.4262C17.1787 27.9929 16.9414 28.0912 16.7664 28.2662C16.5914 28.4412 16.4931 28.6785 16.4931 28.926V31.7253H13.6938C13.4463 31.7253 13.209 31.8236 13.034 31.9985C12.859 32.1735 12.7607 32.4109 12.7607 32.6583V36.3907C12.7607 36.6382 12.859 36.8755 13.034 37.0505C13.209 37.2255 13.4463 37.3238 13.6938 37.3238H16.4931V40.1231C16.4931 40.3706 16.5914 40.6079 16.7664 40.7829C16.9414 40.9579 17.1787 41.0562 17.4262 41.0562H21.1586C21.4061 41.0562 21.6434 40.9579 21.8184 40.7829C21.9934 40.6079 22.0917 40.3706 22.0917 40.1231V37.3238H24.891C25.1384 37.3238 25.3758 37.2255 25.5508 37.0505C25.7257 36.8755 25.8241 36.6382 25.8241 36.3907V32.6583C25.8241 32.4109 25.7257 32.1735 25.5508 31.9985C25.3758 31.8236 25.1384 31.7253 24.891 31.7253ZM23.9579 35.4576H21.1586C20.9111 35.4576 20.6738 35.5559 20.4988 35.7309C20.3238 35.9059 20.2255 36.1433 20.2255 36.3907V39.19H18.3593V36.3907C18.3593 36.1433 18.261 35.9059 18.086 35.7309C17.911 35.5559 17.6737 35.4576 17.4262 35.4576H14.6269V33.5914H17.4262C17.6737 33.5914 17.911 33.4931 18.086 33.3181C18.261 33.1432 18.3593 32.9058 18.3593 32.6583V29.8591H20.2255V32.6583C20.2255 32.9058 20.3238 33.1432 20.4988 33.3181C20.6738 33.4931 20.9111 33.5914 21.1586 33.5914H23.9579V35.4576Z" fill="url(#paint0_linear_1388_1462)"/>
<path d="M53.6088 38.465C52.435 37.2841 50.9897 36.4087 49.3994 35.9153C47.8091 35.422 46.1221 35.3257 44.486 35.6349V32.6583C44.4837 30.9267 43.7949 29.2667 42.5704 28.0422C41.346 26.8178 39.6859 26.1289 37.9543 26.1267V18.6619C37.8856 17.3611 37.392 16.1187 36.5492 15.1254C35.7065 14.1321 34.5611 13.4428 33.2888 13.1632V9.33096H34.2219C34.4694 9.33096 34.7067 9.23265 34.8817 9.05766C35.0567 8.88267 35.155 8.64533 35.155 8.39786V0.933096C35.155 0.685623 35.0567 0.448287 34.8817 0.273297C34.7067 0.098308 34.4694 0 34.2219 0H4.36286C4.11539 0 3.87805 0.098308 3.70306 0.273297C3.52807 0.448287 3.42976 0.685623 3.42976 0.933096V8.39786C3.42976 8.64533 3.52807 8.88267 3.70306 9.05766C3.87805 9.23265 4.11539 9.33096 4.36286 9.33096H5.29595V13.1632C4.02368 13.4428 2.87829 14.1321 2.03552 15.1254C1.19276 16.1187 0.699164 17.3611 0.630475 18.6619V51.3203C0.579563 51.9458 0.665309 52.575 0.881767 53.1642C1.09823 53.7533 1.44022 54.2884 1.88404 54.7322C2.32786 55.176 2.86289 55.518 3.45204 55.7344C4.04119 55.9509 4.67037 56.0366 5.29595 55.9857H33.2888C34.0684 55.9972 34.8408 55.836 35.5506 55.5136C36.314 55.8244 37.1301 55.9847 37.9543 55.9857C39.2749 55.9797 40.5621 55.5704 41.6438 54.8128C43.816 55.9404 46.3201 56.2534 48.7031 55.6952C51.0861 55.137 53.1906 53.7445 54.6362 51.7695C56.0817 49.7945 56.7727 47.3674 56.5843 44.9272C56.3959 42.4869 55.3404 40.1947 53.6088 38.465ZM51.5906 39.1639L44.486 46.2685V37.5328C45.7166 37.2529 46.9946 37.2541 48.2246 37.5365C49.4547 37.8189 50.6053 38.3752 51.5906 39.1639ZM41.2537 29.3645C41.6892 29.795 42.0343 30.3081 42.2689 30.8737C42.5035 31.4393 42.6228 32.046 42.6198 32.6583V40.1231H33.2888V32.6583C33.2851 31.5524 33.6765 30.4815 34.3924 29.6386C35.1084 28.7957 36.1019 28.2362 37.1938 28.061C37.4446 28.0145 37.6992 27.9917 37.9543 27.9929C38.5679 27.9901 39.1759 28.1101 39.7425 28.3456C40.3091 28.5812 40.8229 28.9276 41.2537 29.3645ZM5.29595 1.86619H7.16214V5.59857C7.16214 5.84605 7.26045 6.08338 7.43544 6.25837C7.61043 6.43336 7.84777 6.53167 8.09524 6.53167C8.34271 6.53167 8.58005 6.43336 8.75504 6.25837C8.93003 6.08338 9.02834 5.84605 9.02834 5.59857V1.86619H10.8945V5.59857C10.8945 5.84605 10.9928 6.08338 11.1678 6.25837C11.3428 6.43336 11.5801 6.53167 11.8276 6.53167C12.0751 6.53167 12.3124 6.43336 12.4874 6.25837C12.6624 6.08338 12.7607 5.84605 12.7607 5.59857V1.86619H14.6269V5.59857C14.6269 5.84605 14.7252 6.08338 14.9002 6.25837C15.0752 6.43336 15.3125 6.53167 15.56 6.53167C15.8075 6.53167 16.0448 6.43336 16.2198 6.25837C16.3948 6.08338 16.4931 5.84605 16.4931 5.59857V1.86619H18.3593V5.59857C18.3593 5.84605 18.4576 6.08338 18.6326 6.25837C18.8076 6.43336 19.0449 6.53167 19.2924 6.53167C19.5399 6.53167 19.7772 6.43336 19.9522 6.25837C20.1272 6.08338 20.2255 5.84605 20.2255 5.59857V1.86619H22.0917V5.59857C22.0917 5.84605 22.19 6.08338 22.365 6.25837C22.54 6.43336 22.7773 6.53167 23.0248 6.53167C23.2722 6.53167 23.5096 6.43336 23.6846 6.25837C23.8596 6.08338 23.9579 5.84605 23.9579 5.59857V1.86619H25.8241V5.59857C25.8241 5.84605 25.9224 6.08338 26.0974 6.25837C26.2723 6.43336 26.5097 6.53167 26.7572 6.53167C27.0046 6.53167 27.242 6.43336 27.417 6.25837C27.5919 6.08338 27.6902 5.84605 27.6902 5.59857V1.86619H29.5564V5.59857C29.5564 5.84605 29.6547 6.08338 29.8297 6.25837C30.0047 6.43336 30.2421 6.53167 30.4895 6.53167C30.737 6.53167 30.9743 6.43336 31.1493 6.25837C31.3243 6.08338 31.4226 5.84605 31.4226 5.59857V1.86619H33.2888V7.46477H5.29595V1.86619ZM31.4226 9.33096V13.0633H7.16214V9.33096H31.4226ZM2.49667 18.6619C2.58075 17.7003 3.00099 16.799 3.68357 16.1164C4.36615 15.4339 5.26741 15.0136 6.22905 14.9295H32.3557C33.3174 15.0136 34.2186 15.4339 34.9012 16.1164C35.5838 16.799 36.004 17.7003 36.0881 18.6619V22.3943H2.49667V18.6619ZM2.49667 24.2605H36.0881V26.4066C34.738 26.8024 33.553 27.626 32.7116 28.7535C31.8702 29.8811 31.4178 31.2515 31.4226 32.6583V44.7886H2.49667V24.2605ZM5.29595 54.1195C4.91683 54.1679 4.53167 54.1289 4.17 54.0053C3.80833 53.8817 3.47976 53.677 3.20951 53.4067C2.93925 53.1365 2.73449 52.8079 2.61093 52.4462C2.48736 52.0845 2.44827 51.6994 2.49667 51.3203V46.6548H31.4226V49.4541C31.4271 50.3216 31.6035 51.1797 31.9418 51.9786C32.2801 52.7775 32.7734 53.5014 33.3933 54.1083C33.356 54.1083 33.3271 54.1195 33.2888 54.1195H5.29595ZM35.922 53.6465C35.8968 53.6343 35.8716 53.6231 35.8446 53.6129C35.0779 53.221 34.4339 52.6257 33.9831 51.8921C33.5323 51.1586 33.2921 50.3151 33.2888 49.4541V41.9893H42.6198V49.4541C42.6199 50.1334 42.4713 50.8046 42.1843 51.4203C41.8974 52.0361 41.4791 52.5816 40.9589 53.0185C40.2676 53.5945 39.4254 53.9599 38.5325 54.0712C37.6396 54.1826 36.7336 54.0351 35.922 53.6465ZM46.3522 54.1195C45.2374 54.1203 44.1337 53.8982 43.1059 53.4664C43.1106 53.4598 43.1143 53.4515 43.1199 53.4449C43.3128 53.1929 43.4871 52.9272 43.6415 52.6499C43.6779 52.5846 43.7115 52.5193 43.746 52.453C43.8845 52.1891 44.0048 51.916 44.1062 51.6356C44.1146 51.6133 44.1249 51.5927 44.1323 51.5703C44.2329 51.2697 44.3115 50.9623 44.3675 50.6503C44.3815 50.5747 44.3936 50.4991 44.4048 50.4226C44.4563 50.1023 44.4835 49.7785 44.486 49.4541V48.9073L52.91 40.4833C53.8981 41.718 54.5174 43.2068 54.6962 44.7781C54.8751 46.3494 54.6063 47.9393 53.921 49.3645C53.2356 50.7897 52.1614 51.9922 50.8223 52.8335C49.4832 53.6748 47.9336 54.1206 46.3522 54.1195Z" fill="url(#paint1_linear_1388_1462)"/>
<defs>
<linearGradient id="paint0_linear_1388_1462" x1="54.2258" y1="55.9999" x2="3.87037" y2="55.1243" gradientUnits="userSpaceOnUse">
<stop stop-color="#94BBDF"/>
<stop offset="1" stop-color="#FF6D04"/>
</linearGradient>
<linearGradient id="paint1_linear_1388_1462" x1="54.2258" y1="55.9999" x2="3.87037" y2="55.1243" gradientUnits="userSpaceOnUse">
<stop stop-color="#94BBDF"/>
<stop offset="1" stop-color="#FF6D04"/>
</linearGradient>
</defs>
</svg>
