<svg width="57" height="56" viewBox="0 0 57 56" fill="none" xmlns="http://www.w3.org/2000/svg">
<path d="M31.6881 24.8002C33.2473 25.8256 34.7259 26.3979 36.1103 26.5977C38.0941 26.8839 39.9124 26.4036 41.5251 25.4103C43.1956 24.3813 44.6621 22.8042 45.8824 20.9503C47.9061 17.874 49.2456 14.0512 49.7351 10.6602C49.8486 9.87449 49.7865 9.1245 49.5588 8.43801C49.3319 7.75581 48.9323 7.11856 48.37 6.55625C47.8084 5.99464 47.1711 5.59431 46.4889 5.36739C45.8024 5.13975 45.0517 5.07766 44.266 5.19113C40.8743 5.68066 37.0515 7.02009 33.9752 9.04457C32.122 10.2648 30.5442 11.7313 29.5159 13.3997C28.524 15.0167 28.043 16.835 28.3285 18.8159C28.5283 20.201 29.1006 21.6796 30.126 23.2381C30.5492 23.8811 31.0452 24.377 31.6881 24.8002ZM1.34363 29.1689C0.904049 29.4029 0.356716 29.2366 0.122655 28.7971C-0.111406 28.3575 0.054863 27.8102 0.494442 27.5761C4.65331 25.3489 5.81577 22.5823 6.87047 20.0662C7.97941 17.4201 8.98915 15.0174 12.6107 13.5203C12.5436 13.3397 12.5101 13.1514 12.5101 12.9622C12.5101 12.5512 12.6678 12.1373 12.9803 11.8248L13.5633 11.2446C13.2094 10.5324 12.9932 9.83953 12.8961 9.1716C12.6878 7.72227 13.0317 6.40282 13.7467 5.24108C14.4311 4.13357 15.4515 3.17806 16.6397 2.39595C18.5193 1.15856 20.8471 0.340777 22.9058 0.0439187C23.553 -0.0488495 24.1853 0.00609779 24.774 0.201625C25.367 0.398579 25.9086 0.733258 26.3703 1.19496C26.832 1.65666 27.1667 2.19757 27.3637 2.79128C27.5592 3.38001 27.6142 4.01083 27.5214 4.65878C27.2245 6.71752 26.4075 9.04386 25.1701 10.9242C24.3887 12.1123 23.4332 13.1328 22.3257 13.8143C21.1611 14.5315 19.8423 14.8768 18.3944 14.6685C17.7258 14.5721 17.0336 14.3559 16.3221 14.002L15.7413 14.5843C15.428 14.8975 15.0155 15.0552 14.6031 15.0552C14.394 15.0552 14.1835 15.0146 13.9865 14.9325C10.4799 16.1456 9.56004 18.3371 8.54173 20.7633C7.36785 23.5607 6.07409 26.6356 1.34363 29.1689ZM14.5759 12.7896L14.4047 12.9608L14.6052 13.1613L14.7779 12.9887C14.7072 12.9223 14.643 12.8602 14.5759 12.7896ZM16.3678 11.9461C17.177 12.4784 17.9399 12.7753 18.6499 12.8773C19.6468 13.0208 20.5631 12.7781 21.3766 12.2772C22.2479 11.7406 23.0186 10.9106 23.6615 9.9323C24.7483 8.28102 25.4669 6.22656 25.7302 4.40331C25.7838 4.03081 25.7559 3.67686 25.6496 3.35788C25.5454 3.04319 25.3563 2.74419 25.0887 2.47659C24.8211 2.20899 24.5221 2.01988 24.2074 1.9157C23.8892 1.81008 23.5345 1.78154 23.1613 1.83506C21.338 2.09838 19.2829 2.81769 17.6316 3.9045C16.6539 4.54817 15.8233 5.31815 15.2874 6.18874C14.7879 7.00582 14.5445 7.92279 14.6873 8.91613C14.79 9.62545 15.0869 10.3883 15.6192 11.1975C15.829 11.5065 16.056 11.742 16.3678 11.9461ZM29.9776 55.8939C29.538 56.128 28.9907 55.9617 28.7566 55.5222C28.5226 55.0826 28.6888 54.5352 29.1284 54.3012C33.2873 52.074 34.4497 49.3074 35.5044 46.7912C36.6134 44.1452 37.6231 41.7425 41.2447 40.2454C41.1776 40.0655 41.144 39.8764 41.144 39.6873C41.144 39.2763 41.3017 38.8624 41.6143 38.5499L42.1973 37.9683C41.8434 37.2568 41.6272 36.5646 41.5301 35.896C41.3217 34.4474 41.6657 33.1279 42.3807 31.9655C43.0651 30.8594 44.0855 29.9031 45.2737 29.121C47.154 27.8837 49.4818 27.0659 51.5405 26.769C52.1885 26.6762 52.8193 26.7312 53.408 26.9267C54.0017 27.1237 54.5426 27.4583 55.0043 27.92C55.466 28.3817 55.8007 28.9219 55.9977 29.5157C56.1932 30.1058 56.2481 30.7366 56.1554 31.3839C55.8585 33.4426 55.0414 35.769 53.804 37.6493C53.0227 38.8374 52.0671 39.8579 50.9596 40.5394C49.795 41.2565 48.4763 41.6019 47.0284 41.3936C46.3598 41.2972 45.6668 41.081 44.9554 40.7263L44.3752 41.3094C44.062 41.6226 43.6495 41.7803 43.237 41.7803C43.028 41.7803 42.8174 41.7397 42.6205 41.6576C39.1138 42.8707 38.194 45.0622 37.1757 47.4884C36.0018 50.2858 34.7088 53.3599 29.9776 55.8939ZM43.2092 39.5139L43.0379 39.6852L43.2385 39.8857L43.4097 39.7152L43.2092 39.5139ZM45.0018 38.6712C45.811 39.2035 46.5738 39.5004 47.2839 39.6024C48.2801 39.7459 49.197 39.5032 50.0105 39.0023C50.8818 38.4657 51.6525 37.6357 52.2955 36.6574C53.3823 35.0061 54.1009 32.9517 54.3642 31.1284C54.4177 30.7559 54.3892 30.4012 54.2836 30.0823C54.1794 29.7676 53.9903 29.4693 53.7227 29.2017C53.4551 28.9341 53.1561 28.745 52.8414 28.6408C52.5224 28.5345 52.1685 28.5066 51.796 28.5602C49.972 28.8235 47.9168 29.5428 46.2656 30.6296C45.2872 31.274 44.4573 32.0432 43.9214 32.9131C43.4219 33.7302 43.1785 34.6472 43.3212 35.6405C43.424 36.3498 43.7209 37.1134 44.2532 37.9226C44.448 38.2209 44.7049 38.4742 45.0018 38.6712ZM29.1734 29.0618C22.539 31.1484 20.6687 35.1274 18.7105 39.2999C16.2957 44.4442 13.7517 49.8612 3.17116 52.8733C2.69091 53.0096 2.18924 52.7305 2.05295 52.2503C1.92878 51.8121 2.15 51.3562 2.55461 51.1763C10.2579 47.0324 12.4045 41.9188 14.3562 37.2654C16.4577 32.2566 18.3545 27.7402 26.0057 25.2141C26.1013 24.9764 26.2412 24.7524 26.4232 24.554L27.9139 23.0583C27.166 21.681 26.7214 20.3495 26.5373 19.0714C26.1862 16.6344 26.7685 14.4137 27.9752 12.452C29.1513 10.5474 30.9196 8.894 32.9833 7.53602C36.2887 5.36025 40.3841 3.92306 44.0106 3.39999C45.0703 3.24728 46.0993 3.33576 47.0555 3.65332C48.0167 3.9723 48.8952 4.5182 49.6516 5.27462C50.4087 6.03175 50.9539 6.91091 51.2729 7.87141C51.5905 8.82764 51.6789 9.85523 51.5262 10.9156C51.0032 14.5414 49.566 18.6361 47.3909 21.9422C46.0329 24.0059 44.3802 25.7735 42.4742 26.9474C40.5118 28.1563 38.2896 28.74 35.8548 28.3889C34.5775 28.2048 33.2466 27.7602 31.8686 27.0123L30.4386 28.4424C30.0825 28.7964 29.6344 29.0026 29.1734 29.0618ZM26.1213 27.0844C19.6268 29.3908 17.917 33.4619 16.0274 37.9661C14.6944 41.1452 13.275 44.5263 10.2165 47.7211C14.0179 45.0443 15.5736 41.7325 17.075 38.5349C19.0274 34.3746 20.8999 30.3891 26.8806 27.9643C26.6008 27.6846 26.3154 27.4348 26.1213 27.0844ZM28.9008 24.6332L27.7412 25.7928C27.6877 25.8592 27.6598 25.9434 27.6598 26.0276C27.6598 26.1232 27.6948 26.2181 27.7633 26.2866L28.6403 27.1608C28.7102 27.2307 28.8052 27.2664 28.8986 27.2664C28.995 27.2664 29.0899 27.2314 29.157 27.1643L30.293 26.0254C29.7542 25.6208 29.3054 25.172 28.9008 24.6332Z" fill="url(#paint0_linear_1388_1458)"/>
<defs>
<linearGradient id="paint0_linear_1388_1458" x1="53.8025" y1="55.9999" x2="3.28157" y2="55.1185" gradientUnits="userSpaceOnUse">
<stop stop-color="#94BBDF"/>
<stop offset="1" stop-color="#FF6D04"/>
</linearGradient>
</defs>
</svg>
