<svg width="66" height="56" viewBox="0 0 66 56" fill="none" xmlns="http://www.w3.org/2000/svg">
<path d="M31.7843 55.6211L5.02253 28.5214C-1.46652 21.9499 -1.39948 11.3244 5.17191 4.83538C11.745 -1.65469 22.337 -1.61799 28.858 4.98463L32.6913 8.86624L36.5269 4.9845C43.0412 -1.61697 53.639 -1.65558 60.2127 4.83538L60.2128 4.83551C66.7837 11.3263 66.8495 21.9519 60.3597 28.5215L33.5979 55.6211C33.0987 56.1266 32.2829 56.126 31.7843 55.6211ZM6.96289 6.64918C1.39163 12.1506 1.33479 21.159 6.8362 26.7303L32.691 52.9117L58.5459 26.7303C64.048 21.1604 63.992 12.152 58.4212 6.64892L58.4213 6.64905C52.8492 1.14713 43.8643 1.17746 38.3405 6.77548L33.5974 11.5755C33.091 12.088 32.2743 12.0717 31.7839 11.5753L27.0443 6.77587C21.5188 1.18103 12.5385 1.14394 6.96289 6.64918Z" fill="url(#paint0_linear_1388_1460)"/>
<path d="M38.5314 38.0662L32.0703 23.0977L26.8569 35.5059C26.487 36.3855 25.3138 36.5616 24.7027 35.8279L18.7122 28.6394H5.67663C4.97283 28.6394 4.40209 28.0687 4.40209 27.3649C4.40209 26.6611 4.97283 26.0903 5.67663 26.0903H19.3091C19.6874 26.0903 20.046 26.2583 20.2883 26.549L25.3189 32.5856L30.8795 19.3514C31.0782 18.8788 31.541 18.5706 32.0546 18.5706C32.563 18.5706 33.0231 18.8728 33.2249 19.34L39.473 33.8152L44.4272 16.937C44.5838 16.4032 45.0684 16.0327 45.6246 16.0216C46.1744 16.0096 46.6798 16.3612 46.8577 16.8884L49.9631 26.0902H59.7057C60.4095 26.0902 60.9802 26.6609 60.9802 27.3647C60.9802 28.0685 60.4095 28.6393 59.7057 28.6393H49.048C48.5011 28.6393 48.0151 28.2904 47.8404 27.7722L45.7347 21.5328L40.9247 37.92C40.7734 38.4353 40.3156 38.8004 39.7796 38.8332C39.2452 38.8663 38.7448 38.5602 38.5314 38.0662Z" fill="url(#paint1_linear_1388_1460)"/>
<defs>
<linearGradient id="paint0_linear_1388_1460" x1="62.412" y1="55.9999" x2="3.98173" y2="54.8208" gradientUnits="userSpaceOnUse">
<stop stop-color="#94BBDF"/>
<stop offset="1" stop-color="#FF6D04"/>
</linearGradient>
<linearGradient id="paint1_linear_1388_1460" x1="62.412" y1="55.9999" x2="3.98173" y2="54.8208" gradientUnits="userSpaceOnUse">
<stop stop-color="#94BBDF"/>
<stop offset="1" stop-color="#FF6D04"/>
</linearGradient>
</defs>
</svg>
