<svg width="67" height="56" viewBox="0 0 67 56" fill="none" xmlns="http://www.w3.org/2000/svg">
<path d="M12.9908 33.822C14.0618 37.9666 21.7106 41.9714 24.6327 41.9714C25.5059 41.9714 27.7295 41.6804 29.2197 41.4941C31.42 42.9959 33.469 46.3604 34.5284 49.0148C36.9383 55.0337 37.9279 56 42.0957 56C44.2844 56 43.842 52.3793 43.4927 50.179C45.2856 50.3304 47.1367 50.179 49.3137 50.179C52.5502 50.179 56.8694 46.9309 57.8007 43.0658C58.3851 43.1199 58.9719 43.1433 59.5587 43.1356C62.8766 43.1356 66.2062 37.6173 66.5439 31.5635C66.8 26.8252 66.637 21.7842 61.5495 16.6967C60.2006 15.3545 59.191 13.7102 58.604 11.9002C57.6494 9.46699 56.6715 6.96397 51.8517 3.75078C48.0564 1.15462 37.9977 -0.323913 31.5481 0.0602722C24.9005 0.4561 12.6997 3.35495 6.34318 9.71148C0.18457 15.8817 0.18457 20.9227 0.18457 23.3442C0.18457 27.5121 5.27212 33.822 12.9908 33.822ZM41.4438 53.6134C39.1154 53.6134 38.6962 53.1826 36.6938 48.1533C35.6851 45.5659 34.1915 43.195 32.2932 41.1681L35.1105 40.8072C35.2399 41.7665 35.6128 42.6767 36.1936 43.4511C36.7744 44.2255 37.5438 44.8383 38.4285 45.2312C38.9804 46.7779 39.8532 48.1903 40.9897 49.3757C41.2862 50.7689 41.4384 52.189 41.4438 53.6134ZM49.2672 47.7924C46.9388 47.7924 43.0736 48.1184 42.41 47.5596C41.5252 46.4504 40.8362 45.1984 40.3727 43.8574C40.2937 43.651 40.1577 43.4713 39.9804 43.3394C39.8031 43.2074 39.5919 43.1287 39.3715 43.1123C38.9454 42.9342 38.5667 42.6592 38.2655 42.309C37.8057 41.8664 37.5136 41.2781 37.4389 40.6442C45.5883 40.0621 44.9829 41.0168 55.4607 42.6816C54.6574 45.3359 51.4675 47.7924 49.2672 47.7924ZM7.99634 11.3646C13.666 5.69499 25.8668 2.38867 33.7833 2.38867C33.5621 4.26303 31.4549 7.48786 29.8483 9.47864C29.7132 9.58766 29.6041 9.72553 29.5291 9.88217C29.4541 10.0388 29.4152 10.2102 29.415 10.3839C29.4149 10.5575 29.4536 10.729 29.5283 10.8858C29.603 11.0425 29.7119 11.1806 29.8469 11.2898C29.9819 11.3991 30.1396 11.4767 30.3085 11.5171C30.4774 11.5575 30.6532 11.5596 30.823 11.5232C30.9928 11.4869 31.1523 11.413 31.2899 11.307C31.4274 11.201 31.5395 11.0655 31.6179 10.9106C32.3979 9.9676 35.7858 5.69499 36.0768 2.40031C37.6252 2.4818 39.2201 2.63315 40.7336 2.85435C36.6822 6.57978 35.809 13.9142 35.7625 14.2751C35.7463 14.4273 35.7603 14.5811 35.8037 14.7278C35.847 14.8745 35.9189 15.0113 36.0151 15.1302C36.1113 15.2491 36.2301 15.3479 36.3645 15.4209C36.4989 15.494 36.6465 15.5398 36.7986 15.5558H36.9267C37.2145 15.5575 37.4927 15.4526 37.7077 15.2612C37.9227 15.0699 38.0592 14.8057 38.0909 14.5196C38.0909 14.4381 39.1619 5.48544 43.9817 3.44809C48.0564 4.29795 50.5711 5.15946 53.5048 8.10488C52.2045 9.96931 50.7099 11.6903 49.046 13.239C47.3059 12.7006 45.6091 12.0312 43.9701 11.2366C43.6891 11.1069 43.3681 11.0941 43.0777 11.2011C42.7873 11.3081 42.5514 11.5261 42.4217 11.807C42.292 12.088 42.2792 12.409 42.3862 12.6994C42.4932 12.9897 42.7112 13.2257 42.9921 13.3554C44.7857 14.2626 46.6656 14.988 48.6036 15.5208C49.1494 16.9889 49.1286 18.6076 48.5454 20.0612C48.4203 20.3437 48.4126 20.6643 48.524 20.9525C48.6353 21.2407 48.8566 21.4729 49.1391 21.5979C49.4216 21.723 49.7422 21.7307 50.0304 21.6193C50.3186 21.508 50.5508 21.2867 50.6758 21.0042C51.5016 19.0075 51.5555 16.7751 50.8272 14.7408C52.3644 13.2836 53.7708 11.6942 55.0299 9.99088C56.264 11.9351 56.4968 13.856 57.9521 16.0796C58.3363 17.3719 59.2211 20.946 58.8252 22.6341C57.661 27.6751 51.5839 31.2026 51.5257 31.2375C51.3923 31.3136 51.2753 31.4153 51.1813 31.5367C51.0874 31.6582 51.0184 31.7971 50.9784 31.9453C50.9384 32.0936 50.928 32.2483 50.948 32.4005C50.9681 32.5528 51.018 32.6996 51.095 32.8325C51.2485 33.0987 51.5012 33.2935 51.7978 33.3742C52.0944 33.4549 52.4109 33.415 52.6783 33.2632C54.3234 32.2915 55.8409 31.1182 57.1954 29.7706C57.9679 30.5995 58.5762 31.5674 58.9882 32.6229C59.0286 32.7705 59.0978 32.9087 59.1916 33.0295C59.2855 33.1504 59.4023 33.2515 59.5353 33.3272C59.6682 33.4029 59.8149 33.4517 59.9667 33.4706C60.1186 33.4896 60.2727 33.4785 60.4202 33.4378C62.5157 32.8557 60.1757 29.6193 58.7437 28.001C61.2817 24.6598 61.433 22.3197 61.0721 19.8516C64.1805 23.7517 64.2853 27.5703 64.0641 31.4936C63.9011 37.1516 60.979 40.8072 59.5587 40.8072C57.3467 40.8072 51.4791 39.643 45.8211 38.4788C41.3273 37.5824 33.1779 38.6302 28.5561 39.2006C26.7632 39.4218 25.2148 39.6197 24.6327 39.6197C22.8049 39.6197 16.2505 36.4065 15.3191 33.4262C15.1443 32.6444 15.1455 31.8335 15.3227 31.0523C15.4999 30.271 15.8486 29.539 16.3436 28.9091C17.3152 27.4452 18.7133 26.3153 20.3485 25.6726C23.4685 24.6249 27.7994 25.6726 27.8459 25.6726C28.0022 25.7104 28.1646 25.7155 28.3228 25.6874C28.4811 25.6594 28.6319 25.5988 28.7656 25.5096C30.8746 24.1545 33.1276 23.0378 35.4831 22.18C37.5245 21.5847 39.6934 21.5847 41.7348 22.18C41.88 22.2282 42.0333 22.2473 42.186 22.2362C42.3386 22.2251 42.4875 22.1841 42.6243 22.1154C42.761 22.0468 42.8829 21.9519 42.983 21.8361C43.0831 21.7203 43.1594 21.586 43.2075 21.4408C43.2557 21.2955 43.2748 21.1422 43.2637 20.9896C43.2526 20.837 43.2115 20.6881 43.1429 20.5513C43.0742 20.4146 42.9793 20.2927 42.8636 20.1926C42.7478 20.0925 42.6135 20.0162 42.4682 19.9681C39.9461 19.2175 37.2601 19.2175 34.738 19.9681C32.3455 20.8353 30.0542 21.9595 27.9041 23.321C26.1763 22.978 24.4133 22.8451 22.6536 22.9251C22.2054 20.8783 21.2302 18.9841 19.8246 17.4301C19.6146 17.2184 19.3314 17.0953 19.0334 17.0862C18.7353 17.0771 18.4451 17.1828 18.2227 17.3813C18.0002 17.5799 17.8624 17.8563 17.8377 18.1534C17.813 18.4506 17.9033 18.7459 18.0899 18.9785C19.1889 20.1955 19.9654 21.6684 20.3485 23.2627C18.9885 23.6422 17.7192 24.2925 16.6169 25.1748C15.5145 26.0571 14.6019 27.153 13.9338 28.3969C12.8654 27.5743 11.8684 26.663 10.9534 25.6726C10.0337 24.6016 9.39338 21.1439 9.20711 19.2113C9.17777 18.9026 9.02699 18.6181 8.78792 18.4205C8.54884 18.2229 8.24107 18.1284 7.93231 18.1577C7.62354 18.1871 7.33908 18.3379 7.14149 18.5769C6.9439 18.816 6.84938 19.1238 6.87871 19.4325C6.93692 20.0263 7.49573 25.2535 9.20711 27.1861C10.3565 28.4309 11.6236 29.5615 12.9908 30.5623C12.9043 30.8688 12.8344 31.1797 12.7812 31.4936C6.51781 31.4005 2.51297 26.115 2.51297 23.3442C2.51297 21.0741 2.51297 16.8364 7.99634 11.3646Z" fill="url(#paint0_linear_1388_1461)"/>
<path d="M36.6123 28.5016C36.7922 27.7052 37.0415 26.9261 37.3574 26.1732C37.414 26.0311 37.442 25.8791 37.4398 25.7261C37.4377 25.5731 37.4054 25.422 37.3449 25.2815C37.2844 25.1409 37.1967 25.0137 37.087 24.907C36.9773 24.8004 36.8476 24.7163 36.7055 24.6598C36.5633 24.6032 36.4114 24.5752 36.2583 24.5774C36.1053 24.5795 35.9543 24.6118 35.8137 24.6723C35.6732 24.7328 35.5459 24.8205 35.4393 24.9302C35.3326 25.0399 35.2486 25.1695 35.192 25.3117C34.7538 26.3394 34.4335 27.4134 34.2374 28.5133C30.1627 28.9091 20.8258 30.9814 20.3834 31.0862C20.0746 31.1201 19.792 31.2754 19.5977 31.5177C19.4034 31.76 19.3133 32.0696 19.3473 32.3784C19.3812 32.6872 19.5365 32.9698 19.7788 33.1641C20.0212 33.3584 20.3308 33.4485 20.6395 33.4146C20.7245 33.4261 20.8107 33.4261 20.8957 33.4146C24.1205 32.6928 33.015 30.8184 35.355 30.8184C38.2888 30.8184 43.0969 31.9826 47.7653 30.1199C52.4338 28.2572 55.7052 22.4362 55.8332 22.1917C55.9075 22.0579 55.9546 21.9109 55.9719 21.7589C55.9893 21.6069 55.9765 21.453 55.9343 21.3059C55.8922 21.1589 55.8214 21.0216 55.7262 20.9019C55.6309 20.7822 55.513 20.6825 55.3792 20.6084C55.2448 20.5346 55.0971 20.4881 54.9446 20.4716C54.7921 20.4551 54.6379 20.4689 54.4908 20.5122C54.3437 20.5555 54.2065 20.6274 54.0873 20.7238C53.968 20.8202 53.869 20.9392 53.7959 21.0741C53.7959 21.0741 50.8388 26.3828 46.9038 27.9545C43.3647 29.3282 39.453 28.6879 36.6123 28.5016Z" fill="url(#paint1_linear_1388_1461)"/>
<path d="M13.5263 18.6874C13.7891 18.6964 14.0473 18.6162 14.2587 18.4598C14.4701 18.3033 14.6223 18.0799 14.6905 17.8259C14.6905 17.8259 15.8547 13.693 18.835 12.1679C20.229 11.3958 21.8239 11.0631 23.4103 11.2133C22.6885 13.8793 24.5745 17.4068 26.6701 19.1066C26.7884 19.2039 26.9249 19.277 27.0715 19.3215C27.2182 19.366 27.3722 19.3811 27.5247 19.366C27.6772 19.3508 27.8252 19.3057 27.9603 19.2332C28.0953 19.1607 28.2147 19.0623 28.3116 18.9436C28.5046 18.7052 28.5957 18.4003 28.5652 18.0951C28.5347 17.7899 28.385 17.5091 28.1486 17.3137C26.6632 16.0125 25.7442 14.183 25.5874 12.2145C25.5874 12.1214 25.6456 11.1551 27.7295 7.08039C27.8684 6.80686 27.8938 6.48954 27.8001 6.19741C27.7063 5.90528 27.5011 5.66197 27.2289 5.52036C27.0929 5.44975 26.9443 5.40668 26.7916 5.39363C26.6389 5.38058 26.4851 5.3978 26.3391 5.44431C26.1931 5.49082 26.0577 5.5657 25.9407 5.66466C25.8237 5.76361 25.7273 5.8847 25.6572 6.02097C25.0402 7.18517 24.5745 8.19802 24.2369 8.98967C22.0214 8.62747 19.7483 9.01246 17.7756 10.084C13.8639 12.0748 12.5018 17.0692 12.4436 17.2206C12.3979 17.3898 12.391 17.5671 12.4234 17.7394C12.4559 17.9116 12.5268 18.0743 12.6309 18.2153C12.7349 18.3564 12.8695 18.4721 13.0246 18.5538C13.1796 18.6355 13.3511 18.6812 13.5263 18.6874Z" fill="url(#paint2_linear_1388_1461)"/>
<path d="M47.0086 33.3447C45.2856 33.6357 35.2968 33.8802 31.5946 33.9501C31.2859 33.9501 30.9898 34.0727 30.7714 34.2911C30.5531 34.5094 30.4304 34.8055 30.4304 35.1143C30.4304 35.423 30.5531 35.7192 30.7714 35.9375C30.9898 36.1558 31.2859 36.2785 31.5946 36.2785C32.1418 36.2785 45.111 36.0224 47.3579 35.6382C47.5095 35.6128 47.6547 35.5577 47.7849 35.4759C47.9152 35.3942 48.0279 35.2875 48.1167 35.1619C48.2054 35.0363 48.2684 34.8944 48.3021 34.7444C48.3357 34.5944 48.3392 34.4391 48.3125 34.2877C48.2584 33.9929 48.0926 33.7303 47.8497 33.5547C47.6068 33.379 47.3056 33.3038 47.0086 33.3447Z" fill="url(#paint3_linear_1388_1461)"/>
<defs>
<linearGradient id="paint0_linear_1388_1461" x1="63.7822" y1="55.9999" x2="4.05237" y2="54.7678" gradientUnits="userSpaceOnUse">
<stop stop-color="#94BBDF"/>
<stop offset="1" stop-color="#FF6D04"/>
</linearGradient>
<linearGradient id="paint1_linear_1388_1461" x1="63.7822" y1="55.9999" x2="4.05237" y2="54.7678" gradientUnits="userSpaceOnUse">
<stop stop-color="#94BBDF"/>
<stop offset="1" stop-color="#FF6D04"/>
</linearGradient>
<linearGradient id="paint2_linear_1388_1461" x1="63.7822" y1="55.9999" x2="4.05237" y2="54.7678" gradientUnits="userSpaceOnUse">
<stop stop-color="#94BBDF"/>
<stop offset="1" stop-color="#FF6D04"/>
</linearGradient>
<linearGradient id="paint3_linear_1388_1461" x1="63.7822" y1="55.9999" x2="4.05237" y2="54.7678" gradientUnits="userSpaceOnUse">
<stop stop-color="#94BBDF"/>
<stop offset="1" stop-color="#FF6D04"/>
</linearGradient>
</defs>
</svg>
